<svg width="346" height="400" version="1.1" xmlns="http://www.w3.org/2000/svg" desc="Created with imagetracer.js version 1.2.6" ><path fill="rgb(0,0,0)" stroke="rgb(0,0,0)" stroke-width="1" opacity="0" d="M 0 0 L 166 0.5 L 0.5 99 L 0 0 Z " /><path fill="rgb(0,0,0)" stroke="rgb(0,0,0)" stroke-width="1" opacity="0" d="M 177.5 0 L 346 0 L 346 98 L 217.5 23 L 187.5 7 L 181 5 Q 182.1 2.3 179.5 3 L 177.5 0 Z " /><path fill="rgb(0,0,0)" stroke="rgb(0,0,0)" stroke-width="1" opacity="0" d="M 0 300 L 52.5 333 L 167 399.5 L 0 400 L 0 300 Z " /><path fill="rgb(0,0,0)" stroke="rgb(0,0,0)" stroke-width="1" opacity="0" d="M 345.5 303 L 346 400 L 180 399.5 L 209.5 384 L 298.5 329 L 345.5 303 Z " /><path fill="rgb(254,206,6)" stroke="rgb(254,206,6)" stroke-width="1" opacity="1" d="M 40.5 110 L 44 110.5 L 40.5 111 L 40.5 110 Z " /><path fill="rgb(254,206,6)" stroke="rgb(254,206,6)" stroke-width="1" opacity="1" d="M 148.5 236 L 149.5 238 L 148.5 236 Z " /><path fill="rgb(254,206,6)" stroke="rgb(254,206,6)" stroke-width="1" opacity="1" d="M 221.5 289 L 219.5 292 L 221.5 289 Z " /><path fill="rgb(254,206,6)" stroke="rgb(254,206,6)" stroke-width="1" opacity="1" d="M 137.5 316 L 136.5 318 L 137.5 316 Z " /><path fill="rgb(254,206,6)" stroke="rgb(254,206,6)" stroke-width="1" opacity="1" d="M 186.5 326 L 183.5 330 L 186.5 326 Z " /><path fill="rgb(254,206,6)" stroke="rgb(254,206,6)" stroke-width="1" opacity="1" d="M 139.5 343 L 143 343.5 L 139.5 344 L 139.5 343 Z " /><path fill="rgb(252,214,92)" stroke="rgb(252,214,92)" stroke-width="1" opacity="1" d="M 71.5 87 L 70.5 89 L 71.5 87 Z " /><path fill="rgb(252,214,92)" stroke="rgb(252,214,92)" stroke-width="1" opacity="1" d="M 68.5 89 L 67.5 91 L 63.5 93 L 64.5 91 L 68.5 89 Z " /><path fill="rgb(252,214,92)" stroke="rgb(252,214,92)" stroke-width="1" opacity="1" d="M 61.5 93 L 60.5 95 L 56.5 97 L 57.5 95 L 61.5 93 Z " /><path fill="rgb(252,214,92)" stroke="rgb(252,214,92)" stroke-width="1" opacity="1" d="M 54.5 97 L 53.5 99 L 49.5 101 L 50.5 99 L 54.5 97 Z " /><path fill="rgb(252,214,92)" stroke="rgb(252,214,92)" stroke-width="1" opacity="1" d="M 25.5 141 L 26 172 L 24 171.5 L 24 157.5 L 25 152.5 L 25 150.5 L 25.5 141 Z " /><path fill="rgb(252,214,92)" stroke="rgb(252,214,92)" stroke-width="1" opacity="1" d="M 24 178 L 26 178.5 L 26 185.5 L 25 186.5 L 24.5 206 L 24 178 Z " /><path fill="rgb(252,214,92)" stroke="rgb(252,214,92)" stroke-width="1" opacity="1" d="M 320.5 183 L 321 214.5 L 320 214.5 L 320.5 183 Z " /><path fill="rgb(252,214,92)" stroke="rgb(252,214,92)" stroke-width="1" opacity="1" d="M 239.5 201 L 238.5 203 L 239.5 201 Z " /><path fill="rgb(252,214,92)" stroke="rgb(252,214,92)" stroke-width="1" opacity="1" d="M 320.5 235 L 321 251.5 L 322 253.5 L 321 258.5 L 322 260.5 L 321 264.5 L 321 266.5 Q 323.5 272 322 281.5 L 319.5 285 L 313.5 288 L 314.5 286 L 320 284 L 321 270.5 L 320 269.5 L 320.5 235 Z " /><path fill="rgb(252,214,92)" stroke="rgb(252,214,92)" stroke-width="1" opacity="1" d="M 224.5 287 L 223.5 289 L 224.5 287 Z " /><path fill="rgb(252,214,92)" stroke="rgb(252,214,92)" stroke-width="1" opacity="1" d="M 37.5 291 L 43 294.5 L 41.5 294 Q 37.5 293.5 37.5 291 Z " /><path fill="rgb(252,214,92)" stroke="rgb(252,214,92)" stroke-width="1" opacity="1" d="M 44.5 295 L 66 307.5 L 64.5 308 L 45.5 297 L 44.5 295 Z " /><path fill="rgb(252,214,92)" stroke="rgb(252,214,92)" stroke-width="1" opacity="1" d="M 139.5 314 L 138.5 316 L 139.5 314 Z " /><path fill="rgb(252,214,92)" stroke="rgb(252,214,92)" stroke-width="1" opacity="1" d="M 182.5 330 L 181.5 332 L 182.5 330 Z " /><path fill="rgb(204,168,51)" stroke="rgb(204,168,51)" stroke-width="1" opacity="0.9686274509803922" d="M 166.5 0 L 176.5 0 L 181 3 L 182.5 6 L 199 13 Q 197.8 16 201.5 15 Q 205.5 19.2 212 20 L 212.5 22 L 214.5 22 Q 217.1 21.3 216 24 L 218.5 24 L 225.5 29 L 237 34 Q 235.9 36.7 238.5 36 L 296.5 69 L 304.5 75 L 313.5 79 L 316.5 82 L 325.5 86 L 346 99.5 Q 346.8 101.8 344.5 101 L 228.5 32 L 190.5 11 L 180.5 7 L 175.5 2 L 169.5 1 L 0 101 L 1.5 98 L 53.5 67 L 57.5 66 L 80.5 51 L 84.5 50 L 102.5 38 L 107 37 Q 105.8 34 109.5 35 L 166.5 0 Z " /><path fill="rgb(204,168,51)" stroke="rgb(204,168,51)" stroke-width="1" opacity="0.9686274509803922" d="M 0.5 111 L 2 117.5 L 0.5 126 L 0.5 111 Z " /><path fill="rgb(204,168,51)" stroke="rgb(204,168,51)" stroke-width="1" opacity="0.9686274509803922" d="M 0 298 L 4.5 299 L 15.5 308 L 140.5 382 L 166.5 397 L 170.5 397 L 174.5 399 L 181.5 397 L 201.5 386 L 260.5 350 L 256.5 355 L 251 357 Q 252.1 359.7 249.5 359 Q 247.6 362.6 243 362 Q 244.1 364.7 241.5 364 L 212.5 382 L 179.5 400 L 167.5 400 L 112.5 367 L 110 367 Q 111.3 364 107.5 365 L 78.5 347 L 76.5 347 L 73.5 344 L 64 340 Q 65.1 337.3 62.5 338 L 53.5 332 L 49 331 Q 50.1 328.3 47.5 329 L 18.5 311 L 13 309 Q 14.3 306 10.5 307 L 4 303 Q 5.1 300.3 2.5 301 L 0 300 L 0 298 Z " /><path fill="rgb(204,168,51)" stroke="rgb(204,168,51)" stroke-width="1" opacity="0.9686274509803922" d="M 344.5 301 Q 346.8 300.3 346 302.5 L 313.5 321 L 302 326 Q 303.1 328.7 300.5 328 L 278.5 340 L 279.5 338 L 344.5 301 Z " /><path fill="rgb(204,168,51)" stroke="rgb(204,168,51)" stroke-width="1" opacity="0.9686274509803922" d="M 274.5 341 L 273.5 343 L 274.5 341 Z " /><path fill="rgb(254,235,171)" stroke="rgb(254,235,171)" stroke-width="1" opacity="0.996078431372549" d="M 223.5 81 L 222.5 83 L 223.5 81 Z " /><path fill="rgb(254,235,171)" stroke="rgb(254,235,171)" stroke-width="1" opacity="0.996078431372549" d="M 74.5 86 L 73.5 88 L 74.5 86 Z " /><path fill="rgb(254,235,171)" stroke="rgb(254,235,171)" stroke-width="1" opacity="0.996078431372549" d="M 247.5 90 L 250 90.5 L 247.5 91 L 247.5 90 Z " /><path fill="rgb(254,235,171)" stroke="rgb(254,235,171)" stroke-width="1" opacity="0.996078431372549" d="M 44.5 103 L 43.5 105 L 44.5 103 Z " /><path fill="rgb(254,235,171)" stroke="rgb(254,235,171)" stroke-width="1" opacity="0.996078431372549" d="M 205.5 110 L 210 110.5 L 205.5 111 L 205.5 110 Z " /><path fill="rgb(254,235,171)" stroke="rgb(254,235,171)" stroke-width="1" opacity="0.996078431372549" d="M 86.5 118 L 87.5 120 L 86.5 118 Z " /><path fill="rgb(254,235,171)" stroke="rgb(254,235,171)" stroke-width="1" opacity="0.996078431372549" d="M 320.5 134 L 321 139.5 L 320 139.5 L 320.5 134 Z " /><path fill="rgb(254,235,171)" stroke="rgb(254,235,171)" stroke-width="1" opacity="0.996078431372549" d="M 25.5 136 L 26 140.5 L 25 140.5 L 25.5 136 Z " /><path fill="rgb(254,235,171)" stroke="rgb(254,235,171)" stroke-width="1" opacity="0.996078431372549" d="M 311.5 157 L 315 157.5 L 311.5 158 L 311.5 157 Z " /><path fill="rgb(254,235,171)" stroke="rgb(254,235,171)" stroke-width="1" opacity="0.996078431372549" d="M 320.5 180 L 321 182.5 L 319 183.5 L 320.5 180 Z " /><path fill="rgb(254,235,171)" stroke="rgb(254,235,171)" stroke-width="1" opacity="0.996078431372549" d="M 234.5 199 L 233.5 201 L 234.5 199 Z " /><path fill="rgb(254,235,171)" stroke="rgb(254,235,171)" stroke-width="1" opacity="0.996078431372549" d="M 169.5 203 L 173 203.5 L 169.5 204 L 169.5 203 Z " /><path fill="rgb(254,235,171)" stroke="rgb(254,235,171)" stroke-width="1" opacity="0.996078431372549" d="M 203.5 213 L 206 213.5 L 203.5 214 L 203.5 213 Z " /><path fill="rgb(254,235,171)" stroke="rgb(254,235,171)" stroke-width="1" opacity="0.996078431372549" d="M 308.5 215 L 311 215.5 L 308.5 216 L 308.5 215 Z " /><path fill="rgb(254,235,171)" stroke="rgb(254,235,171)" stroke-width="1" opacity="0.996078431372549" d="M 320.5 216 L 321 221.5 L 320 221.5 L 320.5 216 Z " /><path fill="rgb(254,235,171)" stroke="rgb(254,235,171)" stroke-width="1" opacity="0.996078431372549" d="M 320.5 227 L 321 230.5 L 320 230.5 L 320.5 227 Z " /><path fill="rgb(254,235,171)" stroke="rgb(254,235,171)" stroke-width="1" opacity="0.996078431372549" d="M 311.5 239 L 310.5 241 L 311.5 239 Z " /><path fill="rgb(254,235,171)" stroke="rgb(254,235,171)" stroke-width="1" opacity="0.996078431372549" d="M 105.5 253 L 108 253.5 L 105.5 254 L 105.5 253 Z " /><path fill="rgb(254,235,171)" stroke="rgb(254,235,171)" stroke-width="1" opacity="0.996078431372549" d="M 24.5 255 L 25 258 L 28 258.5 L 25.5 259 Q 23 258 24.5 255 Z " /><path fill="rgb(254,235,171)" stroke="rgb(254,235,171)" stroke-width="1" opacity="0.996078431372549" d="M 75.5 269 L 74.5 271 L 75.5 269 Z " /><path fill="rgb(254,235,171)" stroke="rgb(254,235,171)" stroke-width="1" opacity="0.996078431372549" d="M 259.5 270 L 258.5 272 L 259.5 270 Z " /><path fill="rgb(254,235,171)" stroke="rgb(254,235,171)" stroke-width="1" opacity="0.996078431372549" d="M 320.5 270 L 321 273.5 L 320 273.5 L 320.5 270 Z " /><path fill="rgb(254,235,171)" stroke="rgb(254,235,171)" stroke-width="1" opacity="0.996078431372549" d="M 124.5 273 L 123.5 275 L 124.5 273 Z " /><path fill="rgb(254,235,171)" stroke="rgb(254,235,171)" stroke-width="1" opacity="0.996078431372549" d="M 185.5 274 L 190 274.5 L 185.5 275 L 185.5 274 Z " /><path fill="rgb(254,235,171)" stroke="rgb(254,235,171)" stroke-width="1" opacity="0.996078431372549" d="M 163.5 278 L 162.5 280 L 163.5 278 Z " /><path fill="rgb(254,235,171)" stroke="rgb(254,235,171)" stroke-width="1" opacity="0.996078431372549" d="M 58.5 280 L 57.5 282 L 58.5 280 Z " /><path fill="rgb(254,235,171)" stroke="rgb(254,235,171)" stroke-width="1" opacity="0.996078431372549" d="M 280.5 295 L 284 295.5 L 280.5 296 L 280.5 295 Z " /><path fill="rgb(254,235,171)" stroke="rgb(254,235,171)" stroke-width="1" opacity="0.996078431372549" d="M 109.5 297 L 108.5 299 L 109.5 297 Z " /><path fill="rgb(254,235,171)" stroke="rgb(254,235,171)" stroke-width="1" opacity="0.996078431372549" d="M 278 307 L 280 307.5 L 278 308.5 L 278 307 Z " /><path fill="rgb(254,235,171)" stroke="rgb(254,235,171)" stroke-width="1" opacity="0.996078431372549" d="M 272.5 310 L 275 310.5 Q 272.9 313.8 272.5 310 Z " /><path fill="rgb(254,235,171)" stroke="rgb(254,235,171)" stroke-width="1" opacity="0.996078431372549" d="M 187.5 314 L 190 314.5 L 187.5 315 L 187.5 314 Z " /><path fill="rgb(254,235,171)" stroke="rgb(254,235,171)" stroke-width="1" opacity="0.996078431372549" d="M 264.5 316 L 263.5 318 L 261.5 319 L 262.5 317 L 264.5 316 Z " /><path fill="rgb(254,235,171)" stroke="rgb(254,235,171)" stroke-width="1" opacity="0.996078431372549" d="M 143.5 317 L 142.5 319 L 143.5 317 Z " /><path fill="rgb(254,235,171)" stroke="rgb(254,235,171)" stroke-width="1" opacity="0.996078431372549" d="M 187.5 320 L 186.5 322 L 187.5 320 Z " /><path fill="rgb(254,235,171)" stroke="rgb(254,235,171)" stroke-width="1" opacity="0.996078431372549" d="M 257.5 320 L 256.5 322 L 257.5 320 Z " /><path fill="rgb(254,235,171)" stroke="rgb(254,235,171)" stroke-width="1" opacity="0.996078431372549" d="M 102 327 L 105 327.5 L 102.5 329 L 102 327 Z " /><path fill="rgb(254,235,171)" stroke="rgb(254,235,171)" stroke-width="1" opacity="0.996078431372549" d="M 109.5 328 L 115 328.5 L 109.5 329 L 109.5 328 Z " /><path fill="rgb(254,235,171)" stroke="rgb(254,235,171)" stroke-width="1" opacity="0.996078431372549" d="M 127.5 342 L 132 342.5 L 127.5 343 L 127.5 342 Z " /><path fill="rgb(254,235,171)" stroke="rgb(254,235,171)" stroke-width="1" opacity="0.996078431372549" d="M 266.5 348 L 265.5 350 L 266.5 348 Z " /><path fill="rgb(255,221,98)" stroke="rgb(255,221,98)" stroke-width="1" opacity="1" d="M 180.5 74 L 179.5 76 L 177.5 77 L 178.5 75 L 180.5 74 Z " /><path fill="rgb(255,221,98)" stroke="rgb(255,221,98)" stroke-width="1" opacity="1" d="M 72.5 87 L 71.5 89 L 72.5 87 Z " /><path fill="rgb(255,221,98)" stroke="rgb(255,221,98)" stroke-width="1" opacity="1" d="M 62.5 93 L 62 94.5 L 61.5 96 L 61 94.5 L 62.5 93 Z " /><path fill="rgb(255,221,98)" stroke="rgb(255,221,98)" stroke-width="1" opacity="1" d="M 55.5 97 L 57 97.5 L 54.5 99 L 55.5 97 Z " /><path fill="rgb(255,221,98)" stroke="rgb(255,221,98)" stroke-width="1" opacity="1" d="M 52.5 99 L 51.5 101 L 49.5 102 L 50.5 100 L 52.5 99 Z " /><path fill="rgb(255,221,98)" stroke="rgb(255,221,98)" stroke-width="1" opacity="1" d="M 96.5 102 L 97.5 104 L 96.5 102 Z " /><path fill="rgb(255,221,98)" stroke="rgb(255,221,98)" stroke-width="1" opacity="1" d="M 213.5 121 L 214.5 123 L 213.5 121 Z " /><path fill="rgb(255,221,98)" stroke="rgb(255,221,98)" stroke-width="1" opacity="1" d="M 308.5 141 L 309.5 143 L 308.5 141 Z " /><path fill="rgb(255,221,98)" stroke="rgb(255,221,98)" stroke-width="1" opacity="1" d="M 227.5 155 L 228.5 157 L 227.5 155 Z " /><path fill="rgb(255,221,98)" stroke="rgb(255,221,98)" stroke-width="1" opacity="1" d="M 248.5 175 L 247.5 177 L 248.5 175 Z " /><path fill="rgb(255,221,98)" stroke="rgb(255,221,98)" stroke-width="1" opacity="1" d="M 121 179 L 123 179.5 L 121 180.5 L 121 179 Z " /><path fill="rgb(255,221,98)" stroke="rgb(255,221,98)" stroke-width="1" opacity="1" d="M 25.5 186 L 26 196.5 L 25 196.5 L 25.5 186 Z " /><path fill="rgb(255,221,98)" stroke="rgb(255,221,98)" stroke-width="1" opacity="1" d="M 238.5 192 L 237.5 194 L 238.5 192 Z " /><path fill="rgb(255,221,98)" stroke="rgb(255,221,98)" stroke-width="1" opacity="1" d="M 304.5 192 L 303.5 194 L 304.5 192 Z " /><path fill="rgb(255,221,98)" stroke="rgb(255,221,98)" stroke-width="1" opacity="1" d="M 149.5 200 L 150.5 202 L 149.5 200 Z " /><path fill="rgb(255,221,98)" stroke="rgb(255,221,98)" stroke-width="1" opacity="1" d="M 85.5 202 L 84.5 204 L 85.5 202 Z " /><path fill="rgb(255,221,98)" stroke="rgb(255,221,98)" stroke-width="1" opacity="1" d="M 41.5 205 L 44 205.5 L 41.5 206 L 41.5 205 Z " /><path fill="rgb(255,221,98)" stroke="rgb(255,221,98)" stroke-width="1" opacity="1" d="M 99 213 L 101 213.5 L 99 214.5 L 99 213 Z " /><path fill="rgb(255,221,98)" stroke="rgb(255,221,98)" stroke-width="1" opacity="1" d="M 69.5 239 L 83.5 240 L 101 247.5 L 99.5 248 L 98.5 247 L 88.5 257 L 74.5 265 L 66.5 267 L 60.5 267 Q 47.7 263.8 40 255.5 L 40.5 254 L 42.5 255 L 48.5 252 L 57.5 244 L 69.5 239 Z M 71 240 L 59 245 L 46 255 Q 43 254 44 257 L 51 261 Q 52 264 54 262 L 62 266 L 74 264 L 88 256 L 90 252 L 97 247 L 84 241 L 71 240 Z " /><path fill="rgb(255,221,98)" stroke="rgb(255,221,98)" stroke-width="1" opacity="1" d="M 307.5 247 L 309 247.5 L 305.5 250 L 307.5 247 Z " /><path fill="rgb(255,221,98)" stroke="rgb(255,221,98)" stroke-width="1" opacity="1" d="M 311.5 265 L 314 265.5 L 311.5 266 L 311.5 265 Z " /><path fill="rgb(255,221,98)" stroke="rgb(255,221,98)" stroke-width="1" opacity="1" d="M 266.5 268 L 267 270 L 265 269.5 L 266.5 268 Z " /><path fill="rgb(255,221,98)" stroke="rgb(255,221,98)" stroke-width="1" opacity="1" d="M 295.5 268 L 298 269.5 L 296.5 269 L 295.5 268 Z " /><path fill="rgb(255,221,98)" stroke="rgb(255,221,98)" stroke-width="1" opacity="1" d="M 128.5 271 L 127.5 273 L 128.5 271 Z " /><path fill="rgb(255,221,98)" stroke="rgb(255,221,98)" stroke-width="1" opacity="1" d="M 263.5 271 L 262.5 273 L 263.5 271 Z " /><path fill="rgb(255,221,98)" stroke="rgb(255,221,98)" stroke-width="1" opacity="1" d="M 72.5 280 L 75 280.5 L 72.5 281 L 72.5 280 Z " /><path fill="rgb(255,221,98)" stroke="rgb(255,221,98)" stroke-width="1" opacity="1" d="M 154.5 282 L 155.5 284 L 154.5 282 Z " /><path fill="rgb(255,221,98)" stroke="rgb(255,221,98)" stroke-width="1" opacity="1" d="M 318.5 283 L 320 283.5 L 317.5 285 L 318.5 283 Z " /><path fill="rgb(255,221,98)" stroke="rgb(255,221,98)" stroke-width="1" opacity="1" d="M 297.5 285 L 300 285.5 L 297.5 286 L 297.5 285 Z " /><path fill="rgb(255,221,98)" stroke="rgb(255,221,98)" stroke-width="1" opacity="1" d="M 313.5 286 L 311.5 289 L 313.5 286 Z " /><path fill="rgb(255,221,98)" stroke="rgb(255,221,98)" stroke-width="1" opacity="1" d="M 300.5 289 L 299.5 291 L 300.5 289 Z " /><path fill="rgb(255,221,98)" stroke="rgb(255,221,98)" stroke-width="1" opacity="1" d="M 308.5 289 L 310 289.5 L 307.5 291 L 308.5 289 Z " /><path fill="rgb(255,221,98)" stroke="rgb(255,221,98)" stroke-width="1" opacity="1" d="M 38.5 291 L 41 292.5 L 39.5 292 L 38.5 291 Z " /><path fill="rgb(255,221,98)" stroke="rgb(255,221,98)" stroke-width="1" opacity="1" d="M 280.5 292 L 283 292.5 L 280.5 293 L 280.5 292 Z " /><path fill="rgb(255,221,98)" stroke="rgb(255,221,98)" stroke-width="1" opacity="1" d="M 51.5 298 L 52.5 300 L 51.5 298 Z " /><path fill="rgb(255,221,98)" stroke="rgb(255,221,98)" stroke-width="1" opacity="1" d="M 58.5 302 L 59.5 304 L 58.5 302 Z " /><path fill="rgb(255,221,98)" stroke="rgb(255,221,98)" stroke-width="1" opacity="1" d="M 218.5 302 L 217.5 304 L 216 303.5 L 218.5 302 Z " /><path fill="rgb(255,221,98)" stroke="rgb(255,221,98)" stroke-width="1" opacity="1" d="M 66.5 305 L 66.5 308 L 64 306.5 L 66.5 305 Z " /><path fill="rgb(255,221,98)" stroke="rgb(255,221,98)" stroke-width="1" opacity="1" d="M 271.5 305 L 272.5 307 L 271.5 305 Z " /><path fill="rgb(255,221,98)" stroke="rgb(255,221,98)" stroke-width="1" opacity="1" d="M 146.5 308 L 145.5 310 L 146.5 308 Z " /><path fill="rgb(255,221,98)" stroke="rgb(255,221,98)" stroke-width="1" opacity="1" d="M 167.5 316 L 170 316.5 L 167.5 317 L 167.5 316 Z " /><path fill="rgb(255,221,98)" stroke="rgb(255,221,98)" stroke-width="1" opacity="1" d="M 146.5 320 L 145.5 322 L 146.5 320 Z " /><path fill="rgb(255,221,98)" stroke="rgb(255,221,98)" stroke-width="1" opacity="1" d="M 180.5 323 L 179.5 325 L 180.5 323 Z " /><path fill="rgb(254,238,184)" stroke="rgb(254,238,184)" stroke-width="1" opacity="1" d="M 126.5 56 L 125.5 58 L 126.5 56 Z " /><path fill="rgb(254,238,184)" stroke="rgb(254,238,184)" stroke-width="1" opacity="1" d="M 228.5 62 L 229.5 64 L 228.5 62 Z " /><path fill="rgb(254,238,184)" stroke="rgb(254,238,184)" stroke-width="1" opacity="1" d="M 233.5 65 L 232.5 67 L 233.5 65 Z " /><path fill="rgb(254,238,184)" stroke="rgb(254,238,184)" stroke-width="1" opacity="1" d="M 220.5 78 L 219.5 80 L 220.5 78 Z " /><path fill="rgb(254,238,184)" stroke="rgb(254,238,184)" stroke-width="1" opacity="1" d="M 242.5 97 L 245 97.5 L 242.5 98 L 242.5 97 Z " /><path fill="rgb(254,238,184)" stroke="rgb(254,238,184)" stroke-width="1" opacity="1" d="M 305.5 107 L 306.5 109 L 305.5 107 Z " /><path fill="rgb(254,238,184)" stroke="rgb(254,238,184)" stroke-width="1" opacity="1" d="M 174.5 165 L 177 165.5 L 174.5 166 L 174.5 165 Z " /><path fill="rgb(254,238,184)" stroke="rgb(254,238,184)" stroke-width="1" opacity="1" d="M 25.5 173 L 26 177.5 L 25 177.5 L 25.5 173 Z " /><path fill="rgb(254,238,184)" stroke="rgb(254,238,184)" stroke-width="1" opacity="1" d="M 232.5 201 L 231.5 203 L 232.5 201 Z " /><path fill="rgb(254,238,184)" stroke="rgb(254,238,184)" stroke-width="1" opacity="1" d="M 290.5 206 L 288.5 209 L 290.5 206 Z " /><path fill="rgb(254,238,184)" stroke="rgb(254,238,184)" stroke-width="1" opacity="1" d="M 184.5 225 L 182.5 228 L 184.5 225 Z " /><path fill="rgb(254,238,184)" stroke="rgb(254,238,184)" stroke-width="1" opacity="1" d="M 314.5 236 L 312.5 239 L 314.5 236 Z " /><path fill="rgb(254,238,184)" stroke="rgb(254,238,184)" stroke-width="1" opacity="1" d="M 274.5 260 L 281 260.5 L 274.5 261 L 274.5 260 Z " /><path fill="rgb(254,238,184)" stroke="rgb(254,238,184)" stroke-width="1" opacity="1" d="M 126.5 271 L 125.5 273 L 126.5 271 Z " /><path fill="rgb(254,238,184)" stroke="rgb(254,238,184)" stroke-width="1" opacity="1" d="M 78.5 277 L 81 277.5 L 78.5 278 L 78.5 277 Z " /><path fill="rgb(254,238,184)" stroke="rgb(254,238,184)" stroke-width="1" opacity="1" d="M 243.5 279 L 242.5 281 L 243.5 279 Z " /><path fill="rgb(254,238,184)" stroke="rgb(254,238,184)" stroke-width="1" opacity="1" d="M 35.5 289 L 36.5 291 L 35.5 289 Z " /><path fill="rgb(254,238,184)" stroke="rgb(254,238,184)" stroke-width="1" opacity="1" d="M 222.5 289 L 220.5 292 L 222.5 289 Z " /><path fill="rgb(254,238,184)" stroke="rgb(254,238,184)" stroke-width="1" opacity="1" d="M 300.5 294 L 299.5 296 L 300.5 294 Z " /><path fill="rgb(254,238,184)" stroke="rgb(254,238,184)" stroke-width="1" opacity="1" d="M 120.5 295 L 123 295.5 L 120.5 296 L 120.5 295 Z " /><path fill="rgb(254,238,184)" stroke="rgb(254,238,184)" stroke-width="1" opacity="1" d="M 295.5 297 L 294.5 299 L 295.5 297 Z " /><path fill="rgb(254,238,184)" stroke="rgb(254,238,184)" stroke-width="1" opacity="1" d="M 290.5 300 L 289.5 302 L 290.5 300 Z " /><path fill="rgb(254,238,184)" stroke="rgb(254,238,184)" stroke-width="1" opacity="1" d="M 285.5 303 L 284.5 305 L 285.5 303 Z " /><path fill="rgb(254,238,184)" stroke="rgb(254,238,184)" stroke-width="1" opacity="1" d="M 68.5 308 L 69.5 310 L 68.5 308 Z " /><path fill="rgb(254,238,184)" stroke="rgb(254,238,184)" stroke-width="1" opacity="1" d="M 274.5 309 L 276 309.5 L 270.5 313 L 271.5 311 L 274.5 309 Z " /><path fill="rgb(254,238,184)" stroke="rgb(254,238,184)" stroke-width="1" opacity="1" d="M 161.5 310 L 165 310.5 L 161.5 311 L 161.5 310 Z " /><path fill="rgb(254,238,184)" stroke="rgb(254,238,184)" stroke-width="1" opacity="1" d="M 75.5 312 L 76.5 314 L 75.5 312 Z " /><path fill="rgb(254,238,184)" stroke="rgb(254,238,184)" stroke-width="1" opacity="1" d="M 142.5 312 L 141.5 314 L 142.5 312 Z " /><path fill="rgb(254,238,184)" stroke="rgb(254,238,184)" stroke-width="1" opacity="1" d="M 268.5 313 L 267.5 315 L 268.5 313 Z " /><path fill="rgb(254,238,184)" stroke="rgb(254,238,184)" stroke-width="1" opacity="1" d="M 189.5 323 L 188.5 325 L 189.5 323 Z " /><path fill="rgb(254,238,184)" stroke="rgb(254,238,184)" stroke-width="1" opacity="1" d="M 249.5 323 L 250.5 325 L 249.5 323 Z " /><path fill="rgb(254,238,184)" stroke="rgb(254,238,184)" stroke-width="1" opacity="1" d="M 133.5 326 L 132.5 328 L 133.5 326 Z " /><path fill="rgb(254,238,184)" stroke="rgb(254,238,184)" stroke-width="1" opacity="1" d="M 178.5 334 L 175.5 338 L 178.5 334 Z " /><path fill="rgb(254,238,184)" stroke="rgb(254,238,184)" stroke-width="1" opacity="1" d="M 145.5 340 L 152 340.5 L 145.5 341 L 145.5 340 Z " /><path fill="rgb(254,238,184)" stroke="rgb(254,238,184)" stroke-width="1" opacity="1" d="M 208.5 349 L 207.5 351 L 208.5 349 Z " /><path fill="rgb(254,238,184)" stroke="rgb(254,238,184)" stroke-width="1" opacity="1" d="M 190.5 352 L 191.5 354 L 190.5 352 Z " /><path fill="rgb(254,238,184)" stroke="rgb(254,238,184)" stroke-width="1" opacity="1" d="M 203.5 352 L 202.5 354 L 203.5 352 Z " /><path fill="rgb(254,238,184)" stroke="rgb(254,238,184)" stroke-width="1" opacity="1" d="M 193.5 358 L 192.5 360 L 193.5 358 Z " /><path fill="rgb(254,238,184)" stroke="rgb(254,238,184)" stroke-width="1" opacity="1" d="M 181.5 362 L 179.5 365 L 181.5 362 Z " /><path fill="rgb(255,240,189)" stroke="rgb(255,240,189)" stroke-width="1" opacity="1" d="M 127.5 56 L 165.5 65 L 190.5 65 L 201.5 63 L 218.5 57 L 240 69.5 Q 240.8 71.8 238.5 71 Q 225.7 77.2 217 87.5 L 218.5 89 L 229.5 91 L 249.5 91 L 250.5 90 L 261.5 89 L 265.5 87 L 270.5 87 L 274 89.5 L 256.5 95 L 248.5 101 L 242.5 104 L 239 104 Q 237.8 107 241.5 106 L 254.5 111 Q 261.2 110.3 264.5 113 L 284.5 114 L 302.5 109 L 304.5 107 L 308 109.5 L 282.5 122 L 279 122 L 280.5 125 L 305.5 134 L 320 134 Q 321.5 142.1 315.5 144 L 305 151.5 L 313.5 155 L 318.5 155 L 320 156.5 Q 320.9 159.9 315.5 158 L 314.5 157 L 300.5 157 L 293.5 159 L 291.5 159 L 283.5 160 L 262 177.5 L 269.5 179 L 282.5 185 L 300.5 187 L 310.5 185 L 319.5 180 L 320 182.5 L 307.5 188 L 296 198.5 L 285 214 L 292.5 216 L 312.5 216 L 317.5 215 L 320 215.5 L 319.5 222 L 318.5 221 L 301.5 220 L 300.5 219 L 273.5 219 L 259 229 Q 260.1 231.7 257.5 231 L 249 238.5 Q 248.3 240.8 250.5 240 L 254.5 239 L 277.5 252 L 284.5 252 Q 302.7 244.7 315 231.5 Q 314.3 229.3 316.5 230 L 319.5 228 L 320 230.5 L 308.5 242 L 307 242 L 302.5 248 L 291 255.5 L 292.5 259 L 311.5 269 L 320 270 L 319.5 274 L 285.5 261 L 274.5 260 Q 264.1 265.1 256.5 273 L 242 280.5 Q 241.3 284.3 243.5 285 L 246.5 285 L 268.5 295 L 284.5 296 L 301.5 293 L 301.5 294 L 284.5 304 L 282.5 302 L 277.5 302 L 249.5 289 L 236.5 288 L 211.5 300 L 198 310.5 L 199.5 313 L 209.5 318 L 212.5 318 L 215.5 321 Q 224.3 321.7 229.5 326 L 241.5 326 L 253.5 322 L 253.5 323 L 238.5 331 L 229.5 327 L 212.5 323 L 204.5 319 L 200.5 319 Q 190.8 320.9 185 326 L 185 327.5 L 175 337.5 L 175 339.5 Q 184.8 348.7 201.5 351 L 207.5 349 L 206.5 351 L 176.5 369 L 174.5 369 L 175.5 367 L 192 354.5 L 190.5 352 L 186.5 352 L 170.5 345 L 150.5 342 L 149.5 343 L 132.5 343 Q 131.3 340.8 126.5 342 L 103 328.5 L 107.5 328 Q 109 330.5 114.5 329 L 127.5 325 L 151 305.5 L 149.5 303 L 124.5 297 L 110.5 300 L 97.5 307 L 77.5 314 L 69 308.5 L 83.5 307 L 86.5 305 L 89.5 305 L 101.5 300 L 106.5 300 Q 109.5 296 116.5 296 L 118.5 297 L 124 294.5 Q 125.3 290.8 121.5 292 L 103.5 285 L 97.5 284 L 88.5 279 L 78.5 277 L 69.5 279 L 37.5 291 L 34 288.5 L 35.5 287 L 42.5 287 Q 45.7 283.7 52.5 284 L 63 279 L 64 275.5 L 50.5 266 L 32.5 259 L 25 258 Q 23.2 253.1 29.5 255 Q 46.9 250.9 57.5 240 Q 58.8 242.3 60 239.5 L 49.5 234 L 34.5 223 L 25 220 L 25.5 206 L 26.5 207 L 44.5 207 L 67 198 L 65.5 195 L 46.5 185 L 26 178 L 26.5 173 L 41.5 173 L 57.5 167 L 72 164 L 69.5 160 L 43.5 146 L 37.5 144 L 32.5 144 L 26 141 L 26 136 L 27.5 136 Q 35.5 141 50.5 139 L 69.5 131 Q 76.5 123 88 119.5 L 86.5 118 L 64.5 114 L 57.5 111 L 39.5 110 L 34.5 111 L 34.5 110 L 50.5 102 L 62.5 108 L 77.5 109 L 95.5 105 L 107 100.5 L 105 100 Q 106.1 97.3 103.5 98 L 93.5 92 L 80.5 90 L 74 87.5 L 79.5 84 L 91.5 88 L 114.5 88 L 141.5 83 L 154.5 77 L 165 75 Q 166.7 70.9 162.5 72 L 145.5 69 L 135.5 65 L 125.5 64 L 118 61.5 L 127.5 56 Z M 207 65 L 206 66 L 193 67 L 178 71 L 154 83 L 152 86 L 154 87 Q 160 86 164 89 L 170 89 L 177 91 L 190 91 L 191 92 L 192 91 L 203 91 L 206 89 Q 208 90 207 87 L 210 87 L 225 75 L 233 71 L 234 68 L 229 65 L 207 65 Z M 133 88 L 126 90 L 108 99 Q 107 102 110 101 L 112 101 Q 120 108 134 111 L 154 109 Q 167 106 176 98 Q 179 99 178 96 L 164 94 L 150 89 L 133 88 Z M 218 93 L 217 94 L 199 95 L 184 101 L 177 101 L 177 104 L 205 111 Q 227 109 242 98 Q 247 100 245 95 L 233 93 L 218 93 Z M 175 107 L 145 116 Q 142 115 143 118 L 146 118 L 160 127 L 176 133 L 193 128 L 202 121 L 207 119 Q 208 115 210 118 L 210 117 L 209 115 L 189 109 L 176 108 L 175 107 Z M 104 108 L 88 113 L 99 128 L 116 138 L 129 136 L 148 124 L 125 113 L 112 109 Q 105 111 104 108 Z M 226 114 L 203 127 Q 199 126 200 129 L 207 130 L 213 135 L 226 139 L 241 138 L 256 133 L 273 125 Q 276 126 275 124 L 277 124 L 277 122 L 275 121 L 264 120 L 253 116 L 242 115 L 240 115 L 239 114 L 226 114 Z M 153 129 L 148 130 L 132 139 L 127 145 L 142 153 L 155 153 L 164 148 Q 166 149 165 147 L 178 138 L 160 130 L 153 129 Z M 276 129 Q 257 133 245 144 Q 241 143 242 146 Q 253 153 269 157 Q 282 159 290 155 L 299 151 L 315 140 Q 318 141 317 138 L 312 138 L 307 135 L 303 135 L 287 130 L 276 129 Z M 83 130 L 68 137 L 63 141 L 53 144 Q 50 143 51 146 L 73 159 L 79 161 L 95 161 L 106 155 L 124 148 L 126 148 Q 129 149 128 146 L 123 145 L 117 141 L 112 140 L 94 131 L 83 130 Z M 196 133 L 181 139 Q 175 147 164 150 L 176 156 L 189 160 L 203 159 L 213 156 L 235 146 Q 237 147 236 144 L 221 141 L 217 139 L 213 139 L 202 133 L 196 133 Z M 125 152 L 119 154 L 107 162 L 100 164 L 98 166 L 96 165 Q 93 164 94 167 L 101 169 Q 109 177 121 181 L 131 181 L 138 179 L 160 165 L 162 166 Q 165 167 164 164 L 155 163 L 134 154 L 125 152 Z M 232 153 L 216 160 L 212 160 L 190 167 Q 204 172 216 180 L 229 183 L 244 182 Q 256 176 265 166 L 272 163 L 256 155 Q 250 156 248 153 L 232 153 Z M 166 154 Q 163 157 156 156 L 154 158 L 172 166 Q 178 167 181 164 Q 186 166 185 162 L 166 154 Z M 79 167 L 69 171 L 55 174 L 48 178 Q 43 177 44 180 L 47 180 L 62 190 L 79 194 L 96 192 L 107 188 L 115 187 L 116 186 L 89 168 L 79 167 Z M 165 170 L 155 174 L 139 185 Q 136 184 137 188 L 160 201 L 170 204 Q 179 204 185 200 L 205 186 L 207 183 L 209 183 Q 212 184 211 181 L 204 179 L 186 170 L 165 170 Z M 213 186 Q 200 190 192 198 Q 189 197 190 200 Q 184 206 172 208 L 184 212 L 200 213 L 201 214 L 208 214 L 219 211 Q 220 208 226 208 L 232 203 L 241 193 L 241 190 L 229 186 L 213 186 Z M 257 186 L 252 187 L 237 205 L 225 214 L 228 216 L 234 216 L 254 223 L 264 222 L 279 213 L 291 200 L 294 198 L 296 198 L 296 195 L 281 192 L 276 188 L 269 186 L 257 186 Z M 124 188 L 92 200 L 82 202 L 80 205 L 82 204 Q 89 211 99 215 L 120 220 L 133 219 L 150 208 Q 152 209 151 207 L 155 204 Q 157 205 156 202 L 133 189 L 124 188 Z M 61 205 L 35 214 L 28 214 L 27 216 Q 36 218 42 224 Q 44 223 43 226 L 56 233 L 63 235 L 91 230 L 106 223 L 78 207 Q 71 204 61 205 Z M 160 207 L 134 224 L 156 237 L 171 236 L 183 228 L 190 220 Q 193 221 192 218 L 195 218 L 195 216 L 171 210 L 165 207 L 160 207 Z M 206 216 L 196 221 L 185 230 L 182 235 L 191 239 L 196 239 L 211 243 Q 238 244 253 231 L 255 228 L 252 225 L 242 224 L 229 219 L 215 216 L 206 216 Z M 115 224 L 105 227 L 92 234 L 90 237 L 93 237 L 121 251 L 131 251 L 144 246 L 147 246 L 152 243 L 155 243 L 156 240 L 153 239 L 141 230 L 128 224 L 115 224 Z M 77 238 L 76 239 L 65 240 L 61 242 L 43 255 L 41 254 L 40 257 Q 48 264 60 267 L 69 267 L 76 265 Q 88 260 96 250 Q 98 251 97 248 L 101 248 L 101 246 L 98 246 L 92 242 L 77 238 Z M 173 240 L 158 246 L 155 246 L 138 254 Q 135 253 136 256 Q 146 258 153 265 L 168 269 L 182 268 L 187 266 L 196 261 L 210 249 L 194 242 L 183 241 L 182 240 L 173 240 Z M 235 245 L 224 247 L 217 250 L 207 259 Q 204 258 205 261 L 194 269 L 217 279 L 228 281 Q 238 281 244 277 Q 248 272 257 270 Q 264 261 275 257 L 272 253 L 255 246 L 250 245 L 235 245 Z M 106 253 Q 95 255 88 260 L 74 271 L 75 273 L 80 273 L 91 278 L 100 280 Q 108 281 113 278 L 131 264 L 135 257 L 131 257 L 118 253 L 106 253 Z M 139 265 L 132 267 Q 122 278 108 284 L 118 288 L 130 291 Q 150 290 163 280 L 168 273 L 164 273 L 147 266 L 139 265 Z M 186 274 L 171 278 L 162 284 L 141 293 Q 138 292 139 296 L 157 306 L 173 310 L 194 307 L 207 299 L 215 296 L 224 289 L 225 289 L 225 285 L 203 277 L 196 276 L 193 274 L 186 274 Z M 153 310 L 149 312 L 128 331 Q 123 330 125 334 L 146 341 L 162 340 L 170 337 L 191 319 L 192 315 L 190 314 L 175 313 L 165 310 L 153 310 Z " /><path fill="rgb(231,195,95)" stroke="rgb(231,195,95)" stroke-width="1" opacity="0.8705882352941177" d="M 321.5 131 L 322 138.5 L 321 138.5 L 321.5 131 Z " /><path fill="rgb(231,195,95)" stroke="rgb(231,195,95)" stroke-width="1" opacity="0.8705882352941177" d="M 24.5 135 L 25 150.5 L 24 150.5 L 24.5 135 Z " /><path fill="rgb(231,195,95)" stroke="rgb(231,195,95)" stroke-width="1" opacity="0.8705882352941177" d="M 24.5 152 L 25 156.5 L 24 156.5 L 24.5 152 Z " /><path fill="rgb(231,195,95)" stroke="rgb(231,195,95)" stroke-width="1" opacity="0.8705882352941177" d="M 321.5 179 L 322 182.5 L 321 182.5 L 321.5 179 Z " /><path fill="rgb(231,195,95)" stroke="rgb(231,195,95)" stroke-width="1" opacity="0.8705882352941177" d="M 321.5 184 L 322 187.5 L 321 187.5 L 321.5 184 Z " /><path fill="rgb(231,195,95)" stroke="rgb(231,195,95)" stroke-width="1" opacity="0.8705882352941177" d="M 321.5 190 L 322 202.5 L 321 202.5 L 321.5 190 Z " /><path fill="rgb(231,195,95)" stroke="rgb(231,195,95)" stroke-width="1" opacity="0.8705882352941177" d="M 321.5 206 L 322 209.5 L 321 209.5 L 321.5 206 Z " /><path fill="rgb(231,195,95)" stroke="rgb(231,195,95)" stroke-width="1" opacity="0.8705882352941177" d="M 321.5 211 L 322 213.5 L 321 213.5 L 321.5 211 Z " /><path fill="rgb(231,195,95)" stroke="rgb(231,195,95)" stroke-width="1" opacity="0.8705882352941177" d="M 321.5 215 L 322 221.5 L 321 221.5 L 321.5 215 Z " /><path fill="rgb(231,195,95)" stroke="rgb(231,195,95)" stroke-width="1" opacity="0.8705882352941177" d="M 321.5 227 L 322 251.5 L 321 251.5 L 321 235.5 L 320 234.5 L 321.5 227 Z " /><path fill="rgb(231,195,95)" stroke="rgb(231,195,95)" stroke-width="1" opacity="0.8705882352941177" d="M 321.5 254 L 322 258.5 L 321 258.5 L 321.5 254 Z " /><path fill="rgb(231,195,95)" stroke="rgb(231,195,95)" stroke-width="1" opacity="0.8705882352941177" d="M 23.5 255 L 24 258.5 L 23 258.5 L 23.5 255 Z " /><path fill="rgb(231,195,95)" stroke="rgb(231,195,95)" stroke-width="1" opacity="0.8705882352941177" d="M 321.5 261 L 322 264.5 L 321 264.5 L 321.5 261 Z " /><path fill="rgb(231,195,95)" stroke="rgb(231,195,95)" stroke-width="1" opacity="0.8705882352941177" d="M 321.5 266 L 322 268.5 L 321 268.5 L 321.5 266 Z " /><path fill="rgb(231,195,95)" stroke="rgb(231,195,95)" stroke-width="1" opacity="0.8705882352941177" d="M 18.5 311 L 19.5 313 L 18.5 311 Z " /><path fill="rgb(231,195,95)" stroke="rgb(231,195,95)" stroke-width="1" opacity="0.8705882352941177" d="M 311.5 321 L 310.5 323 L 311.5 321 Z " /><path fill="rgb(231,195,95)" stroke="rgb(231,195,95)" stroke-width="1" opacity="0.8705882352941177" d="M 304.5 325 L 303.5 327 L 304.5 325 Z " /><path fill="rgb(231,195,95)" stroke="rgb(231,195,95)" stroke-width="1" opacity="0.8705882352941177" d="M 46.5 328 L 47.5 330 L 46.5 328 Z " /><path fill="rgb(231,195,95)" stroke="rgb(231,195,95)" stroke-width="1" opacity="0.8705882352941177" d="M 279.5 339 L 281 339.5 L 273.5 345 L 271 345 Q 272.1 347.7 269.5 347 L 258.5 354 L 262.5 349 L 279.5 339 Z " /><path fill="rgb(231,195,95)" stroke="rgb(231,195,95)" stroke-width="1" opacity="0.8705882352941177" d="M 237.5 366 L 236.5 368 L 237.5 366 Z " /><path fill="rgb(231,195,95)" stroke="rgb(231,195,95)" stroke-width="1" opacity="0.8705882352941177" d="M 210.5 382 L 209.5 384 L 210.5 382 Z " /><path fill="rgb(239,178,0)" stroke="rgb(239,178,0)" stroke-width="1" opacity="0.8156862745098039" d="M 189.5 8 L 190.5 10 L 189.5 8 Z " /><path fill="rgb(239,178,0)" stroke="rgb(239,178,0)" stroke-width="1" opacity="0.8156862745098039" d="M 147.5 11 L 149 11.5 L 146.5 13 L 147.5 11 Z " /><path fill="rgb(239,178,0)" stroke="rgb(239,178,0)" stroke-width="1" opacity="0.8156862745098039" d="M 224.5 27 L 225.5 29 L 224.5 27 Z " /><path fill="rgb(239,178,0)" stroke="rgb(239,178,0)" stroke-width="1" opacity="0.8156862745098039" d="M 117.5 29 L 116.5 31 L 117.5 29 Z " /><path fill="rgb(239,178,0)" stroke="rgb(239,178,0)" stroke-width="1" opacity="0.8156862745098039" d="M 112.5 32 L 111.5 34 L 112.5 32 Z " /><path fill="rgb(239,178,0)" stroke="rgb(239,178,0)" stroke-width="1" opacity="0.8156862745098039" d="M 243.5 38 L 244.5 40 L 243.5 38 Z " /><path fill="rgb(239,178,0)" stroke="rgb(239,178,0)" stroke-width="1" opacity="0.8156862745098039" d="M 85.5 48 L 84.5 50 L 82.5 51 L 83.5 49 L 85.5 48 Z " /><path fill="rgb(239,178,0)" stroke="rgb(239,178,0)" stroke-width="1" opacity="0.8156862745098039" d="M 279.5 59 L 280.5 61 L 279.5 59 Z " /><path fill="rgb(239,178,0)" stroke="rgb(239,178,0)" stroke-width="1" opacity="0.8156862745098039" d="M 58.5 64 L 57.5 66 L 56 65.5 L 58.5 64 Z " /><path fill="rgb(239,178,0)" stroke="rgb(239,178,0)" stroke-width="1" opacity="0.8156862745098039" d="M 303.5 73 L 304.5 75 L 303.5 73 Z " /><path fill="rgb(239,178,0)" stroke="rgb(239,178,0)" stroke-width="1" opacity="0.8156862745098039" d="M 315.5 80 L 316.5 82 L 315.5 80 Z " /><path fill="rgb(239,178,0)" stroke="rgb(239,178,0)" stroke-width="1" opacity="0.8156862745098039" d="M 24.5 84 L 23.5 86 L 24.5 84 Z " /><path fill="rgb(239,178,0)" stroke="rgb(239,178,0)" stroke-width="1" opacity="0.8156862745098039" d="M 332.5 90 L 333.5 92 L 332.5 90 Z " /><path fill="rgb(239,178,0)" stroke="rgb(239,178,0)" stroke-width="1" opacity="0.8156862745098039" d="M 53.5 332 L 54.5 334 L 53.5 332 Z " /><path fill="rgb(239,178,0)" stroke="rgb(239,178,0)" stroke-width="1" opacity="0.8156862745098039" d="M 292.5 332 L 291.5 334 L 292.5 332 Z " /><path fill="rgb(239,178,0)" stroke="rgb(239,178,0)" stroke-width="1" opacity="0.8156862745098039" d="M 285.5 336 L 284.5 338 L 285.5 336 Z " /><path fill="rgb(239,178,0)" stroke="rgb(239,178,0)" stroke-width="1" opacity="0.8156862745098039" d="M 73.5 344 L 74.5 346 L 73.5 344 Z " /><path fill="rgb(239,178,0)" stroke="rgb(239,178,0)" stroke-width="1" opacity="0.8156862745098039" d="M 78.5 347 L 79.5 349 L 78.5 347 Z " /><path fill="rgb(239,178,0)" stroke="rgb(239,178,0)" stroke-width="1" opacity="0.8156862745098039" d="M 102.5 361 L 103.5 363 L 102.5 361 Z " /><path fill="rgb(255,222,98)" stroke="rgb(255,222,98)" stroke-width="1" opacity="1" d="M 210.5 65 Q 225.5 63.4 234 67 L 231.5 71 L 226.5 73 L 205.5 89 Q 203.2 91.7 197.5 91 L 195.5 91 L 185.5 91 L 184.5 90 L 181.5 91 L 180.5 90 L 166.5 89 L 156.5 86 L 154.5 87 L 153 84 L 176.5 72 L 186.5 70 L 188.5 68 L 201.5 66 L 203.5 66 Q 209 67.5 210.5 65 Z " /><path fill="rgb(255,222,98)" stroke="rgb(255,222,98)" stroke-width="1" opacity="1" d="M 72.5 88 L 76.5 88 L 80.5 90 L 95.5 93 Q 102.3 95.3 106 100.5 L 104.5 102 L 97.5 103 L 86.5 107 L 68.5 109 L 55.5 105 L 50 101.5 L 60.5 95 L 62 95.5 L 63.5 93 L 65.5 92 L 67 92.5 L 68.5 90 L 72.5 88 Z " /><path fill="rgb(255,222,98)" stroke="rgb(255,222,98)" stroke-width="1" opacity="1" d="M 224.5 93 L 238.5 94 L 243.5 96 L 245 95.5 Q 245.8 98.1 242.5 97 L 230.5 104 L 214.5 110 L 199.5 110 L 196.5 108 L 181.5 105 L 177 102.5 L 195.5 96 L 200.5 96 L 207.5 94 L 223.5 94 L 224.5 93 Z " /><path fill="rgb(255,222,98)" stroke="rgb(255,222,98)" stroke-width="1" opacity="1" d="M 100.5 109 L 110.5 109 L 117.5 111 L 148 123.5 L 127.5 136 L 116.5 138 Q 102.3 132.7 94 121.5 L 89.5 114 L 88 114.5 Q 87.2 111.9 90.5 113 L 100.5 109 Z " /><path fill="rgb(255,222,98)" stroke="rgb(255,222,98)" stroke-width="1" opacity="1" d="M 228.5 114 L 251.5 116 L 263.5 120 L 277 122.5 L 249.5 135 L 239.5 138 L 228.5 139 L 215.5 136 L 204.5 129 L 200 129 Q 198.8 126 202.5 127 Q 212.3 124.7 217.5 118 L 228.5 114 Z " /><path fill="rgb(255,222,98)" stroke="rgb(255,222,98)" stroke-width="1" opacity="1" d="M 276.5 129 L 285.5 130 L 301.5 135 L 305.5 135 L 311.5 138 L 317 138.5 L 309 142 Q 310.1 144.7 307.5 144 L 296.5 152 L 288.5 155 L 280.5 157 L 269.5 157 Q 268.3 154.7 263.5 156 L 243 146 Q 241.9 143.3 244.5 144 L 258.5 135 L 276.5 129 Z " /><path fill="rgb(255,222,98)" stroke="rgb(255,222,98)" stroke-width="1" opacity="1" d="M 148.5 130 L 158.5 130 L 177 137.5 L 162.5 149 L 154.5 153 L 145.5 153 L 142.5 152 L 139.5 152 L 127 145 L 129.5 141 L 148.5 130 Z " /><path fill="rgb(255,222,98)" stroke="rgb(255,222,98)" stroke-width="1" opacity="1" d="M 26 141 L 31.5 144 L 40.5 145 L 49.5 150 L 54.5 151 L 72 162.5 Q 72.8 165.1 69.5 164 L 47.5 171 L 45.5 171 Q 38.1 174.7 26 173 L 26 141 Z " /><path fill="rgb(255,222,98)" stroke="rgb(255,222,98)" stroke-width="1" opacity="1" d="M 121.5 153 L 129.5 153 L 153.5 163 L 163 164 L 162.5 166 L 159.5 165 L 136.5 179 L 128.5 181 L 122.5 181 L 122.5 179 L 118.5 180 L 95 166.5 L 105.5 163 L 121.5 153 Z " /><path fill="rgb(255,222,98)" stroke="rgb(255,222,98)" stroke-width="1" opacity="1" d="M 232.5 153 L 246.5 153 L 250.5 155 L 257.5 156 Q 262.9 161.1 272 162.5 L 265.5 165 Q 255.7 175.2 242.5 182 L 229.5 183 L 215.5 180 L 210.5 176 L 191 166.5 L 215.5 160 L 232.5 153 Z " /><path fill="rgb(255,222,98)" stroke="rgb(255,222,98)" stroke-width="1" opacity="1" d="M 163.5 155 L 168.5 155 L 184 162 Q 185.3 165.7 179.5 164 L 178.5 165 L 169.5 165 L 154 157.5 L 163.5 155 Z " /><path fill="rgb(255,222,98)" stroke="rgb(255,222,98)" stroke-width="1" opacity="1" d="M 26.5 178 L 54.5 189 L 67 196 Q 68.1 198.7 65.5 198 L 43.5 207 L 27.5 207 L 25 206 L 26.5 178 Z M 42 205 L 42 206 L 44 206 L 42 205 Z " /><path fill="rgb(255,222,98)" stroke="rgb(255,222,98)" stroke-width="1" opacity="1" d="M 316.5 184 L 320 184.5 L 320 186.5 L 319 188.5 L 320 192.5 L 320 196.5 Q 321.3 203.3 319 206.5 L 320 207.5 L 320 215 L 295.5 216 L 286 214 L 286 211.5 L 299.5 195 L 306.5 189 L 316.5 184 Z " /><path fill="rgb(255,222,98)" stroke="rgb(255,222,98)" stroke-width="1" opacity="1" d="M 213.5 186 L 227.5 186 L 230.5 188 L 241 190 L 240 193.5 L 226.5 207 L 211.5 213 L 194.5 213 L 193.5 212 L 181.5 211 L 172 207.5 L 180.5 206 L 204.5 189 L 213.5 186 Z " /><path fill="rgb(255,222,98)" stroke="rgb(255,222,98)" stroke-width="1" opacity="1" d="M 124.5 188 L 134.5 190 L 156 203.5 L 139.5 215 L 131.5 219 Q 125.3 217.3 123.5 220 L 102.5 216 L 100 214.5 L 100.5 213 L 97.5 214 L 80 203.5 L 104.5 196 L 114.5 191 L 124.5 188 Z " /><path fill="rgb(255,222,98)" stroke="rgb(255,222,98)" stroke-width="1" opacity="1" d="M 206.5 216 L 213.5 216 Q 218.9 219.1 227.5 219 L 237.5 223 L 253.5 226 L 255 227.5 L 253.5 230 L 236.5 240 L 228.5 241 L 224.5 243 L 213.5 243 L 201 241 L 200.5 239 L 197.5 240 L 188.5 238 L 182 235 L 187.5 228 L 192 226 L 193.5 223 L 206.5 216 Z " /><path fill="rgb(255,222,98)" stroke="rgb(255,222,98)" stroke-width="1" opacity="1" d="M 257.5 231 L 256.5 233 L 257.5 231 Z " /><path fill="rgb(255,222,98)" stroke="rgb(255,222,98)" stroke-width="1" opacity="1" d="M 319.5 232 L 320 270 L 310.5 268 L 291 256.5 Q 290.2 253.9 293.5 255 L 306 245.5 L 309.5 241 L 319.5 232 Z M 308 247 L 307 249 L 309 248 L 308 247 Z M 312 265 L 312 266 L 314 266 L 312 265 Z " /><path fill="rgb(255,222,98)" stroke="rgb(255,222,98)" stroke-width="1" opacity="1" d="M 70.5 240 L 83.5 241 L 97 246.5 L 90 252 L 87.5 256 L 84 258.5 L 84.5 260 L 82.5 259 Q 75 265.5 61.5 266 L 53.5 262 Q 52 264.5 50.5 261 L 44 256.5 Q 43.3 254.3 45.5 255 L 49 252.5 L 48.5 251 L 50.5 252 Q 57.7 243.2 70.5 240 Z " /><path fill="rgb(255,222,98)" stroke="rgb(255,222,98)" stroke-width="1" opacity="1" d="M 173.5 240 L 192.5 242 L 210 248.5 L 190.5 264 L 180.5 268 L 168.5 269 L 155.5 266 Q 147.4 259.3 137 256 Q 135.9 253.3 138.5 254 L 152.5 247 L 158.5 246 Q 164.5 241.5 173.5 240 Z " /><path fill="rgb(255,222,98)" stroke="rgb(255,222,98)" stroke-width="1" opacity="1" d="M 273.5 261 L 286.5 262 L 307.5 271 Q 315.7 271.1 320 274 L 320 282.5 L 318.5 283 L 304.5 292 Q 298.4 291.4 295.5 294 L 293.5 294 L 291.5 295 L 269.5 295 L 245.5 284 Q 244.3 286.3 243 283.5 Q 241.3 278.7 245.5 280 L 273.5 261 Z M 267 268 L 265 270 L 267 270 L 267 268 Z M 298 285 L 298 286 L 300 286 L 298 285 Z M 281 292 L 281 293 L 283 293 L 281 292 Z " /><path fill="rgb(255,222,98)" stroke="rgb(255,222,98)" stroke-width="1" opacity="1" d="M 139.5 265 Q 147.8 265.7 153 269.5 L 152.5 271 L 155.5 270 L 168 274.5 Q 161.3 281.8 151.5 286 L 139.5 290 L 131.5 291 L 120.5 289 L 109 283.5 L 123.5 275 L 130.5 268 L 139.5 265 Z " /><path fill="rgb(255,222,98)" stroke="rgb(255,222,98)" stroke-width="1" opacity="1" d="M 75.5 278 L 80.5 279 L 83.5 278 L 101.5 286 Q 111.7 287.3 118.5 292 L 123 292 Q 124.8 296.5 119.5 295 Q 118 297.5 112.5 296 L 82.5 307 L 67.5 308 L 40 291.5 Q 39.3 289.3 41.5 290 L 75.5 278 Z M 73 280 L 73 281 L 75 281 L 73 280 Z " /><path fill="rgb(255,222,98)" stroke="rgb(255,222,98)" stroke-width="1" opacity="1" d="M 235.5 289 L 247.5 289 L 265.5 296 L 277.5 303 L 280.5 303 L 282.5 303 Q 284.8 302.3 284 304.5 L 275.5 308 L 256.5 321 Q 255 318.5 253.5 322 L 244.5 325 L 232.5 326 L 220.5 321 L 217.5 321 L 199 311.5 Q 197.9 308.2 200.5 309 L 206.5 304 L 209 304 L 209 302 L 212 302 Q 210.9 299.3 213.5 300 Q 219.6 295.3 228 294 Q 226.9 291.3 229.5 292 L 235.5 289 Z " /><path fill="rgb(255,222,98)" stroke="rgb(255,222,98)" stroke-width="1" opacity="1" d="M 156.5 310 L 167.5 311 L 176.5 314 L 190.5 315 L 192 316.5 L 182 325.5 L 179.5 329 L 170.5 336 L 162.5 339 Q 155 341.5 143.5 340 L 126 334 Q 124.3 329.9 128.5 331 L 138 323.5 L 141.5 319 L 145 316.5 L 146.5 314 L 151.5 311 L 156.5 310 Z M 168 316 L 168 317 L 170 317 L 168 316 Z " /><path fill="rgb(255,196,0)" stroke="rgb(255,196,0)" stroke-width="1" opacity="1" d="M 171.5 29 L 174.5 29 L 219 55.5 L 212.5 59 L 194.5 64 L 171.5 65 L 170.5 64 L 161.5 64 Q 158.2 61.3 151.5 62 L 128 54.5 L 171.5 29 Z " /><path fill="rgb(255,196,0)" stroke="rgb(255,196,0)" stroke-width="1" opacity="1" d="M 114.5 62 L 133.5 65 L 152.5 71 L 160.5 71 L 165 73.5 Q 153.6 75.6 145.5 81 L 130.5 85 L 110.5 87 L 109.5 88 L 94.5 88 L 79 84 Q 77.9 81.3 80.5 82 L 114.5 62 Z " /><path fill="rgb(255,196,0)" stroke="rgb(255,196,0)" stroke-width="1" opacity="1" d="M 242.5 69 L 272 86.5 L 270.5 87 L 268.5 86 L 253.5 90 L 226.5 90 L 225.5 89 L 218 89 L 225.5 80 L 242.5 69 Z " /><path fill="rgb(255,196,0)" stroke="rgb(255,196,0)" stroke-width="1" opacity="1" d="M 133.5 88 L 148.5 89 L 162.5 94 Q 168.2 93.3 170.5 96 L 176.5 96 L 178 97.5 L 174.5 98 L 171.5 101 L 156.5 108 L 146.5 110 L 131.5 110 L 124.5 108 L 111.5 101 Q 110.2 103.3 109 100.5 Q 108.3 98.3 110.5 99 Q 119.7 91.2 133.5 88 Z " /><path fill="rgb(255,196,0)" stroke="rgb(255,196,0)" stroke-width="1" opacity="1" d="M 273.5 90 L 278.5 90 L 306 106.5 Q 294.5 113.5 276.5 114 L 275.5 113 L 265.5 113 Q 262.2 110.3 255.5 111 L 239 105.5 L 245.5 103 L 257.5 95 L 273.5 90 Z " /><path fill="rgb(255,196,0)" stroke="rgb(255,196,0)" stroke-width="1" opacity="1" d="M 172.5 108 L 187.5 109 L 204.5 115 L 208 115 L 206.5 119 L 202.5 120 L 189.5 129 L 180.5 132 L 173.5 132 L 155.5 125 L 143 116.5 L 151.5 115 L 172.5 108 Z " /><path fill="rgb(255,196,0)" stroke="rgb(255,196,0)" stroke-width="1" opacity="1" d="M 310.5 109 L 321 115.5 L 321 132.5 L 319.5 134 L 303.5 133 L 279 124 L 279.5 122 L 281.5 123 L 293.5 116 L 310.5 109 Z " /><path fill="rgb(255,196,0)" stroke="rgb(255,196,0)" stroke-width="1" opacity="1" d="M 44.5 110 L 56.5 111 L 75.5 117 L 85.5 118 L 87 119.5 L 80.5 122 L 70.5 130 L 52.5 138 L 37.5 139 L 29.5 136 L 25.5 136 L 24 134.5 L 24 115.5 L 25.5 115 L 33.5 111 L 43.5 111 L 44.5 110 Z " /><path fill="rgb(255,196,0)" stroke="rgb(255,196,0)" stroke-width="1" opacity="1" d="M 87.5 130 L 102.5 135 L 128 147.5 L 126.5 148 L 124.5 147 L 121.5 148 L 97.5 160 Q 90.4 162.4 79.5 161 Q 63.1 154.9 51 144.5 L 62.5 141 L 80.5 131 Q 86 132.5 87.5 130 Z " /><path fill="rgb(255,196,0)" stroke="rgb(255,196,0)" stroke-width="1" opacity="1" d="M 198.5 133 L 203.5 134 L 211.5 139 L 234.5 144 L 236 145.5 L 211.5 156 L 201.5 159 L 189.5 160 L 165 151 Q 163.9 148.3 166.5 149 Q 176.3 145.3 182.5 138 L 198.5 133 Z " /><path fill="rgb(255,196,0)" stroke="rgb(255,196,0)" stroke-width="1" opacity="1" d="M 320.5 140 L 322 148.5 L 321 150.5 L 322 152.5 L 321.5 155 L 314.5 155 L 306 152 Q 304.8 149 308.5 150 L 320.5 140 Z " /><path fill="rgb(255,196,0)" stroke="rgb(255,196,0)" stroke-width="1" opacity="1" d="M 321.5 156 L 322 178.5 L 309.5 185 L 289.5 186 L 280.5 184 L 267.5 178 L 263 177.5 L 284.5 160 L 308.5 157 L 309.5 158 L 321 158 L 321.5 156 Z " /><path fill="rgb(255,196,0)" stroke="rgb(255,196,0)" stroke-width="1" opacity="1" d="M 75.5 168 Q 85 166.5 90.5 169 L 115 185.5 L 94.5 192 L 79.5 194 L 62.5 190 L 48.5 182 L 45 178.5 L 75.5 168 Z " /><path fill="rgb(255,196,0)" stroke="rgb(255,196,0)" stroke-width="1" opacity="1" d="M 165.5 170 L 184.5 170 L 211 182.5 L 209.5 183 L 207 182 L 204.5 186 L 199.5 188 Q 191.2 196.7 179.5 202 L 167.5 203 L 160.5 201 Q 148.2 196.3 139.5 188 L 137 188 L 138.5 185 L 156.5 173 L 165.5 170 Z " /><path fill="rgb(255,196,0)" stroke="rgb(255,196,0)" stroke-width="1" opacity="1" d="M 257.5 186 L 271.5 187 L 282.5 193 L 296 196.5 L 290 200.5 L 287.5 204 L 285 205.5 L 279.5 212 L 267.5 220 L 259.5 223 L 254.5 223 L 234.5 216 L 226.5 215 L 225 213.5 Q 235.8 208.8 242 199.5 L 250.5 188 L 257.5 186 Z " /><path fill="rgb(255,196,0)" stroke="rgb(255,196,0)" stroke-width="1" opacity="1" d="M 62.5 205 Q 71.5 204 76.5 207 L 106 222.5 L 95.5 228 L 84.5 231 L 68.5 234 L 59.5 234 Q 45.3 228.7 35.5 219 L 31 218 L 31 216 Q 26.9 217.3 28 214 L 35.5 214 Q 47.5 208 62.5 205 Z " /><path fill="rgb(255,196,0)" stroke="rgb(255,196,0)" stroke-width="1" opacity="1" d="M 160.5 207 L 195 216.5 L 173.5 234 Q 167.7 238.2 156.5 237 L 135 225 L 137.5 221 L 160.5 207 Z " /><path fill="rgb(255,196,0)" stroke="rgb(255,196,0)" stroke-width="1" opacity="1" d="M 274.5 219 L 291.5 219 L 292.5 220 L 296.5 219 L 297.5 220 L 308.5 220 L 309.5 221 Q 317.5 220.3 322 222 Q 323 226.7 319.5 228 L 313 232.5 L 311.5 235 L 293.5 248 L 283.5 252 L 278.5 252 L 252.5 238 L 249 240 L 253.5 234 L 256.5 233 L 266.5 223 L 274.5 219 Z " /><path fill="rgb(255,196,0)" stroke="rgb(255,196,0)" stroke-width="1" opacity="1" d="M 24 220 L 32.5 222 L 59 239.5 L 40.5 251 L 29.5 255 L 23 255 L 23 248.5 L 24 247.5 L 24 220 Z " /><path fill="rgb(255,196,0)" stroke="rgb(255,196,0)" stroke-width="1" opacity="1" d="M 117.5 224 Q 126.5 223 131.5 226 L 141.5 231 L 149.5 238 L 155 240 Q 156.1 242.7 153.5 242 L 133.5 250 L 123.5 251 Q 122.2 248.7 117.5 250 L 90 235.5 L 107.5 226 L 117.5 224 Z " /><path fill="rgb(255,196,0)" stroke="rgb(255,196,0)" stroke-width="1" opacity="1" d="M 236.5 245 L 253.5 246 L 260.5 248 L 268.5 253 L 269.5 252 L 272.5 255 Q 275.1 254.3 274 257 L 267.5 260 L 256.5 270 L 236.5 280 L 231.5 281 L 228.5 280 L 221.5 280 L 214.5 278 L 195 268.5 Q 194.3 266.3 196.5 267 L 215.5 251 L 224.5 247 L 235.5 246 L 236.5 245 Z " /><path fill="rgb(255,196,0)" stroke="rgb(255,196,0)" stroke-width="1" opacity="1" d="M 108.5 253 L 116.5 253 L 135 258.5 Q 126.3 269.8 113.5 277 Q 109.4 280.9 100.5 280 L 75 272 L 77.5 268 L 95.5 256 L 108.5 253 Z " /><path fill="rgb(255,196,0)" stroke="rgb(255,196,0)" stroke-width="1" opacity="1" d="M 23 259 L 32.5 260 L 46.5 265 L 63 275 L 61.5 278 L 55.5 282 L 45.5 284 L 42.5 286 L 27.5 287 L 23 283.5 L 23 259 Z " /><path fill="rgb(255,196,0)" stroke="rgb(255,196,0)" stroke-width="1" opacity="1" d="M 182.5 275 L 193.5 275 L 225 286.5 L 213.5 296 L 191.5 307 L 171.5 309 L 158.5 306 L 139 294.5 L 148.5 291 L 172.5 278 L 182.5 275 Z " /><path fill="rgb(255,196,0)" stroke="rgb(255,196,0)" stroke-width="1" opacity="1" d="M 123.5 298 L 130.5 298 L 136.5 301 L 140.5 301 L 150 304 L 148.5 307 L 124.5 326 L 116.5 328 L 107.5 328 L 97.5 326 L 78 315.5 Q 85.4 309.9 96.5 308 L 104.5 303 L 112.5 300 L 123.5 298 Z " /><path fill="rgb(255,196,0)" stroke="rgb(255,196,0)" stroke-width="1" opacity="1" d="M 198.5 320 L 205.5 320 L 216.5 325 L 241 331.5 L 213.5 348 L 197.5 350 Q 184.8 346.8 176 339.5 L 176 337.5 L 188.5 325 L 198.5 320 Z " /><path fill="rgb(255,196,0)" stroke="rgb(255,196,0)" stroke-width="1" opacity="1" d="M 127.5 343 L 145.5 344 L 146.5 343 L 159.5 343 Q 175.5 346 187.5 353 L 191 353 L 189.5 356 L 178.5 365 L 170.5 369 L 128.5 345 L 127.5 343 Z " /><path fill="rgb(204,168,51)" stroke="rgb(204,168,51)" stroke-width="1" opacity="1" d="M 169.5 1 L 175.5 2 L 180.5 7 L 190.5 11 L 228.5 32 L 346 101 L 346 300.5 L 344.5 301 L 282.5 336 L 201.5 386 L 181.5 397 L 172.5 399 Q 171.5 396 166.5 397 L 87.5 351 L 15.5 308 L 4.5 299 L 0 298 L 0 126.5 L 2 116.5 Q -1.3 110.6 0 101 L 169.5 1 Z M 172 29 L 27 113 L 24 116 L 24 248 L 23 249 L 23 284 L 175 371 L 320 285 L 322 283 L 322 228 L 322 226 L 322 216 L 321 215 L 322 212 L 322 210 L 321 206 L 322 203 L 322 191 L 321 190 L 322 188 L 321 184 L 322 183 L 322 157 L 322 153 L 321 151 L 322 149 L 321 145 Q 320 140 322 139 L 321 116 L 175 29 L 172 29 Z " /><path fill="rgb(252,228,145)" stroke="rgb(252,228,145)" stroke-width="1" opacity="0.9921568627450981" d="M 126.5 55 L 125.5 57 L 126.5 55 Z " /><path fill="rgb(252,228,145)" stroke="rgb(252,228,145)" stroke-width="1" opacity="0.9921568627450981" d="M 228.5 61 L 229.5 63 L 228.5 61 Z " /><path fill="rgb(252,228,145)" stroke="rgb(252,228,145)" stroke-width="1" opacity="0.9921568627450981" d="M 240.5 68 L 241.5 70 L 240.5 68 Z " /><path fill="rgb(252,228,145)" stroke="rgb(252,228,145)" stroke-width="1" opacity="0.9921568627450981" d="M 221.5 83 L 220.5 85 L 221.5 83 Z " /><path fill="rgb(252,228,145)" stroke="rgb(252,228,145)" stroke-width="1" opacity="0.9921568627450981" d="M 76.5 84 L 75.5 86 L 76.5 84 Z " /><path fill="rgb(252,228,145)" stroke="rgb(252,228,145)" stroke-width="1" opacity="0.9921568627450981" d="M 152.5 84 L 154 86.5 L 152 85.5 L 152.5 84 Z " /><path fill="rgb(252,228,145)" stroke="rgb(252,228,145)" stroke-width="1" opacity="0.9921568627450981" d="M 228.5 93 L 231 93.5 L 228.5 94 L 228.5 93 Z " /><path fill="rgb(252,228,145)" stroke="rgb(252,228,145)" stroke-width="1" opacity="0.9921568627450981" d="M 308.5 108 L 309.5 110 L 308.5 108 Z " /><path fill="rgb(252,228,145)" stroke="rgb(252,228,145)" stroke-width="1" opacity="0.9921568627450981" d="M 26.5 113 L 25.5 115 L 26.5 113 Z " /><path fill="rgb(252,228,145)" stroke="rgb(252,228,145)" stroke-width="1" opacity="0.9921568627450981" d="M 190.5 166 L 191.5 168 L 190.5 166 Z " /><path fill="rgb(252,228,145)" stroke="rgb(252,228,145)" stroke-width="1" opacity="0.9921568627450981" d="M 259.5 168 L 260.5 170 L 259.5 168 Z " /><path fill="rgb(252,228,145)" stroke="rgb(252,228,145)" stroke-width="1" opacity="0.9921568627450981" d="M 24 172 L 26 172.5 L 24.5 178 L 24 172 Z " /><path fill="rgb(252,228,145)" stroke="rgb(252,228,145)" stroke-width="1" opacity="0.9921568627450981" d="M 24.5 206 L 25 218.5 L 24 218.5 L 24.5 206 Z " /><path fill="rgb(252,228,145)" stroke="rgb(252,228,145)" stroke-width="1" opacity="0.9921568627450981" d="M 317.5 233 L 316.5 235 L 317.5 233 Z " /><path fill="rgb(252,228,145)" stroke="rgb(252,228,145)" stroke-width="1" opacity="0.9921568627450981" d="M 305.5 245 L 303.5 248 L 305.5 245 Z " /><path fill="rgb(252,228,145)" stroke="rgb(252,228,145)" stroke-width="1" opacity="0.9921568627450981" d="M 238.5 288 L 243 288.5 L 238.5 289 L 238.5 288 Z " /><path fill="rgb(252,228,145)" stroke="rgb(252,228,145)" stroke-width="1" opacity="0.9921568627450981" d="M 308.5 290 L 307.5 292 L 308.5 290 Z " /><path fill="rgb(252,228,145)" stroke="rgb(252,228,145)" stroke-width="1" opacity="0.9921568627450981" d="M 305.5 291 L 306 292.5 L 304 293.5 L 305.5 291 Z " /><path fill="rgb(252,228,145)" stroke="rgb(252,228,145)" stroke-width="1" opacity="0.9921568627450981" d="M 275.5 295 L 280 295.5 L 275.5 296 L 275.5 295 Z " /><path fill="rgb(252,228,145)" stroke="rgb(252,228,145)" stroke-width="1" opacity="0.9921568627450981" d="M 119.5 298 L 122 298.5 L 119.5 299 L 119.5 298 Z " /><path fill="rgb(252,228,145)" stroke="rgb(252,228,145)" stroke-width="1" opacity="0.9921568627450981" d="M 283.5 305 L 282.5 307 L 283.5 305 Z " /><path fill="rgb(252,228,145)" stroke="rgb(252,228,145)" stroke-width="1" opacity="0.9921568627450981" d="M 70.5 310 L 71.5 312 L 70.5 310 Z " /><path fill="rgb(252,228,145)" stroke="rgb(252,228,145)" stroke-width="1" opacity="0.9921568627450981" d="M 269.5 312 L 270.5 314 L 269.5 312 Z " /><path fill="rgb(252,228,145)" stroke="rgb(252,228,145)" stroke-width="1" opacity="0.9921568627450981" d="M 268.5 314 L 267.5 316 L 268.5 314 Z " /><path fill="rgb(252,228,145)" stroke="rgb(252,228,145)" stroke-width="1" opacity="0.9921568627450981" d="M 213.5 318 L 214.5 320 L 213.5 318 Z " /><path fill="rgb(252,228,145)" stroke="rgb(252,228,145)" stroke-width="1" opacity="0.9921568627450981" d="M 259.5 319 L 261 319.5 L 257.5 322 L 259.5 319 Z " /><path fill="rgb(252,228,145)" stroke="rgb(252,228,145)" stroke-width="1" opacity="0.9921568627450981" d="M 185.5 322 L 182.5 326 L 185.5 322 Z " /><path fill="rgb(252,228,145)" stroke="rgb(252,228,145)" stroke-width="1" opacity="0.9921568627450981" d="M 137.5 323 L 136.5 325 L 137.5 323 Z " /><path fill="rgb(252,228,145)" stroke="rgb(252,228,145)" stroke-width="1" opacity="0.9921568627450981" d="M 253.5 323 L 252.5 325 L 253.5 323 Z " /><path fill="rgb(252,228,145)" stroke="rgb(252,228,145)" stroke-width="1" opacity="0.9921568627450981" d="M 98.5 326 L 99.5 328 L 98.5 326 Z " /><path fill="rgb(252,228,145)" stroke="rgb(252,228,145)" stroke-width="1" opacity="0.9921568627450981" d="M 248.5 326 L 247.5 328 L 248.5 326 Z " /><path fill="rgb(252,228,145)" stroke="rgb(252,228,145)" stroke-width="1" opacity="0.9921568627450981" d="M 173.5 333 L 172.5 335 L 173.5 333 Z " /><path fill="rgb(252,228,145)" stroke="rgb(252,228,145)" stroke-width="1" opacity="0.9921568627450981" d="M 117.5 337 L 118.5 339 L 117.5 337 Z " /><path fill="rgb(252,228,145)" stroke="rgb(252,228,145)" stroke-width="1" opacity="0.9921568627450981" d="M 210 348 L 212 348.5 L 210 349.5 L 210 348 Z " /><path fill="rgb(252,228,145)" stroke="rgb(252,228,145)" stroke-width="1" opacity="0.9921568627450981" d="M 186.5 363 L 185.5 365 L 186.5 363 Z " /><path fill="rgb(252,228,145)" stroke="rgb(252,228,145)" stroke-width="1" opacity="0.9921568627450981" d="M 181.5 366 L 180.5 368 L 181.5 366 Z " /></svg>