<svg width="346" height="400" version="1.1" xmlns="http://www.w3.org/2000/svg" desc="Created with imagetracer.js version 1.2.6" ><path fill="rgb(2,2,2)" stroke="rgb(2,2,2)" stroke-width="1" opacity="0.00392156862745098" d="M 0 0 L 167 0.5 L 91.5 46 L 90 45.5 Q 90.8 47.8 88.5 47 L 64.5 62 L 63 61.5 Q 63.8 63.8 61.5 63 Q 59.7 66.1 58 64.5 Q 58.8 66.8 56.5 66 L 5.5 97 L 4 96.5 Q 4.8 98.8 2.5 98 L 0 99 L 0 0 Z " /><path fill="rgb(2,2,2)" stroke="rgb(2,2,2)" stroke-width="1" opacity="0.00392156862745098" d="M 176.5 0 L 346 0 L 346 98.5 L 344.5 98 L 340 96 L 339.5 94 Q 338 96.5 336.5 93 Q 334.3 93.8 335 91.5 L 332.5 91 L 311 79 L 310.5 77 Q 309 79.5 307.5 76 L 221.5 26 L 181.5 5 L 176.5 0 Z " /><path fill="rgb(2,2,2)" stroke="rgb(2,2,2)" stroke-width="1" opacity="0.00392156862745098" d="M 0 300 L 2.5 300 Q 11.9 309.2 24 314 L 24.5 316 Q 26 313.5 27.5 317 L 42 325 L 42.5 327 Q 44 324.5 45.5 328 Q 47.8 327.3 47 329.5 Q 48.8 327.9 50.5 331 Q 52.8 330.3 52 332.5 Q 53.8 330.9 55.5 334 L 84 350 L 84.5 352 Q 86 349.5 87.5 353 L 149 388 L 149.5 390 L 151.5 390 L 169 399.5 L 0 400 L 0 300 Z " /><path fill="rgb(2,2,2)" stroke="rgb(2,2,2)" stroke-width="1" opacity="0.00392156862745098" d="M 344.5 303 L 346 303.5 L 346 400 L 178 399.5 L 184.5 396 L 186 396.5 Q 185.3 394.3 187.5 395 L 199.5 388 L 201 388.5 Q 200.3 386.3 202.5 387 L 213.5 380 L 215 380.5 Q 214.3 378.3 216.5 379 L 230.5 370 L 232 370.5 Q 231.3 368.3 233.5 369 L 254.5 355 L 256 355.5 L 256 354 L 259 354 Q 257.9 351.3 260.5 352 Q 262.4 348.4 267 349 Q 265.9 346.3 268.5 347 L 302.5 326 L 304 326.5 Q 303.3 324.3 305.5 325 L 316.5 318 L 318 318.5 Q 317.3 316.3 319.5 317 L 344.5 303 Z " /><path fill="rgb(185,203,225)" stroke="rgb(185,203,225)" stroke-width="1" opacity="0.9803921568627451" d="M 168.5 31 L 167.5 33 L 168.5 31 Z " /><path fill="rgb(185,203,225)" stroke="rgb(185,203,225)" stroke-width="1" opacity="0.9803921568627451" d="M 178.5 32 L 179.5 34 L 178.5 32 Z " /><path fill="rgb(185,203,225)" stroke="rgb(185,203,225)" stroke-width="1" opacity="0.9803921568627451" d="M 183.5 35 L 184.5 37 L 183.5 35 Z " /><path fill="rgb(185,203,225)" stroke="rgb(185,203,225)" stroke-width="1" opacity="0.9803921568627451" d="M 156.5 38 L 155.5 40 L 156.5 38 Z " /><path fill="rgb(185,203,225)" stroke="rgb(185,203,225)" stroke-width="1" opacity="0.9803921568627451" d="M 190.5 39 L 191.5 41 L 190.5 39 Z " /><path fill="rgb(185,203,225)" stroke="rgb(185,203,225)" stroke-width="1" opacity="0.9803921568627451" d="M 153.5 40 L 151.5 43 L 153.5 40 Z " /><path fill="rgb(185,203,225)" stroke="rgb(185,203,225)" stroke-width="1" opacity="0.9803921568627451" d="M 195.5 42 L 196.5 44 L 195.5 42 Z " /><path fill="rgb(185,203,225)" stroke="rgb(185,203,225)" stroke-width="1" opacity="0.9803921568627451" d="M 200.5 45 L 201.5 47 L 200.5 45 Z " /><path fill="rgb(185,203,225)" stroke="rgb(185,203,225)" stroke-width="1" opacity="0.9803921568627451" d="M 207.5 49 L 208.5 51 L 207.5 49 Z " /><path fill="rgb(185,203,225)" stroke="rgb(185,203,225)" stroke-width="1" opacity="0.9803921568627451" d="M 212.5 52 L 213.5 54 L 212.5 52 Z " /><path fill="rgb(185,203,225)" stroke="rgb(185,203,225)" stroke-width="1" opacity="0.9803921568627451" d="M 118.5 60 L 117.5 62 L 118.5 60 Z " /><path fill="rgb(185,203,225)" stroke="rgb(185,203,225)" stroke-width="1" opacity="0.9803921568627451" d="M 160.5 61 L 161 66.5 L 160 66.5 L 160.5 61 Z " /><path fill="rgb(185,203,225)" stroke="rgb(185,203,225)" stroke-width="1" opacity="0.9803921568627451" d="M 238.5 68 L 240 68.5 L 237.5 70 L 238.5 68 Z " /><path fill="rgb(185,203,225)" stroke="rgb(185,203,225)" stroke-width="1" opacity="0.9803921568627451" d="M 241.5 69 L 242.5 71 L 241.5 69 Z " /><path fill="rgb(185,203,225)" stroke="rgb(185,203,225)" stroke-width="1" opacity="0.9803921568627451" d="M 253.5 76 L 254.5 78 L 253.5 76 Z " /><path fill="rgb(185,203,225)" stroke="rgb(185,203,225)" stroke-width="1" opacity="0.9803921568627451" d="M 258.5 79 L 259.5 81 L 258.5 79 Z " /><path fill="rgb(185,203,225)" stroke="rgb(185,203,225)" stroke-width="1" opacity="0.9803921568627451" d="M 80.5 82 L 79.5 84 L 80.5 82 Z " /><path fill="rgb(185,203,225)" stroke="rgb(185,203,225)" stroke-width="1" opacity="0.9803921568627451" d="M 270.5 86 L 271.5 88 L 270.5 86 Z " /><path fill="rgb(185,203,225)" stroke="rgb(185,203,225)" stroke-width="1" opacity="0.9803921568627451" d="M 275.5 89 L 276.5 91 L 275.5 89 Z " /><path fill="rgb(185,203,225)" stroke="rgb(185,203,225)" stroke-width="1" opacity="0.9803921568627451" d="M 287.5 96 L 288.5 98 L 287.5 96 Z " /><path fill="rgb(185,203,225)" stroke="rgb(185,203,225)" stroke-width="1" opacity="0.9803921568627451" d="M 43.5 112 L 44 114.5 L 43 114.5 L 43.5 112 Z " /><path fill="rgb(185,203,225)" stroke="rgb(185,203,225)" stroke-width="1" opacity="0.9803921568627451" d="M 316.5 113 L 317.5 115 L 316.5 113 Z " /><path fill="rgb(185,203,225)" stroke="rgb(185,203,225)" stroke-width="1" opacity="0.9803921568627451" d="M 25.5 115 L 26 170.5 L 25 170.5 L 25.5 115 Z " /><path fill="rgb(185,203,225)" stroke="rgb(185,203,225)" stroke-width="1" opacity="0.9803921568627451" d="M 319.5 115 L 321 116.5 L 321 282.5 L 320 282.5 L 320 116.5 L 319.5 115 Z " /><path fill="rgb(185,203,225)" stroke="rgb(185,203,225)" stroke-width="1" opacity="0.9803921568627451" d="M 210.5 123 L 211 137.5 L 210 137.5 L 210.5 123 Z " /><path fill="rgb(185,203,225)" stroke="rgb(185,203,225)" stroke-width="1" opacity="0.9803921568627451" d="M 285.5 133 L 286 135.5 L 285 135.5 L 285.5 133 Z " /><path fill="rgb(185,203,225)" stroke="rgb(185,203,225)" stroke-width="1" opacity="0.9803921568627451" d="M 285.5 142 L 286 144.5 L 285 144.5 L 285.5 142 Z " /><path fill="rgb(185,203,225)" stroke="rgb(185,203,225)" stroke-width="1" opacity="0.9803921568627451" d="M 295.5 149 L 296 154.5 L 295 154.5 L 295.5 149 Z " /><path fill="rgb(185,203,225)" stroke="rgb(185,203,225)" stroke-width="1" opacity="0.9803921568627451" d="M 78.5 160 L 79 169.5 L 78 169.5 L 78.5 160 Z " /><path fill="rgb(185,203,225)" stroke="rgb(185,203,225)" stroke-width="1" opacity="0.9803921568627451" d="M 117.5 160 L 118 162.5 L 117 162.5 L 117.5 160 Z " /><path fill="rgb(185,203,225)" stroke="rgb(185,203,225)" stroke-width="1" opacity="0.9803921568627451" d="M 106.5 163 L 107 165.5 L 106 165.5 L 106.5 163 Z " /><path fill="rgb(185,203,225)" stroke="rgb(185,203,225)" stroke-width="1" opacity="0.9803921568627451" d="M 293.5 198 L 294 204.5 L 293 204.5 L 293.5 198 Z " /><path fill="rgb(185,203,225)" stroke="rgb(185,203,225)" stroke-width="1" opacity="0.9803921568627451" d="M 136.5 199 L 137 209.5 L 136 209.5 L 136.5 199 Z " /><path fill="rgb(185,203,225)" stroke="rgb(185,203,225)" stroke-width="1" opacity="0.9803921568627451" d="M 162.5 211 L 163.5 213 L 162.5 211 Z " /><path fill="rgb(185,203,225)" stroke="rgb(185,203,225)" stroke-width="1" opacity="0.9803921568627451" d="M 260.5 217 L 261 219.5 L 260 219.5 L 260.5 217 Z " /><path fill="rgb(185,203,225)" stroke="rgb(185,203,225)" stroke-width="1" opacity="0.9803921568627451" d="M 24.5 224 L 25 283.5 L 26 284.5 L 24 283.5 L 24.5 224 Z " /><path fill="rgb(185,203,225)" stroke="rgb(185,203,225)" stroke-width="1" opacity="0.9803921568627451" d="M 129.5 225 L 130 227.5 L 129 227.5 L 129.5 225 Z " /><path fill="rgb(185,203,225)" stroke="rgb(185,203,225)" stroke-width="1" opacity="0.9803921568627451" d="M 131.5 242 L 132 261.5 L 131 261.5 L 131.5 242 Z " /><path fill="rgb(185,203,225)" stroke="rgb(185,203,225)" stroke-width="1" opacity="0.9803921568627451" d="M 140.5 243 L 141 254.5 L 140 254.5 L 140.5 243 Z " /><path fill="rgb(185,203,225)" stroke="rgb(185,203,225)" stroke-width="1" opacity="0.9803921568627451" d="M 57.5 244 L 58 248.5 L 57 248.5 L 57.5 244 Z " /><path fill="rgb(185,203,225)" stroke="rgb(185,203,225)" stroke-width="1" opacity="0.9803921568627451" d="M 290.5 254 L 291 256.5 L 290 256.5 L 290.5 254 Z " /><path fill="rgb(185,203,225)" stroke="rgb(185,203,225)" stroke-width="1" opacity="0.9803921568627451" d="M 153.5 266 L 152.5 268 L 153.5 266 Z " /><path fill="rgb(185,203,225)" stroke="rgb(185,203,225)" stroke-width="1" opacity="0.9803921568627451" d="M 51.5 272 L 52 275.5 L 51 275.5 L 51.5 272 Z " /><path fill="rgb(185,203,225)" stroke="rgb(185,203,225)" stroke-width="1" opacity="0.9803921568627451" d="M 206.5 274 L 207.5 276 L 206.5 274 Z " /><path fill="rgb(185,203,225)" stroke="rgb(185,203,225)" stroke-width="1" opacity="0.9803921568627451" d="M 107.5 278 L 108 294.5 L 107 294.5 L 107.5 278 Z " /><path fill="rgb(185,203,225)" stroke="rgb(185,203,225)" stroke-width="1" opacity="0.9803921568627451" d="M 33.5 279 L 34 282.5 L 33 282.5 L 33.5 279 Z " /><path fill="rgb(185,203,225)" stroke="rgb(185,203,225)" stroke-width="1" opacity="0.9803921568627451" d="M 128.5 283 L 127.5 285 L 128.5 283 Z " /><path fill="rgb(185,203,225)" stroke="rgb(185,203,225)" stroke-width="1" opacity="0.9803921568627451" d="M 316.5 285 L 315.5 287 L 316.5 285 Z " /><path fill="rgb(185,203,225)" stroke="rgb(185,203,225)" stroke-width="1" opacity="0.9803921568627451" d="M 85.5 287 L 86 290.5 L 85 290.5 L 85.5 287 Z " /><path fill="rgb(185,203,225)" stroke="rgb(185,203,225)" stroke-width="1" opacity="0.9803921568627451" d="M 51.5 288 L 52 290.5 L 51 290.5 L 51.5 288 Z " /><path fill="rgb(185,203,225)" stroke="rgb(185,203,225)" stroke-width="1" opacity="0.9803921568627451" d="M 311.5 288 L 310.5 290 L 311.5 288 Z " /><path fill="rgb(185,203,225)" stroke="rgb(185,203,225)" stroke-width="1" opacity="0.9803921568627451" d="M 306.5 291 L 305.5 293 L 306.5 291 Z " /><path fill="rgb(185,203,225)" stroke="rgb(185,203,225)" stroke-width="1" opacity="0.9803921568627451" d="M 300.5 292 L 302 294.5 L 300 293.5 L 300.5 292 Z " /><path fill="rgb(185,203,225)" stroke="rgb(185,203,225)" stroke-width="1" opacity="0.9803921568627451" d="M 208.5 295 L 209 298.5 L 208 298.5 L 208.5 295 Z " /><path fill="rgb(185,203,225)" stroke="rgb(185,203,225)" stroke-width="1" opacity="0.9803921568627451" d="M 50.5 297 L 52 299.5 L 50 298.5 L 50.5 297 Z " /><path fill="rgb(185,203,225)" stroke="rgb(185,203,225)" stroke-width="1" opacity="0.9803921568627451" d="M 55.5 301 L 56.5 303 L 55.5 301 Z " /><path fill="rgb(185,203,225)" stroke="rgb(185,203,225)" stroke-width="1" opacity="0.9803921568627451" d="M 85.5 302 L 86 305.5 L 85 305.5 L 85.5 302 Z " /><path fill="rgb(185,203,225)" stroke="rgb(185,203,225)" stroke-width="1" opacity="0.9803921568627451" d="M 208.5 303 L 209 306.5 L 208 306.5 L 208.5 303 Z " /><path fill="rgb(185,203,225)" stroke="rgb(185,203,225)" stroke-width="1" opacity="0.9803921568627451" d="M 62.5 305 L 63.5 307 L 62.5 305 Z " /><path fill="rgb(185,203,225)" stroke="rgb(185,203,225)" stroke-width="1" opacity="0.9803921568627451" d="M 141.5 307 L 142 315.5 L 141 315.5 L 141.5 307 Z " /><path fill="rgb(185,203,225)" stroke="rgb(185,203,225)" stroke-width="1" opacity="0.9803921568627451" d="M 69.5 309 L 70.5 311 L 69.5 309 Z " /><path fill="rgb(185,203,225)" stroke="rgb(185,203,225)" stroke-width="1" opacity="0.9803921568627451" d="M 274.5 310 L 273.5 312 L 274.5 310 Z " /><path fill="rgb(185,203,225)" stroke="rgb(185,203,225)" stroke-width="1" opacity="0.9803921568627451" d="M 220.5 311 L 221 317.5 L 220 317.5 L 220.5 311 Z " /><path fill="rgb(185,203,225)" stroke="rgb(185,203,225)" stroke-width="1" opacity="0.9803921568627451" d="M 269.5 313 L 268.5 315 L 269.5 313 Z " /><path fill="rgb(185,203,225)" stroke="rgb(185,203,225)" stroke-width="1" opacity="0.9803921568627451" d="M 264.5 316 L 263.5 318 L 264.5 316 Z " /><path fill="rgb(185,203,225)" stroke="rgb(185,203,225)" stroke-width="1" opacity="0.9803921568627451" d="M 259.5 319 L 258.5 321 L 259.5 319 Z " /><path fill="rgb(185,203,225)" stroke="rgb(185,203,225)" stroke-width="1" opacity="0.9803921568627451" d="M 254.5 322 L 253.5 324 L 254.5 322 Z " /><path fill="rgb(185,203,225)" stroke="rgb(185,203,225)" stroke-width="1" opacity="0.9803921568627451" d="M 249.5 325 L 248.5 327 L 249.5 325 Z " /><path fill="rgb(185,203,225)" stroke="rgb(185,203,225)" stroke-width="1" opacity="0.9803921568627451" d="M 244.5 328 L 243.5 330 L 244.5 328 Z " /><path fill="rgb(185,203,225)" stroke="rgb(185,203,225)" stroke-width="1" opacity="0.9803921568627451" d="M 109.5 332 L 110.5 334 L 109.5 332 Z " /><path fill="rgb(185,203,225)" stroke="rgb(185,203,225)" stroke-width="1" opacity="0.9803921568627451" d="M 116.5 336 L 117.5 338 L 116.5 336 Z " /><path fill="rgb(185,203,225)" stroke="rgb(185,203,225)" stroke-width="1" opacity="0.9803921568627451" d="M 225.5 339 L 224.5 341 L 225.5 339 Z " /><path fill="rgb(185,203,225)" stroke="rgb(185,203,225)" stroke-width="1" opacity="0.9803921568627451" d="M 123.5 340 L 124.5 342 L 123.5 340 Z " /><path fill="rgb(185,203,225)" stroke="rgb(185,203,225)" stroke-width="1" opacity="0.9803921568627451" d="M 168.5 344 L 169 348.5 L 168 348.5 L 168.5 344 Z " /><path fill="rgb(185,203,225)" stroke="rgb(185,203,225)" stroke-width="1" opacity="0.9803921568627451" d="M 137.5 348 L 138.5 350 L 137.5 348 Z " /><path fill="rgb(129,163,195)" stroke="rgb(129,163,195)" stroke-width="1" opacity="0.996078431372549" d="M 162.5 34 L 161.5 36 L 162.5 34 Z " /><path fill="rgb(129,163,195)" stroke="rgb(129,163,195)" stroke-width="1" opacity="0.996078431372549" d="M 184.5 35 L 185.5 37 L 184.5 35 Z " /><path fill="rgb(129,163,195)" stroke="rgb(129,163,195)" stroke-width="1" opacity="0.996078431372549" d="M 152.5 40 L 151.5 42 L 152.5 40 Z " /><path fill="rgb(129,163,195)" stroke="rgb(129,163,195)" stroke-width="1" opacity="0.996078431372549" d="M 147.5 43 L 146.5 45 L 147.5 43 Z " /><path fill="rgb(129,163,195)" stroke="rgb(129,163,195)" stroke-width="1" opacity="0.996078431372549" d="M 201.5 45 L 202.5 47 L 201.5 45 Z " /><path fill="rgb(129,163,195)" stroke="rgb(129,163,195)" stroke-width="1" opacity="0.996078431372549" d="M 142.5 46 L 141.5 48 L 137.5 50 L 138.5 48 L 142.5 46 Z " /><path fill="rgb(129,163,195)" stroke="rgb(129,163,195)" stroke-width="1" opacity="0.996078431372549" d="M 135.5 50 L 134.5 52 L 130.5 54 L 131.5 52 L 135.5 50 Z " /><path fill="rgb(129,163,195)" stroke="rgb(129,163,195)" stroke-width="1" opacity="0.996078431372549" d="M 128.5 54 L 127.5 56 L 128.5 54 Z " /><path fill="rgb(129,163,195)" stroke="rgb(129,163,195)" stroke-width="1" opacity="0.996078431372549" d="M 219.5 56 L 223 58.5 L 221.5 58 L 219.5 56 Z " /><path fill="rgb(129,163,195)" stroke="rgb(129,163,195)" stroke-width="1" opacity="0.996078431372549" d="M 123.5 57 L 122.5 59 L 121 58.5 L 123.5 57 Z " /><path fill="rgb(129,163,195)" stroke="rgb(129,163,195)" stroke-width="1" opacity="0.996078431372549" d="M 226.5 60 L 227.5 62 L 226.5 60 Z " /><path fill="rgb(129,163,195)" stroke="rgb(129,163,195)" stroke-width="1" opacity="0.996078431372549" d="M 231.5 63 L 235 65.5 L 233.5 65 L 231.5 63 Z " /><path fill="rgb(129,163,195)" stroke="rgb(129,163,195)" stroke-width="1" opacity="0.996078431372549" d="M 236.5 66 L 239 67.5 L 237.5 68 L 236.5 66 Z " /><path fill="rgb(129,163,195)" stroke="rgb(129,163,195)" stroke-width="1" opacity="0.996078431372549" d="M 159.5 72 L 160 77.5 L 159 77.5 L 159.5 72 Z " /><path fill="rgb(129,163,195)" stroke="rgb(129,163,195)" stroke-width="1" opacity="0.996078431372549" d="M 247.5 72 L 248.5 74 L 247.5 72 Z " /><path fill="rgb(129,163,195)" stroke="rgb(129,163,195)" stroke-width="1" opacity="0.996078431372549" d="M 259.5 79 L 260.5 81 L 259.5 79 Z " /><path fill="rgb(129,163,195)" stroke="rgb(129,163,195)" stroke-width="1" opacity="0.996078431372549" d="M 264.5 82 L 265.5 84 L 264.5 82 Z " /><path fill="rgb(129,163,195)" stroke="rgb(129,163,195)" stroke-width="1" opacity="0.996078431372549" d="M 76.5 84 L 75.5 86 L 76.5 84 Z " /><path fill="rgb(129,163,195)" stroke="rgb(129,163,195)" stroke-width="1" opacity="0.996078431372549" d="M 104.5 85 L 105 94.5 L 104 94.5 L 104.5 85 Z " /><path fill="rgb(129,163,195)" stroke="rgb(129,163,195)" stroke-width="1" opacity="0.996078431372549" d="M 73.5 86 L 72.5 88 L 70.5 89 L 71.5 87 L 73.5 86 Z " /><path fill="rgb(129,163,195)" stroke="rgb(129,163,195)" stroke-width="1" opacity="0.996078431372549" d="M 276.5 89 L 277.5 91 L 276.5 89 Z " /><path fill="rgb(129,163,195)" stroke="rgb(129,163,195)" stroke-width="1" opacity="0.996078431372549" d="M 66.5 90 L 65.5 92 L 63.5 93 L 64.5 91 L 66.5 90 Z " /><path fill="rgb(129,163,195)" stroke="rgb(129,163,195)" stroke-width="1" opacity="0.996078431372549" d="M 84.5 92 L 85 95.5 L 84 95.5 L 84.5 92 Z " /><path fill="rgb(129,163,195)" stroke="rgb(129,163,195)" stroke-width="1" opacity="0.996078431372549" d="M 281.5 92 L 282.5 94 L 281.5 92 Z " /><path fill="rgb(129,163,195)" stroke="rgb(129,163,195)" stroke-width="1" opacity="0.996078431372549" d="M 61.5 93 L 60.5 95 L 58.5 96 L 59.5 94 L 61.5 93 Z " /><path fill="rgb(129,163,195)" stroke="rgb(129,163,195)" stroke-width="1" opacity="0.996078431372549" d="M 54.5 97 L 53.5 99 L 54.5 97 Z " /><path fill="rgb(129,163,195)" stroke="rgb(129,163,195)" stroke-width="1" opacity="0.996078431372549" d="M 293.5 99 L 294.5 101 L 293.5 99 Z " /><path fill="rgb(129,163,195)" stroke="rgb(129,163,195)" stroke-width="1" opacity="0.996078431372549" d="M 155.5 100 L 156.5 102 L 155.5 100 Z " /><path fill="rgb(129,163,195)" stroke="rgb(129,163,195)" stroke-width="1" opacity="0.996078431372549" d="M 84.5 107 L 85 110.5 L 84 110.5 L 84.5 107 Z " /><path fill="rgb(129,163,195)" stroke="rgb(129,163,195)" stroke-width="1" opacity="0.996078431372549" d="M 26.5 113 L 25.5 115 L 26.5 113 Z " /><path fill="rgb(129,163,195)" stroke="rgb(129,163,195)" stroke-width="1" opacity="0.996078431372549" d="M 200.5 121 L 201 129.5 L 200 129.5 L 200.5 121 Z " /><path fill="rgb(129,163,195)" stroke="rgb(129,163,195)" stroke-width="1" opacity="0.996078431372549" d="M 160.5 128 L 159.5 130 L 160.5 128 Z " /><path fill="rgb(129,163,195)" stroke="rgb(129,163,195)" stroke-width="1" opacity="0.996078431372549" d="M 39.5 137 L 40.5 139 L 39.5 137 Z " /><path fill="rgb(129,163,195)" stroke="rgb(129,163,195)" stroke-width="1" opacity="0.996078431372549" d="M 24.5 143 L 25 220.5 L 24 220.5 L 24.5 143 Z " /><path fill="rgb(129,163,195)" stroke="rgb(129,163,195)" stroke-width="1" opacity="0.996078431372549" d="M 294.5 167 L 296.5 170 L 294.5 167 Z " /><path fill="rgb(129,163,195)" stroke="rgb(129,163,195)" stroke-width="1" opacity="0.996078431372549" d="M 302.5 172 L 301.5 174 L 300 173.5 L 302.5 172 Z " /><path fill="rgb(129,163,195)" stroke="rgb(129,163,195)" stroke-width="1" opacity="0.996078431372549" d="M 107.5 173 L 108 182.5 L 107 182.5 L 107.5 173 Z " /><path fill="rgb(129,163,195)" stroke="rgb(129,163,195)" stroke-width="1" opacity="0.996078431372549" d="M 321.5 233 L 322 280.5 L 321 280.5 L 321.5 233 Z " /><path fill="rgb(129,163,195)" stroke="rgb(129,163,195)" stroke-width="1" opacity="0.996078431372549" d="M 69.5 245 L 70 249.5 L 69 249.5 L 69.5 245 Z " /><path fill="rgb(129,163,195)" stroke="rgb(129,163,195)" stroke-width="1" opacity="0.996078431372549" d="M 198.5 268 L 199.5 270 L 198.5 268 Z " /><path fill="rgb(129,163,195)" stroke="rgb(129,163,195)" stroke-width="1" opacity="0.996078431372549" d="M 195.5 270 L 196.5 272 L 195.5 270 Z " /><path fill="rgb(129,163,195)" stroke="rgb(129,163,195)" stroke-width="1" opacity="0.996078431372549" d="M 294.5 270 L 295.5 272 L 294.5 270 Z " /><path fill="rgb(129,163,195)" stroke="rgb(129,163,195)" stroke-width="1" opacity="0.996078431372549" d="M 320.5 283 L 319.5 285 L 320.5 283 Z " /><path fill="rgb(129,163,195)" stroke="rgb(129,163,195)" stroke-width="1" opacity="0.996078431372549" d="M 28.5 286 L 29.5 288 L 28.5 286 Z " /><path fill="rgb(129,163,195)" stroke="rgb(129,163,195)" stroke-width="1" opacity="0.996078431372549" d="M 39.5 292 L 40.5 294 L 39.5 292 Z " /><path fill="rgb(129,163,195)" stroke="rgb(129,163,195)" stroke-width="1" opacity="0.996078431372549" d="M 44.5 295 L 48 297.5 L 46.5 297 L 44.5 295 Z " /><path fill="rgb(129,163,195)" stroke="rgb(129,163,195)" stroke-width="1" opacity="0.996078431372549" d="M 49.5 298 L 50.5 300 L 49.5 298 Z " /><path fill="rgb(129,163,195)" stroke="rgb(129,163,195)" stroke-width="1" opacity="0.996078431372549" d="M 285.5 304 L 284.5 306 L 285.5 304 Z " /><path fill="rgb(129,163,195)" stroke="rgb(129,163,195)" stroke-width="1" opacity="0.996078431372549" d="M 280.5 307 L 279.5 309 L 280.5 307 Z " /><path fill="rgb(129,163,195)" stroke="rgb(129,163,195)" stroke-width="1" opacity="0.996078431372549" d="M 275.5 310 L 274.5 312 L 275.5 310 Z " /><path fill="rgb(129,163,195)" stroke="rgb(129,163,195)" stroke-width="1" opacity="0.996078431372549" d="M 270.5 313 L 269.5 315 L 270.5 313 Z " /><path fill="rgb(129,163,195)" stroke="rgb(129,163,195)" stroke-width="1" opacity="0.996078431372549" d="M 82.5 317 L 85 318.5 L 83.5 319 L 82.5 317 Z " /><path fill="rgb(129,163,195)" stroke="rgb(129,163,195)" stroke-width="1" opacity="0.996078431372549" d="M 86.5 319 L 87.5 321 L 86.5 319 Z " /><path fill="rgb(129,163,195)" stroke="rgb(129,163,195)" stroke-width="1" opacity="0.996078431372549" d="M 91.5 322 L 97 325.5 L 95.5 325 Q 91.5 324.5 91.5 322 Z " /><path fill="rgb(129,163,195)" stroke="rgb(129,163,195)" stroke-width="1" opacity="0.996078431372549" d="M 100.5 327 L 101.5 329 L 100.5 327 Z " /><path fill="rgb(129,163,195)" stroke="rgb(129,163,195)" stroke-width="1" opacity="0.996078431372549" d="M 241.5 330 L 243 330.5 L 240.5 332 L 241.5 330 Z " /><path fill="rgb(129,163,195)" stroke="rgb(129,163,195)" stroke-width="1" opacity="0.996078431372549" d="M 236.5 333 L 235.5 335 L 236.5 333 Z " /><path fill="rgb(129,163,195)" stroke="rgb(129,163,195)" stroke-width="1" opacity="0.996078431372549" d="M 231.5 336 L 230.5 338 L 228.5 339 L 229.5 337 L 231.5 336 Z " /><path fill="rgb(129,163,195)" stroke="rgb(129,163,195)" stroke-width="1" opacity="0.996078431372549" d="M 226.5 339 L 225.5 341 L 226.5 339 Z " /><path fill="rgb(129,163,195)" stroke="rgb(129,163,195)" stroke-width="1" opacity="0.996078431372549" d="M 223.5 341 L 222.5 343 L 223.5 341 Z " /><path fill="rgb(129,163,195)" stroke="rgb(129,163,195)" stroke-width="1" opacity="0.996078431372549" d="M 153.5 347 L 154 350.5 L 153 350.5 L 153.5 347 Z " /><path fill="rgb(129,163,195)" stroke="rgb(129,163,195)" stroke-width="1" opacity="0.996078431372549" d="M 143.5 352 L 144.5 354 L 143.5 352 Z " /><path fill="rgb(129,163,195)" stroke="rgb(129,163,195)" stroke-width="1" opacity="0.996078431372549" d="M 187.5 354 L 186.5 356 L 187.5 354 Z " /><path fill="rgb(129,163,195)" stroke="rgb(129,163,195)" stroke-width="1" opacity="0.996078431372549" d="M 150.5 356 L 151.5 358 L 150.5 356 Z " /><path fill="rgb(129,163,195)" stroke="rgb(129,163,195)" stroke-width="1" opacity="0.996078431372549" d="M 164.5 364 L 165.5 366 L 164.5 364 Z " /><path fill="rgb(36,67,95)" stroke="rgb(36,67,95)" stroke-width="1" opacity="0.9921568627450981" d="M 167.5 0 Q 176 -2 178 2.5 L 176.5 2 L 169.5 1 L 0 101 Q -1.1 98.3 1.5 99 L 167.5 0 Z " /><path fill="rgb(36,67,95)" stroke="rgb(36,67,95)" stroke-width="1" opacity="0.9921568627450981" d="M 179.5 3 L 180.5 5 L 179.5 3 Z " /><path fill="rgb(36,67,95)" stroke="rgb(36,67,95)" stroke-width="1" opacity="0.9921568627450981" d="M 184.5 6 L 188 8.5 L 186.5 8 L 184.5 6 Z " /><path fill="rgb(36,67,95)" stroke="rgb(36,67,95)" stroke-width="1" opacity="0.9921568627450981" d="M 191.5 10 L 197 13.5 L 195.5 13 Q 191.5 12.5 191.5 10 Z " /><path fill="rgb(36,67,95)" stroke="rgb(36,67,95)" stroke-width="1" opacity="0.9921568627450981" d="M 198.5 14 L 235.5 34 L 321 84.5 L 319.5 84 L 199.5 16 L 198.5 14 Z " /><path fill="rgb(36,67,95)" stroke="rgb(36,67,95)" stroke-width="1" opacity="0.9921568627450981" d="M 171.5 28 L 174 28.5 L 170.5 30 L 171.5 28 Z " /><path fill="rgb(36,67,95)" stroke="rgb(36,67,95)" stroke-width="1" opacity="0.9921568627450981" d="M 104.5 67 L 103.5 69 L 102 68.5 L 104.5 67 Z " /><path fill="rgb(36,67,95)" stroke="rgb(36,67,95)" stroke-width="1" opacity="0.9921568627450981" d="M 322.5 85 L 326 87.5 L 324.5 87 L 322.5 85 Z " /><path fill="rgb(36,67,95)" stroke="rgb(36,67,95)" stroke-width="1" opacity="0.9921568627450981" d="M 327.5 88 L 331 90.5 L 329.5 90 L 327.5 88 Z " /><path fill="rgb(36,67,95)" stroke="rgb(36,67,95)" stroke-width="1" opacity="0.9921568627450981" d="M 336.5 93 L 337.5 95 L 336.5 93 Z " /><path fill="rgb(36,67,95)" stroke="rgb(36,67,95)" stroke-width="1" opacity="0.9921568627450981" d="M 341.5 96 L 342.5 98 L 341.5 96 Z " /><path fill="rgb(36,67,95)" stroke="rgb(36,67,95)" stroke-width="1" opacity="0.9921568627450981" d="M 344.5 100 Q 346.8 99.3 346 101.5 L 344.5 100 Z " /><path fill="rgb(36,67,95)" stroke="rgb(36,67,95)" stroke-width="1" opacity="0.9921568627450981" d="M 0.5 111 L 3 116.5 Q -0.1 120.4 0.5 128 L 0.5 111 Z " /><path fill="rgb(36,67,95)" stroke="rgb(36,67,95)" stroke-width="1" opacity="0.9921568627450981" d="M 320.5 114 L 321.5 116 L 320.5 114 Z " /><path fill="rgb(36,67,95)" stroke="rgb(36,67,95)" stroke-width="1" opacity="0.9921568627450981" d="M 321.5 282 L 322 283.5 L 319 285.5 L 321.5 282 Z " /><path fill="rgb(36,67,95)" stroke="rgb(36,67,95)" stroke-width="1" opacity="0.9921568627450981" d="M 23.5 284 L 24.5 286 L 23.5 284 Z " /><path fill="rgb(36,67,95)" stroke="rgb(36,67,95)" stroke-width="1" opacity="0.9921568627450981" d="M 0 298 L 5.5 299 L 12.5 306 L 147.5 386 L 166.5 397 Q 172.3 395.8 173.5 399 Q 175.2 396.2 180.5 397 L 201.5 386 L 283.5 335 L 346 301 Q 347.1 303.7 344.5 303 L 293.5 331 L 233.5 369 L 195.5 391 L 180.5 399 L 169.5 400 L 65.5 340 L 17.5 311 L 2.5 300 L 0 300 L 0 298 Z " /><path fill="rgb(36,67,95)" stroke="rgb(36,67,95)" stroke-width="1" opacity="0.9921568627450981" d="M 102.5 330 L 105 331.5 L 103.5 331 L 102.5 330 Z " /><path fill="rgb(36,67,95)" stroke="rgb(36,67,95)" stroke-width="1" opacity="0.9921568627450981" d="M 223.5 342 L 222.5 344 L 223.5 342 Z " /><path fill="rgb(36,67,95)" stroke="rgb(36,67,95)" stroke-width="1" opacity="0.9921568627450981" d="M 218.5 345 L 217.5 347 L 218.5 345 Z " /><path fill="rgb(36,67,95)" stroke="rgb(36,67,95)" stroke-width="1" opacity="0.9921568627450981" d="M 203.5 354 L 202.5 356 L 195.5 360 L 196.5 358 L 203.5 354 Z " /><path fill="rgb(36,67,95)" stroke="rgb(36,67,95)" stroke-width="1" opacity="0.9921568627450981" d="M 191.5 361 L 190.5 363 L 191.5 361 Z " /><path fill="rgb(36,67,95)" stroke="rgb(36,67,95)" stroke-width="1" opacity="0.9921568627450981" d="M 186.5 364 L 185.5 366 L 183.5 367 L 184.5 365 L 186.5 364 Z " /><path fill="rgb(138,186,232)" stroke="rgb(138,186,232)" stroke-width="1" opacity="1" d="M 150.5 42 L 151 43.5 Q 136.6 60.1 138 92.5 L 143 106.5 Q 141.5 112 144 113.5 L 144 133.5 L 139 147.5 L 127.5 164 Q 124.9 164.8 126 161.5 L 128 157.5 Q 126.5 152 129 150.5 L 129 136.5 L 116 99.5 L 116 79.5 L 121 59 L 150.5 42 Z " /><path fill="rgb(138,186,232)" stroke="rgb(138,186,232)" stroke-width="1" opacity="1" d="M 215.5 54 L 238 68.5 L 230 83.5 L 230 107.5 L 231 108.5 L 231 131.5 Q 225.9 149.4 212.5 159 Q 209.7 163.2 203.5 164 L 204 162.5 L 209 151.5 L 210 138.5 L 211 137.5 L 211 123.5 L 210 122.5 L 210 113.5 L 206 98.5 L 206 86.5 L 207 85.5 L 207 69.5 L 215.5 54 Z " /><path fill="rgb(138,186,232)" stroke="rgb(138,186,232)" stroke-width="1" opacity="1" d="M 74.5 86 L 74 87.5 L 69 111.5 L 69 127.5 L 78 156.5 L 78 173.5 L 73 192.5 L 67.5 206 L 66 204.5 L 65 178.5 L 63 170.5 L 55 155.5 L 49 135.5 L 47 124.5 L 47 111.5 L 50 100 L 74.5 86 Z " /><path fill="rgb(138,186,232)" stroke="rgb(138,186,232)" stroke-width="1" opacity="1" d="M 30.5 119 L 31 121.5 L 30 121.5 L 30.5 119 Z " /><path fill="rgb(138,186,232)" stroke="rgb(138,186,232)" stroke-width="1" opacity="1" d="M 271 127 Q 274 125.8 273 129.5 L 271 137.5 L 271 155.5 L 274 163.5 Q 284.2 173.3 291 186.5 Q 294.6 194.4 293 207.5 L 286 223.5 Q 275.3 230.7 269 242.5 L 268 253 L 265 251.5 L 266 237.5 L 271 229.5 L 276 216.5 L 276 205.5 L 272 197.5 L 262 184.5 L 260 176.5 L 260 165.5 L 266 141.5 L 271 127 Z " /><path fill="rgb(138,186,232)" stroke="rgb(138,186,232)" stroke-width="1" opacity="1" d="M 118.5 136 L 119 140.5 L 118 140.5 L 118.5 136 Z " /><path fill="rgb(138,186,232)" stroke="rgb(138,186,232)" stroke-width="1" opacity="1" d="M 147.5 165 Q 150.2 166.3 148 167.5 L 148 188.5 L 149 192.5 L 151 197.5 L 167 218.5 Q 171.7 226.8 170 241.5 L 164 255.5 L 157 264 L 155 264 Q 156.1 266.7 153.5 266 Q 147.1 269.2 146 276 Q 143 277.3 144 273.5 Q 151.8 264.3 153 248.5 L 150 234.5 L 137 211.5 L 137 191.5 L 147.5 165 Z " /><path fill="rgb(138,186,232)" stroke="rgb(138,186,232)" stroke-width="1" opacity="1" d="M 89.5 188 Q 92.1 187.2 91 190.5 Q 86.1 199.1 88 214.5 L 89 215.5 L 90 227.5 L 93 236.5 L 100 248.5 L 106 265.5 L 107 270.5 L 107 302.5 L 103 325.5 L 101.5 328 L 84 317.5 L 85 306.5 L 86 305.5 L 86 287.5 L 85 286.5 L 84 275.5 L 77 250.5 L 77 232.5 L 85 196.5 L 89.5 188 Z " /><path fill="rgb(138,186,232)" stroke="rgb(138,186,232)" stroke-width="1" opacity="1" d="M 41.5 200 L 43 203.5 L 39 218.5 L 39 234.5 L 50 261.5 L 51 275.5 L 52 276.5 L 52 287.5 L 51 288.5 L 51 296.5 L 49.5 298 L 33 288.5 L 34 279.5 L 26 255.5 L 26 237.5 L 33 217.5 L 41.5 200 Z " /><path fill="rgb(138,186,232)" stroke="rgb(138,186,232)" stroke-width="1" opacity="1" d="M 239.5 207 Q 241.8 206.3 241 208.5 L 239 210.5 Q 239.8 215.8 237 217.5 L 234 240.5 L 237 254.5 L 252 277.5 L 253 281.5 L 253 301.5 L 248 319.5 L 243 330 L 226.5 339 L 228 336.5 L 234 315.5 L 234 303.5 L 220 265.5 L 220 246.5 L 233 215.5 L 239.5 207 Z " /><path fill="rgb(138,186,232)" stroke="rgb(138,186,232)" stroke-width="1" opacity="1" d="M 262.5 231 L 261.5 233 L 262.5 231 Z " /><path fill="rgb(138,186,232)" stroke="rgb(138,186,232)" stroke-width="1" opacity="1" d="M 185.5 356 L 182.5 360 L 185.5 356 Z " /><path fill="rgb(205,219,235)" stroke="rgb(205,219,235)" stroke-width="1" opacity="0.996078431372549" d="M 214.5 55 L 213.5 57 L 214.5 55 Z " /><path fill="rgb(205,219,235)" stroke="rgb(205,219,235)" stroke-width="1" opacity="0.996078431372549" d="M 114.5 63 L 113.5 65 L 114.5 63 Z " /><path fill="rgb(205,219,235)" stroke="rgb(205,219,235)" stroke-width="1" opacity="0.996078431372549" d="M 206.5 71 L 207 84.5 L 206 84.5 L 206.5 71 Z " /><path fill="rgb(205,219,235)" stroke="rgb(205,219,235)" stroke-width="1" opacity="0.996078431372549" d="M 138.5 78 L 139 80.5 L 138 80.5 L 138.5 78 Z " /><path fill="rgb(205,219,235)" stroke="rgb(205,219,235)" stroke-width="1" opacity="0.996078431372549" d="M 115.5 85 L 116 95.5 L 115 95.5 L 115.5 85 Z " /><path fill="rgb(205,219,235)" stroke="rgb(205,219,235)" stroke-width="1" opacity="0.996078431372549" d="M 230.5 105 L 231 107.5 L 230 107.5 L 230.5 105 Z " /><path fill="rgb(205,219,235)" stroke="rgb(205,219,235)" stroke-width="1" opacity="0.996078431372549" d="M 143.5 108 L 144 111.5 L 143 111.5 L 143.5 108 Z " /><path fill="rgb(205,219,235)" stroke="rgb(205,219,235)" stroke-width="1" opacity="0.996078431372549" d="M 69.5 112 L 70 116.5 L 69 116.5 L 69.5 112 Z " /><path fill="rgb(205,219,235)" stroke="rgb(205,219,235)" stroke-width="1" opacity="0.996078431372549" d="M 209.5 114 L 210 116.5 L 209 116.5 L 209.5 114 Z " /><path fill="rgb(205,219,235)" stroke="rgb(205,219,235)" stroke-width="1" opacity="0.996078431372549" d="M 144.5 117 L 145 126.5 L 144 126.5 L 144.5 117 Z " /><path fill="rgb(205,219,235)" stroke="rgb(205,219,235)" stroke-width="1" opacity="0.996078431372549" d="M 69.5 123 L 70 127.5 L 69 127.5 L 69.5 123 Z " /><path fill="rgb(205,219,235)" stroke="rgb(205,219,235)" stroke-width="1" opacity="0.996078431372549" d="M 163.5 125 L 162.5 127 L 163.5 125 Z " /><path fill="rgb(205,219,235)" stroke="rgb(205,219,235)" stroke-width="1" opacity="0.996078431372549" d="M 271.5 126 L 270.5 128 L 271.5 126 Z " /><path fill="rgb(205,219,235)" stroke="rgb(205,219,235)" stroke-width="1" opacity="0.996078431372549" d="M 271.5 138 L 272 141.5 L 271 141.5 L 271.5 138 Z " /><path fill="rgb(205,219,235)" stroke="rgb(205,219,235)" stroke-width="1" opacity="0.996078431372549" d="M 220.5 151 L 219.5 153 L 220.5 151 Z " /><path fill="rgb(205,219,235)" stroke="rgb(205,219,235)" stroke-width="1" opacity="0.996078431372549" d="M 217.5 154 L 214.5 158 L 217.5 154 Z " /><path fill="rgb(205,219,235)" stroke="rgb(205,219,235)" stroke-width="1" opacity="0.996078431372549" d="M 125.5 163 L 128 164.5 L 126.5 165 L 125.5 163 Z " /><path fill="rgb(205,219,235)" stroke="rgb(205,219,235)" stroke-width="1" opacity="0.996078431372549" d="M 148.5 167 L 149 171.5 L 148 171.5 L 148.5 167 Z " /><path fill="rgb(205,219,235)" stroke="rgb(205,219,235)" stroke-width="1" opacity="0.996078431372549" d="M 277.5 167 L 278.5 169 L 277.5 167 Z " /><path fill="rgb(205,219,235)" stroke="rgb(205,219,235)" stroke-width="1" opacity="0.996078431372549" d="M 145.5 168 L 144.5 170 L 145.5 168 Z " /><path fill="rgb(205,219,235)" stroke="rgb(205,219,235)" stroke-width="1" opacity="0.996078431372549" d="M 25.5 171 L 26 192.5 L 25 192.5 L 25.5 171 Z " /><path fill="rgb(205,219,235)" stroke="rgb(205,219,235)" stroke-width="1" opacity="0.996078431372549" d="M 65.5 185 L 66 190.5 L 65 190.5 L 65.5 185 Z " /><path fill="rgb(205,219,235)" stroke="rgb(205,219,235)" stroke-width="1" opacity="0.996078431372549" d="M 136.5 195 L 137 198.5 L 136 198.5 L 136.5 195 Z " /><path fill="rgb(205,219,235)" stroke="rgb(205,219,235)" stroke-width="1" opacity="0.996078431372549" d="M 88.5 200 L 89 203.5 L 88 203.5 L 88.5 200 Z " /><path fill="rgb(205,219,235)" stroke="rgb(205,219,235)" stroke-width="1" opacity="0.996078431372549" d="M 178.5 204 L 179.5 206 L 178.5 204 Z " /><path fill="rgb(205,219,235)" stroke="rgb(205,219,235)" stroke-width="1" opacity="0.996078431372549" d="M 181.5 207 L 184.5 211 L 181.5 207 Z " /><path fill="rgb(205,219,235)" stroke="rgb(205,219,235)" stroke-width="1" opacity="0.996078431372549" d="M 235.5 212 L 233.5 215 L 235.5 212 Z " /><path fill="rgb(205,219,235)" stroke="rgb(205,219,235)" stroke-width="1" opacity="0.996078431372549" d="M 188.5 215 L 189.5 217 L 188.5 215 Z " /><path fill="rgb(205,219,235)" stroke="rgb(205,219,235)" stroke-width="1" opacity="0.996078431372549" d="M 284.5 225 L 282.5 228 L 284.5 225 Z " /><path fill="rgb(205,219,235)" stroke="rgb(205,219,235)" stroke-width="1" opacity="0.996078431372549" d="M 77.5 228 L 78 230.5 L 77 230.5 L 77.5 228 Z " /><path fill="rgb(205,219,235)" stroke="rgb(205,219,235)" stroke-width="1" opacity="0.996078431372549" d="M 234.5 236 L 235 239.5 L 234 239.5 L 234.5 236 Z " /><path fill="rgb(205,219,235)" stroke="rgb(205,219,235)" stroke-width="1" opacity="0.996078431372549" d="M 25.5 240 L 26 251.5 L 25 251.5 L 25.5 240 Z " /><path fill="rgb(205,219,235)" stroke="rgb(205,219,235)" stroke-width="1" opacity="0.996078431372549" d="M 152.5 249 L 153 251.5 L 152 251.5 L 152.5 249 Z " /><path fill="rgb(205,219,235)" stroke="rgb(205,219,235)" stroke-width="1" opacity="0.996078431372549" d="M 219.5 252 L 220 261.5 L 219 261.5 L 219.5 252 Z " /><path fill="rgb(205,219,235)" stroke="rgb(205,219,235)" stroke-width="1" opacity="0.996078431372549" d="M 160.5 259 L 158.5 262 L 160.5 259 Z " /><path fill="rgb(205,219,235)" stroke="rgb(205,219,235)" stroke-width="1" opacity="0.996078431372549" d="M 64.5 265 L 65.5 267 L 64.5 265 Z " /><path fill="rgb(205,219,235)" stroke="rgb(205,219,235)" stroke-width="1" opacity="0.996078431372549" d="M 148.5 271 L 147.5 273 L 148.5 271 Z " /><path fill="rgb(205,219,235)" stroke="rgb(205,219,235)" stroke-width="1" opacity="0.996078431372549" d="M 253.5 284 L 254 298.5 L 253 298.5 L 253.5 284 Z " /><path fill="rgb(205,219,235)" stroke="rgb(205,219,235)" stroke-width="1" opacity="0.996078431372549" d="M 51.5 291 L 52 293.5 L 51 293.5 L 51.5 291 Z " /><path fill="rgb(205,219,235)" stroke="rgb(205,219,235)" stroke-width="1" opacity="0.996078431372549" d="M 105.5 310 L 106 312.5 L 105 312.5 L 105.5 310 Z " /><path fill="rgb(205,219,235)" stroke="rgb(205,219,235)" stroke-width="1" opacity="0.996078431372549" d="M 84.5 311 L 85 313.5 L 84 313.5 L 84.5 311 Z " /><path fill="rgb(205,219,235)" stroke="rgb(205,219,235)" stroke-width="1" opacity="0.996078431372549" d="M 268.5 313 L 267.5 315 L 268.5 313 Z " /><path fill="rgb(205,219,235)" stroke="rgb(205,219,235)" stroke-width="1" opacity="0.996078431372549" d="M 216.5 344 L 218 344.5 L 215.5 346 L 216.5 344 Z " /><path fill="rgb(205,219,235)" stroke="rgb(205,219,235)" stroke-width="1" opacity="0.996078431372549" d="M 190.5 350 L 189.5 352 L 190.5 350 Z " /><path fill="rgb(210,222,237)" stroke="rgb(210,222,237)" stroke-width="1" opacity="0.996078431372549" d="M 222.5 149 L 221.5 151 L 222.5 149 Z " /><path fill="rgb(210,222,237)" stroke="rgb(210,222,237)" stroke-width="1" opacity="0.996078431372549" d="M 25.5 193 L 26 196.5 L 25 196.5 L 25.5 193 Z " /><path fill="rgb(210,222,237)" stroke="rgb(210,222,237)" stroke-width="1" opacity="0.996078431372549" d="M 68.5 219 L 67.5 221 L 68.5 219 Z " /><path fill="rgb(210,222,237)" stroke="rgb(210,222,237)" stroke-width="1" opacity="0.996078431372549" d="M 274.5 235 L 273.5 237 L 274.5 235 Z " /><path fill="rgb(210,222,237)" stroke="rgb(210,222,237)" stroke-width="1" opacity="0.996078431372549" d="M 163.5 256 L 162.5 258 L 163.5 256 Z " /><path fill="rgb(210,222,237)" stroke="rgb(210,222,237)" stroke-width="1" opacity="0.996078431372549" d="M 150.5 269 L 149.5 271 L 150.5 269 Z " /><path fill="rgb(210,222,237)" stroke="rgb(210,222,237)" stroke-width="1" opacity="0.996078431372549" d="M 271.5 311 L 270.5 313 L 271.5 311 Z " /><path fill="rgb(57,113,160)" stroke="rgb(57,113,160)" stroke-width="1" opacity="0.996078431372549" d="M 178.5 31 L 179.5 33 L 178.5 31 Z " /><path fill="rgb(57,113,160)" stroke="rgb(57,113,160)" stroke-width="1" opacity="0.996078431372549" d="M 156.5 37 L 155.5 39 L 156.5 37 Z " /><path fill="rgb(57,113,160)" stroke="rgb(57,113,160)" stroke-width="1" opacity="0.996078431372549" d="M 151.5 40 L 150.5 42 L 151.5 40 Z " /><path fill="rgb(57,113,160)" stroke="rgb(57,113,160)" stroke-width="1" opacity="0.996078431372549" d="M 146.5 43 L 145.5 45 L 143.5 46 L 144.5 44 L 146.5 43 Z " /><path fill="rgb(57,113,160)" stroke="rgb(57,113,160)" stroke-width="1" opacity="0.996078431372549" d="M 137.5 48 L 136.5 50 L 137.5 48 Z " /><path fill="rgb(57,113,160)" stroke="rgb(57,113,160)" stroke-width="1" opacity="0.996078431372549" d="M 215.5 53 L 219 55.5 L 217.5 55 L 215.5 53 Z " /><path fill="rgb(57,113,160)" stroke="rgb(57,113,160)" stroke-width="1" opacity="0.996078431372549" d="M 127.5 54 L 126.5 56 L 127.5 54 Z " /><path fill="rgb(57,113,160)" stroke="rgb(57,113,160)" stroke-width="1" opacity="0.996078431372549" d="M 222.5 57 L 223.5 59 L 222.5 57 Z " /><path fill="rgb(57,113,160)" stroke="rgb(57,113,160)" stroke-width="1" opacity="0.996078431372549" d="M 227.5 60 L 231 62.5 L 229.5 62 L 227.5 60 Z " /><path fill="rgb(57,113,160)" stroke="rgb(57,113,160)" stroke-width="1" opacity="0.996078431372549" d="M 234.5 64 L 235.5 66 L 234.5 64 Z " /><path fill="rgb(57,113,160)" stroke="rgb(57,113,160)" stroke-width="1" opacity="0.996078431372549" d="M 241.5 68 L 242.5 70 L 241.5 68 Z " /><path fill="rgb(57,113,160)" stroke="rgb(57,113,160)" stroke-width="1" opacity="0.996078431372549" d="M 149.5 72 L 150 74.5 L 149 74.5 L 149.5 72 Z " /><path fill="rgb(57,113,160)" stroke="rgb(57,113,160)" stroke-width="1" opacity="0.996078431372549" d="M 70.5 87 L 69.5 89 L 70.5 87 Z " /><path fill="rgb(57,113,160)" stroke="rgb(57,113,160)" stroke-width="1" opacity="0.996078431372549" d="M 63.5 91 L 62.5 93 L 63.5 91 Z " /><path fill="rgb(57,113,160)" stroke="rgb(57,113,160)" stroke-width="1" opacity="0.996078431372549" d="M 58.5 94 L 57.5 96 L 58.5 94 Z " /><path fill="rgb(57,113,160)" stroke="rgb(57,113,160)" stroke-width="1" opacity="0.996078431372549" d="M 287.5 95 L 288.5 97 L 287.5 95 Z " /><path fill="rgb(57,113,160)" stroke="rgb(57,113,160)" stroke-width="1" opacity="0.996078431372549" d="M 53.5 97 L 52.5 99 L 53.5 97 Z " /><path fill="rgb(57,113,160)" stroke="rgb(57,113,160)" stroke-width="1" opacity="0.996078431372549" d="M 297.5 101 L 298.5 103 L 297.5 101 Z " /><path fill="rgb(57,113,160)" stroke="rgb(57,113,160)" stroke-width="1" opacity="0.996078431372549" d="M 157.5 102 L 158.5 104 L 157.5 102 Z " /><path fill="rgb(57,113,160)" stroke="rgb(57,113,160)" stroke-width="1" opacity="0.996078431372549" d="M 25.5 113 L 25 114.5 L 24.5 143 L 24 114.5 L 25.5 113 Z " /><path fill="rgb(57,113,160)" stroke="rgb(57,113,160)" stroke-width="1" opacity="0.996078431372549" d="M 321.5 116 L 322 232.5 L 321 232.5 L 321.5 116 Z " /><path fill="rgb(57,113,160)" stroke="rgb(57,113,160)" stroke-width="1" opacity="0.996078431372549" d="M 43.5 141 L 44.5 143 L 43.5 141 Z " /><path fill="rgb(57,113,160)" stroke="rgb(57,113,160)" stroke-width="1" opacity="0.996078431372549" d="M 295.5 165 L 296.5 167 L 295.5 165 Z " /><path fill="rgb(57,113,160)" stroke="rgb(57,113,160)" stroke-width="1" opacity="0.996078431372549" d="M 253.5 193 L 254.5 195 L 253.5 193 Z " /><path fill="rgb(57,113,160)" stroke="rgb(57,113,160)" stroke-width="1" opacity="0.996078431372549" d="M 70.5 218 L 69.5 220 L 70.5 218 Z " /><path fill="rgb(57,113,160)" stroke="rgb(57,113,160)" stroke-width="1" opacity="0.996078431372549" d="M 23.5 221 L 24 283.5 L 26 285.5 L 23 283.5 L 23.5 221 Z " /><path fill="rgb(57,113,160)" stroke="rgb(57,113,160)" stroke-width="1" opacity="0.996078431372549" d="M 67.5 221 L 66.5 223 L 67.5 221 Z " /><path fill="rgb(57,113,160)" stroke="rgb(57,113,160)" stroke-width="1" opacity="0.996078431372549" d="M 256.5 233 L 255.5 235 L 256.5 233 Z " /><path fill="rgb(57,113,160)" stroke="rgb(57,113,160)" stroke-width="1" opacity="0.996078431372549" d="M 316.5 286 L 315.5 288 L 316.5 286 Z " /><path fill="rgb(57,113,160)" stroke="rgb(57,113,160)" stroke-width="1" opacity="0.996078431372549" d="M 38.5 292 L 39.5 294 L 38.5 292 Z " /><path fill="rgb(57,113,160)" stroke="rgb(57,113,160)" stroke-width="1" opacity="0.996078431372549" d="M 43.5 295 L 44.5 297 L 43.5 295 Z " /><path fill="rgb(57,113,160)" stroke="rgb(57,113,160)" stroke-width="1" opacity="0.996078431372549" d="M 153.5 301 L 154 304.5 L 153 304.5 L 153.5 301 Z " /><path fill="rgb(57,113,160)" stroke="rgb(57,113,160)" stroke-width="1" opacity="0.996078431372549" d="M 62.5 306 L 63.5 308 L 62.5 306 Z " /><path fill="rgb(57,113,160)" stroke="rgb(57,113,160)" stroke-width="1" opacity="0.996078431372549" d="M 76.5 314 L 77.5 316 L 76.5 314 Z " /><path fill="rgb(57,113,160)" stroke="rgb(57,113,160)" stroke-width="1" opacity="0.996078431372549" d="M 264.5 317 L 263.5 319 L 264.5 317 Z " /><path fill="rgb(57,113,160)" stroke="rgb(57,113,160)" stroke-width="1" opacity="0.996078431372549" d="M 85.5 319 L 86.5 321 L 85.5 319 Z " /><path fill="rgb(57,113,160)" stroke="rgb(57,113,160)" stroke-width="1" opacity="0.996078431372549" d="M 259.5 320 L 258.5 322 L 259.5 320 Z " /><path fill="rgb(57,113,160)" stroke="rgb(57,113,160)" stroke-width="1" opacity="0.996078431372549" d="M 90.5 322 L 91.5 324 L 90.5 322 Z " /><path fill="rgb(57,113,160)" stroke="rgb(57,113,160)" stroke-width="1" opacity="0.996078431372549" d="M 254.5 323 L 253.5 325 L 254.5 323 Z " /><path fill="rgb(57,113,160)" stroke="rgb(57,113,160)" stroke-width="1" opacity="0.996078431372549" d="M 97.5 326 L 101 328.5 L 99.5 328 L 97.5 326 Z " /><path fill="rgb(57,113,160)" stroke="rgb(57,113,160)" stroke-width="1" opacity="0.996078431372549" d="M 249.5 326 L 248.5 328 L 249.5 326 Z " /><path fill="rgb(57,113,160)" stroke="rgb(57,113,160)" stroke-width="1" opacity="0.996078431372549" d="M 244.5 329 L 243.5 331 L 244.5 329 Z " /><path fill="rgb(57,113,160)" stroke="rgb(57,113,160)" stroke-width="1" opacity="0.996078431372549" d="M 104.5 330 L 105.5 332 L 104.5 330 Z " /><path fill="rgb(57,113,160)" stroke="rgb(57,113,160)" stroke-width="1" opacity="0.996078431372549" d="M 237.5 333 L 236.5 335 L 237.5 333 Z " /><path fill="rgb(57,113,160)" stroke="rgb(57,113,160)" stroke-width="1" opacity="0.996078431372549" d="M 232.5 336 L 231.5 338 L 232.5 336 Z " /><path fill="rgb(57,113,160)" stroke="rgb(57,113,160)" stroke-width="1" opacity="0.996078431372549" d="M 116.5 337 L 117.5 339 L 116.5 337 Z " /><path fill="rgb(57,113,160)" stroke="rgb(57,113,160)" stroke-width="1" opacity="0.996078431372549" d="M 227.5 339 L 226.5 341 L 227.5 339 Z " /><path fill="rgb(57,113,160)" stroke="rgb(57,113,160)" stroke-width="1" opacity="0.996078431372549" d="M 130.5 345 L 131.5 347 L 130.5 345 Z " /><path fill="rgb(57,113,160)" stroke="rgb(57,113,160)" stroke-width="1" opacity="0.996078431372549" d="M 217.5 345 L 216.5 347 L 217.5 345 Z " /><path fill="rgb(57,113,160)" stroke="rgb(57,113,160)" stroke-width="1" opacity="0.996078431372549" d="M 180.5 361 L 179.5 363 L 180.5 361 Z " /><path fill="rgb(0,93,162)" stroke="rgb(0,93,162)" stroke-width="1" opacity="1" d="M 113.5 63 L 112.5 65 L 87.5 80 L 87 78 L 113.5 63 Z " /><path fill="rgb(0,93,162)" stroke="rgb(0,93,162)" stroke-width="1" opacity="1" d="M 45.5 102 L 45 103.5 Q 45.8 106.1 42.5 105 L 39.5 108 L 29.5 113 L 30.5 111 L 45.5 102 Z " /><path fill="rgb(0,93,162)" stroke="rgb(0,93,162)" stroke-width="1" opacity="1" d="M 298.5 103 L 316 113.5 L 314.5 114 L 299.5 105 L 298.5 103 Z " /><path fill="rgb(0,93,162)" stroke="rgb(0,93,162)" stroke-width="1" opacity="1" d="M 265.5 204 L 267 206.5 L 265 205.5 L 265.5 204 Z " /><path fill="rgb(0,93,162)" stroke="rgb(0,93,162)" stroke-width="1" opacity="1" d="M 206.5 279 L 207.5 281 L 206.5 279 Z " /><path fill="rgb(0,93,162)" stroke="rgb(0,93,162)" stroke-width="1" opacity="1" d="M 298.5 295 L 300 295.5 L 286.5 304 L 287.5 302 L 298.5 295 Z " /><path fill="rgb(0,93,162)" stroke="rgb(0,93,162)" stroke-width="1" opacity="1" d="M 213.5 346 L 214 348 L 180.5 368 Q 178.2 370.7 172.5 370 L 171.5 368 L 176.5 369 Q 192 357.2 210 349 Q 208.8 346 212.5 347 L 213.5 346 Z " /><path fill="rgb(0,93,162)" stroke="rgb(0,93,162)" stroke-width="1" opacity="1" d="M 154.5 357 L 161 361 L 160.5 363 L 154 358.5 L 154.5 357 Z " /><path fill="rgb(211,223,237)" stroke="rgb(211,223,237)" stroke-width="1" opacity="1" d="M 172.5 30 L 193.5 43 L 197.5 44 L 200.5 47 L 202.5 47 L 205.5 50 L 210 51 Q 208.8 54 212.5 53 L 215 54.5 Q 208.8 61.3 206 71.5 L 206 100.5 L 210 117.5 L 210 142.5 L 208 153.5 L 203 165 Q 215.1 159.9 223 149.5 L 231 133.5 L 231 105.5 L 230 104.5 L 230 85.5 Q 232.5 75.5 238.5 69 L 297 103.5 Q 284.1 117.1 285 144.5 L 288 157.5 L 292 165.5 L 299 174 L 303 172.5 L 301 169.5 L 296 158.5 L 296 145.5 L 298 137.5 L 304 124.5 L 311.5 116 L 316.5 114 L 320 116 L 320 282.5 L 318.5 283 L 301.5 294 L 301 287.5 L 301 285.5 L 300 277.5 Q 294 271.5 291 262.5 L 291 243.5 L 293 235.5 L 298 227.5 L 298 225 L 294 226.5 L 292 229.5 L 279 255.5 L 279 259.5 L 276 267.5 L 276 279.5 L 284 293.5 L 286 302.5 L 244.5 328 L 246 325.5 L 253 304.5 L 254 284.5 L 251 273.5 L 238 255.5 L 235 244.5 L 235 230.5 L 239 211.5 L 241 207 Q 237.3 205.5 238 208.5 L 233 214.5 L 222 238.5 L 219 251.5 L 219 262.5 L 222 274.5 L 233 300.5 L 234 313.5 L 229 332.5 L 227 337.5 L 223.5 341 L 216 344 L 220 328.5 L 221 311.5 L 220 310.5 L 220 300.5 L 216 285.5 L 205.5 273 L 199 268.5 Q 199.8 265.9 196.5 267 L 192.5 265 Q 189.7 266.3 192 267.5 L 193.5 270 L 197 272.5 L 207 287.5 L 209 302.5 L 208 303.5 L 208 311.5 L 206 320.5 L 198 339.5 Q 190.2 353.2 178.5 363 L 170.5 367 L 162 361.5 Q 169.3 356.3 169 343.5 L 166 331.5 Q 158.3 320.7 154 306.5 L 154 293.5 L 155 287 Q 157.7 288.1 157 285.5 L 156 283.5 L 159 277.5 L 156.5 276 L 151 282.5 L 144 296.5 L 141 307.5 L 141 316.5 L 147 333.5 L 153 344.5 L 154 356.5 L 152.5 356 L 115.5 336 L 103 327.5 L 107 305.5 L 108 277.5 L 104 257.5 L 93 235.5 L 90 226.5 L 88 204.5 Q 90.8 202.7 89 196.5 L 92 188.5 L 89 187 L 85 195.5 L 78 222.5 Q 79.3 227.3 77 228.5 L 77 253.5 L 84 276.5 L 86 300.5 L 85 301.5 L 83.5 317 L 58.5 302 L 56.5 302 L 51 297.5 L 52 293.5 L 52 270.5 Q 48.7 251.3 40 237.5 L 39 221.5 L 43 201.5 L 40.5 200 L 31 221.5 L 25.5 240 L 25 197.5 L 26 196.5 L 26 115.5 L 27.5 114 Q 30.5 113.1 29 117.5 L 31 125.5 L 35 133.5 L 41 141 L 46.5 145 L 49 145 L 48 138.5 L 44 129.5 L 43 115.5 L 45 104.5 L 46.5 103 L 48.5 102 L 49 104.5 L 47 109.5 L 47 127.5 L 56 159.5 L 64 175.5 L 65 190.5 L 66 191.5 L 66 206 Q 69.8 207.5 69 204.5 L 78 175.5 L 79 159.5 L 70 131.5 L 69 117.5 L 70 116.5 L 70 106.5 L 71 105.5 L 72 94.5 L 75 86 Q 81.8 84.9 85.5 80 L 86 83.5 Q 82 94.5 84 111.5 L 89 125.5 L 106 159.5 L 107 184.5 L 106 185.5 L 106 202.5 L 110 213 Q 114.1 214.7 113 210.5 Q 109 205.5 111 194.5 L 115 181.5 L 118 156.5 L 119 155.5 L 119 135.5 L 116 123.5 L 105 97.5 L 105 82.5 Q 107.5 70 115.5 63 L 120 61 L 116 77.5 L 115 95.5 L 119 111.5 L 127 129.5 L 129 138.5 L 129 147.5 L 128 148.5 L 127 159.5 L 125 163.5 L 128 165 L 128 163 Q 130.7 164.1 130 161.5 L 140 146.5 L 143 139.5 L 144 127.5 L 145 126.5 L 145 117.5 L 144 116.5 L 144 106.5 L 142 104.5 L 139 95.5 L 138 81.5 L 139 80.5 L 140 67.5 L 144 55.5 Q 147.3 46.8 153.5 41 L 172.5 30 Z M 162 42 Q 163 45 161 44 L 151 61 L 149 70 L 149 89 L 150 93 Q 153 100 159 105 L 161 110 Q 162 123 155 129 Q 156 131 160 130 L 166 123 L 171 110 L 171 98 L 160 81 L 161 58 L 165 45 Q 166 40 162 42 Z M 191 95 L 189 97 L 193 111 L 192 125 L 190 132 L 181 151 L 172 165 L 169 174 L 169 185 L 172 195 L 178 205 Q 188 213 195 225 L 198 235 L 198 242 L 197 242 L 197 244 Q 196 250 199 249 L 203 240 L 203 221 L 202 217 L 189 190 L 192 171 L 199 152 L 200 136 L 201 135 L 201 120 L 198 106 Q 196 98 191 95 Z M 272 126 L 265 144 L 260 164 L 260 179 L 261 184 L 272 199 L 276 208 L 275 219 L 266 237 L 265 252 L 268 253 Q 267 246 270 242 L 280 230 L 283 228 L 289 220 L 294 206 L 293 192 L 290 184 Q 284 172 275 165 L 271 153 L 272 133 L 273 132 Q 274 127 272 126 Z M 148 165 L 144 170 L 136 195 L 136 211 L 138 214 Q 137 217 140 216 L 149 234 L 152 244 L 151 259 L 144 274 Q 142 278 146 277 L 147 274 L 161 260 Q 160 257 163 258 Q 168 252 170 243 L 170 226 L 169 223 L 165 214 L 151 197 L 148 186 L 148 173 L 149 172 Q 150 164 148 165 Z M 252 190 L 252 193 L 259 202 L 261 209 L 260 225 Q 259 232 254 236 L 254 238 L 260 235 Q 267 230 270 220 Q 272 207 267 202 L 255 192 Q 256 189 252 190 Z M 75 215 L 69 219 L 60 232 L 57 244 L 58 255 L 63 265 Q 67 271 76 271 L 70 257 Q 68 231 77 217 L 75 215 Z M 131 224 L 129 226 L 131 235 L 131 270 Q 129 279 124 285 L 126 287 L 131 281 L 135 273 L 141 256 L 141 244 L 139 236 L 135 228 L 131 224 Z " /><path fill="rgb(211,223,237)" stroke="rgb(211,223,237)" stroke-width="1" opacity="1" d="M 25.5 252 L 27 260.5 L 33 275.5 L 33 287.5 L 30.5 286 Q 25.5 286.5 25 282.5 L 25.5 252 Z " /><path fill="rgb(36,67,95)" stroke="rgb(36,67,95)" stroke-width="1" opacity="1" d="M 169.5 1 Q 175.8 0.2 178.5 3 L 346 99.5 L 344 100.5 L 346 102.5 L 346 301 L 283.5 335 L 201.5 386 L 180.5 397 Q 175.2 396.2 173.5 399 Q 172.3 395.8 166.5 397 L 147.5 386 L 12.5 306 L 5.5 299 L 0 298 L 0 128.5 Q 2.8 126.7 1 120.5 L 3 116.5 L 0 110.5 L 0 101 L 169.5 1 Z M 172 28 L 107 67 L 104 68 Q 101 67 102 70 L 31 111 L 29 111 L 26 113 L 24 115 L 23 285 L 101 329 Q 103 328 102 331 L 111 334 L 153 359 L 159 361 L 167 367 L 173 370 L 177 370 L 179 370 Q 178 367 182 368 L 182 367 L 184 367 L 186 366 L 185 365 L 187 365 L 187 364 L 189 364 L 189 363 Q 190 360 192 362 L 192 361 L 194 361 L 194 360 L 196 360 L 198 359 L 198 357 L 200 358 L 199 357 L 201 357 L 203 356 L 202 355 L 204 355 L 204 354 L 206 354 L 206 353 Q 207 350 209 352 L 209 350 L 218 347 L 295 299 L 320 286 L 322 284 L 322 116 L 316 113 L 288 95 L 201 45 L 178 30 L 172 28 Z " /><path fill="rgb(0,93,163)" stroke="rgb(0,93,163)" stroke-width="1" opacity="1" d="M 163.5 42 L 165 44.5 L 163 46.5 L 161 53.5 L 159 77.5 L 162 85.5 L 170 97.5 L 171 107.5 L 166 121.5 L 158.5 130 Q 155.2 131.1 156 128.5 Q 163.5 123 161 107.5 L 151 93.5 L 149 84.5 L 149 75.5 L 152 59.5 L 161.5 44 Q 164 44.7 163.5 42 Z " /><path fill="rgb(0,93,163)" stroke="rgb(0,93,163)" stroke-width="1" opacity="1" d="M 111.5 65 L 112 66.5 Q 102.6 75.6 104 95.5 L 117 127.5 L 118 141.5 L 119 142.5 L 119 152.5 L 117 158.5 L 117 166.5 L 115 172.5 L 115 178.5 L 111 190.5 L 111 207.5 L 113 211.5 Q 111.5 214.5 110 211.5 L 106 200.5 L 106 188.5 Q 109.1 183.1 108 173.5 L 107 172.5 L 106 157.5 L 85 113.5 L 84 96.5 L 85 95.5 L 86 82.5 L 89.5 78 L 111.5 65 Z " /><path fill="rgb(0,93,163)" stroke="rgb(0,93,163)" stroke-width="1" opacity="1" d="M 190.5 96 L 194 98 L 197 104.5 L 197 108.5 L 200 116.5 L 200 139.5 L 199 140.5 L 198 152.5 L 195 158.5 L 189 180.5 L 189 191.5 L 191 197.5 L 198 207.5 L 202 218.5 L 203 235.5 L 199 248 Q 196.3 249.1 197 246.5 L 198 244.5 L 197 242.5 L 198 241.5 L 198 231.5 L 191 217.5 L 174 197.5 Q 169.4 189.6 169 177.5 L 171 168.5 L 190 133.5 L 193 120.5 L 193 107.5 L 190 98.5 L 190.5 96 Z " /><path fill="rgb(0,93,163)" stroke="rgb(0,93,163)" stroke-width="1" opacity="1" d="M 297.5 104 L 314 113.5 L 308 118.5 L 302 126.5 L 297 138.5 L 295 147.5 L 295 156.5 L 299 168.5 L 302 173 Q 298.2 174.5 299 171.5 Q 283 160 286 129.5 L 290 115.5 L 297.5 104 Z " /><path fill="rgb(0,93,163)" stroke="rgb(0,93,163)" stroke-width="1" opacity="1" d="M 42.5 105 L 45 105.5 Q 41.1 113.1 43 126.5 L 48 144.5 L 46.5 144 Q 44.3 144.8 45 142.5 L 41 139.5 Q 34.4 133.1 31 123.5 L 29 113.5 L 42.5 105 Z " /><path fill="rgb(0,93,163)" stroke="rgb(0,93,163)" stroke-width="1" opacity="1" d="M 253.5 190 L 255.5 193 L 266 201.5 L 270 210.5 L 270 216.5 Q 267.6 229.1 258.5 235 L 254 237 Q 252.9 234.3 255.5 235 Q 263.3 225.3 261 205.5 Q 258.4 196.6 252 191.5 L 253.5 190 Z " /><path fill="rgb(0,93,163)" stroke="rgb(0,93,163)" stroke-width="1" opacity="1" d="M 73.5 216 Q 76.8 214.9 76 217.5 L 71 229.5 L 69 251.5 L 72 265.5 L 76 269.5 L 73.5 271 L 63 263.5 L 58 251.5 L 58 240.5 L 61 230.5 L 68 220 L 73.5 216 Z " /><path fill="rgb(0,93,163)" stroke="rgb(0,93,163)" stroke-width="1" opacity="1" d="M 130 225 L 134 227.5 L 140 241.5 L 140 256.5 Q 135.5 274 125.5 286 L 124 285.5 L 125 283 Q 128 284.3 127 280.5 L 131 271.5 Q 129.3 265.2 132 263.5 L 132 240.5 L 131 239.5 L 131 230.5 L 130 225 Z " /><path fill="rgb(0,93,163)" stroke="rgb(0,93,163)" stroke-width="1" opacity="1" d="M 296.5 225 Q 299.8 226.8 296 228.5 L 290 245.5 L 290 247.5 L 291 264.5 L 299 277.5 Q 301.9 282.1 301 290.5 L 300 293.5 L 300.5 295 L 298.5 295 L 286.5 303 L 286 300.5 L 285 294.5 L 277 281.5 L 276 270.5 L 281 251.5 L 293 228 Q 295.7 229.1 295 226.5 L 296.5 225 Z " /><path fill="rgb(0,93,163)" stroke="rgb(0,93,163)" stroke-width="1" opacity="1" d="M 192 266 L 196.5 267 L 213 281.5 L 219 297.5 Q 217.5 303 220 304.5 L 220 324.5 L 219 325.5 L 218 336.5 L 215 346 L 210 347 Q 211.1 349.7 208.5 349 L 176.5 369 L 173 369 L 174.5 366 L 189 353.5 Q 199.2 341.7 205 325.5 L 209 308.5 L 209 293.5 Q 204.6 278.4 194.5 269 L 192 267.5 L 192 266 Z " /><path fill="rgb(0,93,163)" stroke="rgb(0,93,163)" stroke-width="1" opacity="1" d="M 156 277 Q 159 275.8 158 279.5 L 154 289.5 L 153 304.5 L 157 316.5 L 167 336.5 L 168 350.5 L 161.5 361 L 159.5 361 L 154 356.5 L 153 342.5 Q 145.7 331.8 142 317.5 L 142 304.5 Q 146.1 289.6 154.5 279 Q 157.1 279.7 156 277 Z " /></svg>