<svg width="346" height="400" version="1.1" xmlns="http://www.w3.org/2000/svg" desc="Created with imagetracer.js version 1.2.6" ><path fill="rgb(0,0,0)" stroke="rgb(0,0,0)" stroke-width="1" opacity="0" d="M 0 0 L 166 0.5 L 118.5 29 L 116.5 29 L 104 35.5 Q 106.3 36.8 103.5 38 L 101.5 39 L 99.5 38 L 98.5 41 L 0.5 99 L 0 90.5 L 0 88.5 L 0 0 Z " /><path fill="rgb(0,0,0)" stroke="rgb(0,0,0)" stroke-width="1" opacity="0" d="M 177.5 0 L 346 0 L 346 98 L 217.5 23 L 183.5 6 L 177.5 0 Z " /><path fill="rgb(0,0,0)" stroke="rgb(0,0,0)" stroke-width="1" opacity="0" d="M 0 300 L 52.5 333 L 167 399.5 L 0 400 L 0 300 Z " /><path fill="rgb(0,0,0)" stroke="rgb(0,0,0)" stroke-width="1" opacity="0" d="M 345.5 303 L 346 400 L 180 399.5 L 209.5 384 L 298.5 329 L 345.5 303 Z " /><path fill="rgb(164,136,106)" stroke="rgb(164,136,106)" stroke-width="1" opacity="0.043137254901960784" d="M 166.5 0 L 168 0.5 L 0.5 100 L 1.5 98 L 104 37.5 L 103.5 36 L 105.5 36 L 166.5 0 Z " /><path fill="rgb(164,136,106)" stroke="rgb(164,136,106)" stroke-width="1" opacity="0.043137254901960784" d="M 176.5 0 L 182 4.5 L 180.5 4 L 176.5 0 Z " /><path fill="rgb(164,136,106)" stroke="rgb(164,136,106)" stroke-width="1" opacity="0.043137254901960784" d="M 186.5 7 L 231.5 31 L 344 97.5 L 342.5 97 L 229.5 31 L 186.5 8 L 186.5 7 Z " /><path fill="rgb(164,136,106)" stroke="rgb(164,136,106)" stroke-width="1" opacity="0.043137254901960784" d="M 2.5 300 L 29.5 318 L 165.5 398 L 167.5 399 L 179.5 399 L 219.5 377 L 289.5 333 L 345.5 302 L 343.5 305 L 298.5 329 L 236.5 368 L 182.5 399 Q 177 401.5 167.5 400 L 37.5 324 L 5.5 304 L 2.5 300 Z " /><path fill="rgb(92,94,96)" stroke="rgb(92,94,96)" stroke-width="1" opacity="0.9764705882352941" d="M 168.5 0 Q 176.3 -1.8 178 2.5 L 176.5 2 L 169.5 1 L 0.5 101 L 1.5 99 L 168.5 0 Z " /><path fill="rgb(92,94,96)" stroke="rgb(92,94,96)" stroke-width="1" opacity="0.9764705882352941" d="M 191.5 10 L 192.5 12 L 191.5 10 Z " /><path fill="rgb(92,94,96)" stroke="rgb(92,94,96)" stroke-width="1" opacity="0.9764705882352941" d="M 198.5 14 L 199.5 16 L 198.5 14 Z " /><path fill="rgb(92,94,96)" stroke="rgb(92,94,96)" stroke-width="1" opacity="0.9764705882352941" d="M 205.5 18 L 209 20.5 L 207.5 20 L 205.5 18 Z " /><path fill="rgb(92,94,96)" stroke="rgb(92,94,96)" stroke-width="1" opacity="0.9764705882352941" d="M 214.5 23 L 260 49.5 L 258.5 49 L 215.5 25 L 214.5 23 Z " /><path fill="rgb(92,94,96)" stroke="rgb(92,94,96)" stroke-width="1" opacity="0.9764705882352941" d="M 261.5 50 L 267 53.5 L 265.5 53 Q 261.5 52.5 261.5 50 Z " /><path fill="rgb(92,94,96)" stroke="rgb(92,94,96)" stroke-width="1" opacity="0.9764705882352941" d="M 268.5 54 L 272 56.5 L 270.5 56 L 268.5 54 Z " /><path fill="rgb(92,94,96)" stroke="rgb(92,94,96)" stroke-width="1" opacity="0.9764705882352941" d="M 275.5 58 L 279 60.5 L 277.5 60 L 275.5 58 Z " /><path fill="rgb(92,94,96)" stroke="rgb(92,94,96)" stroke-width="1" opacity="0.9764705882352941" d="M 280.5 61 L 286 64.5 L 284.5 64 Q 280.5 63.5 280.5 61 Z " /><path fill="rgb(92,94,96)" stroke="rgb(92,94,96)" stroke-width="1" opacity="0.9764705882352941" d="M 287.5 65 L 291 67.5 L 289.5 67 L 287.5 65 Z " /><path fill="rgb(92,94,96)" stroke="rgb(92,94,96)" stroke-width="1" opacity="0.9764705882352941" d="M 294.5 69 L 298 71.5 L 296.5 71 L 294.5 69 Z " /><path fill="rgb(92,94,96)" stroke="rgb(92,94,96)" stroke-width="1" opacity="0.9764705882352941" d="M 301.5 73 L 302.5 75 L 301.5 73 Z " /><path fill="rgb(92,94,96)" stroke="rgb(92,94,96)" stroke-width="1" opacity="0.9764705882352941" d="M 308.5 77 L 309.5 79 L 308.5 77 Z " /><path fill="rgb(92,94,96)" stroke="rgb(92,94,96)" stroke-width="1" opacity="0.9764705882352941" d="M 313.5 80 L 317 82.5 L 315.5 82 L 313.5 80 Z " /><path fill="rgb(92,94,96)" stroke="rgb(92,94,96)" stroke-width="1" opacity="0.9764705882352941" d="M 322.5 85 L 323.5 87 L 322.5 85 Z " /><path fill="rgb(92,94,96)" stroke="rgb(92,94,96)" stroke-width="1" opacity="0.9764705882352941" d="M 327.5 88 L 328.5 90 L 327.5 88 Z " /><path fill="rgb(92,94,96)" stroke="rgb(92,94,96)" stroke-width="1" opacity="0.9764705882352941" d="M 344.5 100 Q 346.8 99.3 346 101.5 L 344.5 100 Z " /><path fill="rgb(92,94,96)" stroke="rgb(92,94,96)" stroke-width="1" opacity="0.9764705882352941" d="M 0 298 L 4.5 299 L 15.5 308 L 87.5 351 L 113.5 365 L 166.5 397 Q 171 396 172 398.5 L 167.5 399 L 29.5 318 L 7.5 304 L 3.5 300 L 0 300 L 0 298 Z " /><path fill="rgb(92,94,96)" stroke="rgb(92,94,96)" stroke-width="1" opacity="0.9764705882352941" d="M 344.5 301 L 346 301.5 L 289.5 333 L 207.5 384 L 179.5 399 L 174.5 399 L 174.5 398 L 181.5 397 L 199.5 386 L 201.5 386 L 275.5 340 L 344.5 301 Z " /><path fill="rgb(230,230,231)" stroke="rgb(230,230,231)" stroke-width="1" opacity="0.996078431372549" d="M 170.5 30 L 169.5 32 L 170.5 30 Z " /><path fill="rgb(230,230,231)" stroke="rgb(230,230,231)" stroke-width="1" opacity="0.996078431372549" d="M 176.5 31 L 177.5 33 L 176.5 31 Z " /><path fill="rgb(230,230,231)" stroke="rgb(230,230,231)" stroke-width="1" opacity="0.996078431372549" d="M 163.5 34 L 163 35.5 L 162.5 40 L 162 35.5 L 163.5 34 Z " /><path fill="rgb(230,230,231)" stroke="rgb(230,230,231)" stroke-width="1" opacity="0.996078431372549" d="M 181.5 34 L 185 36.5 L 183.5 36 L 181.5 34 Z " /><path fill="rgb(230,230,231)" stroke="rgb(230,230,231)" stroke-width="1" opacity="0.996078431372549" d="M 144.5 45 L 143.5 47 L 144.5 45 Z " /><path fill="rgb(230,230,231)" stroke="rgb(230,230,231)" stroke-width="1" opacity="0.996078431372549" d="M 139.5 48 L 138.5 50 L 139.5 48 Z " /><path fill="rgb(230,230,231)" stroke="rgb(230,230,231)" stroke-width="1" opacity="0.996078431372549" d="M 210.5 51 L 214 53.5 L 212.5 53 L 210.5 51 Z " /><path fill="rgb(230,230,231)" stroke="rgb(230,230,231)" stroke-width="1" opacity="0.996078431372549" d="M 132.5 52 L 131.5 54 L 132.5 52 Z " /><path fill="rgb(230,230,231)" stroke="rgb(230,230,231)" stroke-width="1" opacity="0.996078431372549" d="M 215.5 54 L 219 56.5 L 217.5 56 L 215.5 54 Z " /><path fill="rgb(230,230,231)" stroke="rgb(230,230,231)" stroke-width="1" opacity="0.996078431372549" d="M 127.5 55 L 126.5 57 L 124.5 58 L 125.5 56 L 127.5 55 Z " /><path fill="rgb(230,230,231)" stroke="rgb(230,230,231)" stroke-width="1" opacity="0.996078431372549" d="M 222.5 58 L 223.5 60 L 222.5 58 Z " /><path fill="rgb(230,230,231)" stroke="rgb(230,230,231)" stroke-width="1" opacity="0.996078431372549" d="M 120.5 59 L 119.5 61 L 120.5 59 Z " /><path fill="rgb(230,230,231)" stroke="rgb(230,230,231)" stroke-width="1" opacity="0.996078431372549" d="M 162.5 61 L 163 67.5 L 162 67.5 L 162.5 61 Z " /><path fill="rgb(230,230,231)" stroke="rgb(230,230,231)" stroke-width="1" opacity="0.996078431372549" d="M 227.5 61 L 231 63.5 L 229.5 63 L 227.5 61 Z " /><path fill="rgb(230,230,231)" stroke="rgb(230,230,231)" stroke-width="1" opacity="0.996078431372549" d="M 113.5 63 L 112.5 65 L 113.5 63 Z " /><path fill="rgb(230,230,231)" stroke="rgb(230,230,231)" stroke-width="1" opacity="0.996078431372549" d="M 108.5 66 L 107.5 68 L 108.5 66 Z " /><path fill="rgb(230,230,231)" stroke="rgb(230,230,231)" stroke-width="1" opacity="0.996078431372549" d="M 171.5 67 L 172 77.5 L 171 77.5 L 171.5 67 Z " /><path fill="rgb(230,230,231)" stroke="rgb(230,230,231)" stroke-width="1" opacity="0.996078431372549" d="M 103.5 69 L 102.5 71 L 100.5 72 L 101.5 70 L 103.5 69 Z " /><path fill="rgb(230,230,231)" stroke="rgb(230,230,231)" stroke-width="1" opacity="0.996078431372549" d="M 150.5 69 L 151.5 71 L 150.5 69 Z " /><path fill="rgb(230,230,231)" stroke="rgb(230,230,231)" stroke-width="1" opacity="0.996078431372549" d="M 161.5 70 L 160.5 72 L 161.5 70 Z " /><path fill="rgb(230,230,231)" stroke="rgb(230,230,231)" stroke-width="1" opacity="0.996078431372549" d="M 232.5 71 L 233 73.5 L 232 73.5 L 232.5 71 Z " /><path fill="rgb(230,230,231)" stroke="rgb(230,230,231)" stroke-width="1" opacity="0.996078431372549" d="M 156.5 72 L 159 72.5 L 156.5 73 L 156.5 72 Z " /><path fill="rgb(230,230,231)" stroke="rgb(230,230,231)" stroke-width="1" opacity="0.996078431372549" d="M 96.5 73 L 95.5 75 L 96.5 73 Z " /><path fill="rgb(230,230,231)" stroke="rgb(230,230,231)" stroke-width="1" opacity="0.996078431372549" d="M 131.5 74 L 130.5 76 L 131.5 74 Z " /><path fill="rgb(230,230,231)" stroke="rgb(230,230,231)" stroke-width="1" opacity="0.996078431372549" d="M 120.5 75 L 121 77.5 L 120 77.5 L 120.5 75 Z " /><path fill="rgb(230,230,231)" stroke="rgb(230,230,231)" stroke-width="1" opacity="0.996078431372549" d="M 127.5 78 L 126.5 80 L 127.5 78 Z " /><path fill="rgb(230,230,231)" stroke="rgb(230,230,231)" stroke-width="1" opacity="0.996078431372549" d="M 263.5 82 L 264.5 84 L 263.5 82 Z " /><path fill="rgb(230,230,231)" stroke="rgb(230,230,231)" stroke-width="1" opacity="0.996078431372549" d="M 120.5 83 L 121 87.5 L 120 87.5 L 120.5 83 Z " /><path fill="rgb(230,230,231)" stroke="rgb(230,230,231)" stroke-width="1" opacity="0.996078431372549" d="M 147.5 85 L 148 91.5 L 147 91.5 L 147.5 85 Z " /><path fill="rgb(230,230,231)" stroke="rgb(230,230,231)" stroke-width="1" opacity="0.996078431372549" d="M 268.5 85 L 269.5 87 L 268.5 85 Z " /><path fill="rgb(230,230,231)" stroke="rgb(230,230,231)" stroke-width="1" opacity="0.996078431372549" d="M 273.5 88 L 277 90.5 L 275.5 90 L 273.5 88 Z " /><path fill="rgb(230,230,231)" stroke="rgb(230,230,231)" stroke-width="1" opacity="0.996078431372549" d="M 236.5 92 L 237.5 94 L 236.5 92 Z " /><path fill="rgb(230,230,231)" stroke="rgb(230,230,231)" stroke-width="1" opacity="0.996078431372549" d="M 280.5 92 L 281.5 94 L 280.5 92 Z " /><path fill="rgb(230,230,231)" stroke="rgb(230,230,231)" stroke-width="1" opacity="0.996078431372549" d="M 285.5 95 L 286.5 97 L 285.5 95 Z " /><path fill="rgb(230,230,231)" stroke="rgb(230,230,231)" stroke-width="1" opacity="0.996078431372549" d="M 270.5 99 L 274 99.5 L 270.5 100 L 270.5 99 Z " /><path fill="rgb(230,230,231)" stroke="rgb(230,230,231)" stroke-width="1" opacity="0.996078431372549" d="M 292.5 99 L 293.5 101 L 292.5 99 Z " /><path fill="rgb(230,230,231)" stroke="rgb(230,230,231)" stroke-width="1" opacity="0.996078431372549" d="M 277.5 100 L 280 100.5 L 277.5 101 L 277.5 100 Z " /><path fill="rgb(230,230,231)" stroke="rgb(230,230,231)" stroke-width="1" opacity="0.996078431372549" d="M 48.5 101 L 50 101.5 L 50 108.5 L 49 108.5 Q 49.5 102.5 48.5 101 Z " /><path fill="rgb(230,230,231)" stroke="rgb(230,230,231)" stroke-width="1" opacity="0.996078431372549" d="M 295.5 101 L 299 103.5 L 297.5 103 L 295.5 101 Z " /><path fill="rgb(230,230,231)" stroke="rgb(230,230,231)" stroke-width="1" opacity="0.996078431372549" d="M 46.5 102 L 45.5 104 L 43.5 105 L 44.5 103 L 46.5 102 Z " /><path fill="rgb(230,230,231)" stroke="rgb(230,230,231)" stroke-width="1" opacity="0.996078431372549" d="M 284.5 102 L 285.5 104 L 284.5 102 Z " /><path fill="rgb(230,230,231)" stroke="rgb(230,230,231)" stroke-width="1" opacity="0.996078431372549" d="M 302.5 105 L 306 107.5 L 304.5 107 L 302.5 105 Z " /><path fill="rgb(230,230,231)" stroke="rgb(230,230,231)" stroke-width="1" opacity="0.996078431372549" d="M 39.5 106 L 38.5 108 L 39.5 106 Z " /><path fill="rgb(230,230,231)" stroke="rgb(230,230,231)" stroke-width="1" opacity="0.996078431372549" d="M 261.5 108 L 262 110.5 L 261 110.5 L 261.5 108 Z " /><path fill="rgb(230,230,231)" stroke="rgb(230,230,231)" stroke-width="1" opacity="0.996078431372549" d="M 34.5 109 L 33.5 111 L 31.5 112 L 32.5 110 L 34.5 109 Z " /><path fill="rgb(230,230,231)" stroke="rgb(230,230,231)" stroke-width="1" opacity="0.996078431372549" d="M 309.5 109 L 310.5 111 L 309.5 109 Z " /><path fill="rgb(230,230,231)" stroke="rgb(230,230,231)" stroke-width="1" opacity="0.996078431372549" d="M 139.5 110 L 138.5 112 L 139.5 110 Z " /><path fill="rgb(230,230,231)" stroke="rgb(230,230,231)" stroke-width="1" opacity="0.996078431372549" d="M 314.5 112 L 315.5 114 L 314.5 112 Z " /><path fill="rgb(230,230,231)" stroke="rgb(230,230,231)" stroke-width="1" opacity="0.996078431372549" d="M 27.5 113 L 26 115.5 L 25.5 124 L 25 115.5 L 27.5 113 Z " /><path fill="rgb(230,230,231)" stroke="rgb(230,230,231)" stroke-width="1" opacity="0.996078431372549" d="M 260.5 116 L 261 118.5 L 260 118.5 L 260.5 116 Z " /><path fill="rgb(230,230,231)" stroke="rgb(230,230,231)" stroke-width="1" opacity="0.996078431372549" d="M 320.5 120 L 321 189.5 L 316 193.5 L 320 189.5 L 320.5 120 Z " /><path fill="rgb(230,230,231)" stroke="rgb(230,230,231)" stroke-width="1" opacity="0.996078431372549" d="M 93.5 123 L 94 130.5 L 93 130.5 L 93.5 123 Z " /><path fill="rgb(230,230,231)" stroke="rgb(230,230,231)" stroke-width="1" opacity="0.996078431372549" d="M 188.5 126 L 189.5 128 L 188.5 126 Z " /><path fill="rgb(230,230,231)" stroke="rgb(230,230,231)" stroke-width="1" opacity="0.996078431372549" d="M 60.5 130 L 65.5 136 L 60.5 130 Z " /><path fill="rgb(230,230,231)" stroke="rgb(230,230,231)" stroke-width="1" opacity="0.996078431372549" d="M 180.5 133 L 181 141.5 L 180 141.5 L 180.5 133 Z " /><path fill="rgb(230,230,231)" stroke="rgb(230,230,231)" stroke-width="1" opacity="0.996078431372549" d="M 297.5 134 L 298 137.5 L 297 137.5 L 297.5 134 Z " /><path fill="rgb(230,230,231)" stroke="rgb(230,230,231)" stroke-width="1" opacity="0.996078431372549" d="M 43.5 135 L 44.5 137 L 43.5 135 Z " /><path fill="rgb(230,230,231)" stroke="rgb(230,230,231)" stroke-width="1" opacity="0.996078431372549" d="M 191.5 135 L 192 137.5 L 191 137.5 L 191.5 135 Z " /><path fill="rgb(230,230,231)" stroke="rgb(230,230,231)" stroke-width="1" opacity="0.996078431372549" d="M 147.5 138 L 153 138.5 L 147.5 139 L 147.5 138 Z " /><path fill="rgb(230,230,231)" stroke="rgb(230,230,231)" stroke-width="1" opacity="0.996078431372549" d="M 158.5 138 L 162 138.5 L 158.5 139 L 158.5 138 Z " /><path fill="rgb(230,230,231)" stroke="rgb(230,230,231)" stroke-width="1" opacity="0.996078431372549" d="M 131.5 143 L 129.5 146 L 131.5 143 Z " /><path fill="rgb(230,230,231)" stroke="rgb(230,230,231)" stroke-width="1" opacity="0.996078431372549" d="M 180.5 143 L 181 146.5 L 180 146.5 L 180.5 143 Z " /><path fill="rgb(230,230,231)" stroke="rgb(230,230,231)" stroke-width="1" opacity="0.996078431372549" d="M 192.5 151 L 193 153.5 L 192 153.5 L 192.5 151 Z " /><path fill="rgb(230,230,231)" stroke="rgb(230,230,231)" stroke-width="1" opacity="0.996078431372549" d="M 215.5 158 L 216 160.5 L 215 160.5 L 215.5 158 Z " /><path fill="rgb(230,230,231)" stroke="rgb(230,230,231)" stroke-width="1" opacity="0.996078431372549" d="M 181.5 163 L 182 165.5 L 181 165.5 L 181.5 163 Z " /><path fill="rgb(230,230,231)" stroke="rgb(230,230,231)" stroke-width="1" opacity="0.996078431372549" d="M 176.5 164 L 177 166.5 L 176 166.5 L 176.5 164 Z " /><path fill="rgb(230,230,231)" stroke="rgb(230,230,231)" stroke-width="1" opacity="0.996078431372549" d="M 56.5 165 L 57 186.5 L 56 186.5 L 56.5 165 Z " /><path fill="rgb(230,230,231)" stroke="rgb(230,230,231)" stroke-width="1" opacity="0.996078431372549" d="M 121.5 168 L 122 171.5 L 121 171.5 L 121.5 168 Z " /><path fill="rgb(230,230,231)" stroke="rgb(230,230,231)" stroke-width="1" opacity="0.996078431372549" d="M 277.5 169 L 281 169.5 L 277.5 170 L 277.5 169 Z " /><path fill="rgb(230,230,231)" stroke="rgb(230,230,231)" stroke-width="1" opacity="0.996078431372549" d="M 191.5 171 L 192 173.5 L 191 173.5 L 191.5 171 Z " /><path fill="rgb(230,230,231)" stroke="rgb(230,230,231)" stroke-width="1" opacity="0.996078431372549" d="M 92.5 174 L 93 176.5 L 92 176.5 L 92.5 174 Z " /><path fill="rgb(230,230,231)" stroke="rgb(230,230,231)" stroke-width="1" opacity="0.996078431372549" d="M 290.5 177 L 296 177.5 L 290.5 178 L 290.5 177 Z " /><path fill="rgb(230,230,231)" stroke="rgb(230,230,231)" stroke-width="1" opacity="0.996078431372549" d="M 92.5 178 L 93 180.5 L 92 180.5 L 92.5 178 Z " /><path fill="rgb(230,230,231)" stroke="rgb(230,230,231)" stroke-width="1" opacity="0.996078431372549" d="M 178.5 178 L 179 184.5 L 178 184.5 L 178.5 178 Z " /><path fill="rgb(230,230,231)" stroke="rgb(230,230,231)" stroke-width="1" opacity="0.996078431372549" d="M 197.5 180 L 198.5 182 L 197.5 180 Z " /><path fill="rgb(230,230,231)" stroke="rgb(230,230,231)" stroke-width="1" opacity="0.996078431372549" d="M 303.5 180 L 304.5 182 L 303.5 180 Z " /><path fill="rgb(230,230,231)" stroke="rgb(230,230,231)" stroke-width="1" opacity="0.996078431372549" d="M 121.5 187 L 122 189.5 L 121 189.5 L 121.5 187 Z " /><path fill="rgb(230,230,231)" stroke="rgb(230,230,231)" stroke-width="1" opacity="0.996078431372549" d="M 103.5 192 L 107 192.5 L 103.5 193 L 103.5 192 Z " /><path fill="rgb(230,230,231)" stroke="rgb(230,230,231)" stroke-width="1" opacity="0.996078431372549" d="M 235.5 193 L 240 193.5 L 235.5 194 L 235.5 193 Z " /><path fill="rgb(230,230,231)" stroke="rgb(230,230,231)" stroke-width="1" opacity="0.996078431372549" d="M 247.5 196 L 249.5 199 L 247.5 196 Z " /><path fill="rgb(230,230,231)" stroke="rgb(230,230,231)" stroke-width="1" opacity="0.996078431372549" d="M 276.5 197 L 277 204.5 L 276 204.5 L 276.5 197 Z " /><path fill="rgb(230,230,231)" stroke="rgb(230,230,231)" stroke-width="1" opacity="0.996078431372549" d="M 211.5 200 L 210.5 202 L 211.5 200 Z " /><path fill="rgb(230,230,231)" stroke="rgb(230,230,231)" stroke-width="1" opacity="0.996078431372549" d="M 208.5 203 L 207.5 205 L 208.5 203 Z " /><path fill="rgb(230,230,231)" stroke="rgb(230,230,231)" stroke-width="1" opacity="0.996078431372549" d="M 89.5 217 L 90 219.5 L 89 219.5 L 89.5 217 Z " /><path fill="rgb(230,230,231)" stroke="rgb(230,230,231)" stroke-width="1" opacity="0.996078431372549" d="M 132.5 221 L 134.5 224 L 132.5 221 Z " /><path fill="rgb(230,230,231)" stroke="rgb(230,230,231)" stroke-width="1" opacity="0.996078431372549" d="M 197.5 224 L 198 226.5 L 197 226.5 L 197.5 224 Z " /><path fill="rgb(230,230,231)" stroke="rgb(230,230,231)" stroke-width="1" opacity="0.996078431372549" d="M 33.5 225 L 32.5 227 L 33.5 225 Z " /><path fill="rgb(230,230,231)" stroke="rgb(230,230,231)" stroke-width="1" opacity="0.996078431372549" d="M 258.5 229 L 259 232.5 L 258 232.5 L 258.5 229 Z " /><path fill="rgb(230,230,231)" stroke="rgb(230,230,231)" stroke-width="1" opacity="0.996078431372549" d="M 196.5 237 L 197 243.5 L 196 243.5 L 196.5 237 Z " /><path fill="rgb(230,230,231)" stroke="rgb(230,230,231)" stroke-width="1" opacity="0.996078431372549" d="M 24.5 238 L 25 245.5 L 24 245.5 L 24.5 238 Z " /><path fill="rgb(230,230,231)" stroke="rgb(230,230,231)" stroke-width="1" opacity="0.996078431372549" d="M 156.5 242 L 160 242.5 L 156.5 243 L 156.5 242 Z " /><path fill="rgb(230,230,231)" stroke="rgb(230,230,231)" stroke-width="1" opacity="0.996078431372549" d="M 65.5 245 L 68 245.5 L 65.5 246 L 65.5 245 Z " /><path fill="rgb(230,230,231)" stroke="rgb(230,230,231)" stroke-width="1" opacity="0.996078431372549" d="M 94.5 246 L 99 246.5 L 94.5 247 L 94.5 246 Z " /><path fill="rgb(230,230,231)" stroke="rgb(230,230,231)" stroke-width="1" opacity="0.996078431372549" d="M 181.5 247 L 182 249.5 L 181 249.5 L 181.5 247 Z " /><path fill="rgb(230,230,231)" stroke="rgb(230,230,231)" stroke-width="1" opacity="0.996078431372549" d="M 258.5 247 L 259 249.5 L 258 249.5 L 258.5 247 Z " /><path fill="rgb(230,230,231)" stroke="rgb(230,230,231)" stroke-width="1" opacity="0.996078431372549" d="M 320.5 247 L 321 262.5 L 320 262.5 L 319 260.5 L 320 259.5 L 320.5 247 Z " /><path fill="rgb(230,230,231)" stroke="rgb(230,230,231)" stroke-width="1" opacity="0.996078431372549" d="M 108.5 248 L 111.5 252 L 108.5 248 Z " /><path fill="rgb(230,230,231)" stroke="rgb(230,230,231)" stroke-width="1" opacity="0.996078431372549" d="M 165.5 251 L 166 263.5 L 165 263.5 L 165.5 251 Z " /><path fill="rgb(230,230,231)" stroke="rgb(230,230,231)" stroke-width="1" opacity="0.996078431372549" d="M 314.5 253 L 316.5 256 L 314.5 253 Z " /><path fill="rgb(230,230,231)" stroke="rgb(230,230,231)" stroke-width="1" opacity="0.996078431372549" d="M 161.5 264 L 162 286.5 L 161 286.5 L 161.5 264 Z " /><path fill="rgb(230,230,231)" stroke="rgb(230,230,231)" stroke-width="1" opacity="0.996078431372549" d="M 151.5 265 L 152 274.5 L 151 274.5 L 151.5 265 Z " /><path fill="rgb(230,230,231)" stroke="rgb(230,230,231)" stroke-width="1" opacity="0.996078431372549" d="M 168.5 269 L 169.5 271 L 168.5 269 Z " /><path fill="rgb(230,230,231)" stroke="rgb(230,230,231)" stroke-width="1" opacity="0.996078431372549" d="M 67.5 275 L 68 277.5 L 67 277.5 L 67.5 275 Z " /><path fill="rgb(230,230,231)" stroke="rgb(230,230,231)" stroke-width="1" opacity="0.996078431372549" d="M 204.5 278 L 207.5 282 L 204.5 278 Z " /><path fill="rgb(230,230,231)" stroke="rgb(230,230,231)" stroke-width="1" opacity="0.996078431372549" d="M 243.5 284 L 242.5 286 L 243.5 284 Z " /><path fill="rgb(230,230,231)" stroke="rgb(230,230,231)" stroke-width="1" opacity="0.996078431372549" d="M 199.5 286 L 200.5 288 L 199.5 286 Z " /><path fill="rgb(230,230,231)" stroke="rgb(230,230,231)" stroke-width="1" opacity="0.996078431372549" d="M 68.5 287 L 69 292.5 L 68 292.5 L 68.5 287 Z " /><path fill="rgb(230,230,231)" stroke="rgb(230,230,231)" stroke-width="1" opacity="0.996078431372549" d="M 76.5 293 L 77 298.5 L 76 298.5 L 76.5 293 Z " /><path fill="rgb(230,230,231)" stroke="rgb(230,230,231)" stroke-width="1" opacity="0.996078431372549" d="M 153.5 293 L 157 293.5 L 153.5 294 L 153.5 293 Z " /><path fill="rgb(230,230,231)" stroke="rgb(230,230,231)" stroke-width="1" opacity="0.996078431372549" d="M 202.5 293 L 203 299.5 L 202 299.5 L 202.5 293 Z " /><path fill="rgb(230,230,231)" stroke="rgb(230,230,231)" stroke-width="1" opacity="0.996078431372549" d="M 71.5 310 L 75 312.5 L 73.5 312 L 71.5 310 Z " /><path fill="rgb(230,230,231)" stroke="rgb(230,230,231)" stroke-width="1" opacity="0.996078431372549" d="M 79.5 313 L 79.5 315 L 81 315.5 L 79.5 316 Q 76.5 314.5 79.5 313 Z " /><path fill="rgb(230,230,231)" stroke="rgb(230,230,231)" stroke-width="1" opacity="0.996078431372549" d="M 238.5 322 L 239 326.5 L 238 326.5 L 238.5 322 Z " /><path fill="rgb(230,230,231)" stroke="rgb(230,230,231)" stroke-width="1" opacity="0.996078431372549" d="M 247.5 326 L 246.5 328 L 247.5 326 Z " /><path fill="rgb(230,230,231)" stroke="rgb(230,230,231)" stroke-width="1" opacity="0.996078431372549" d="M 120.5 327 L 121 329.5 L 120 329.5 L 120.5 327 Z " /><path fill="rgb(230,230,231)" stroke="rgb(230,230,231)" stroke-width="1" opacity="0.996078431372549" d="M 191.5 328 L 194.5 332 L 191.5 328 Z " /><path fill="rgb(230,230,231)" stroke="rgb(230,230,231)" stroke-width="1" opacity="0.996078431372549" d="M 242.5 329 L 241.5 331 L 242.5 329 Z " /><path fill="rgb(230,230,231)" stroke="rgb(230,230,231)" stroke-width="1" opacity="0.996078431372549" d="M 119.5 335 L 120 338.5 L 119 338.5 L 119.5 335 Z " /><path fill="rgb(230,230,231)" stroke="rgb(230,230,231)" stroke-width="1" opacity="0.996078431372549" d="M 125.5 341 L 126.5 343 L 125.5 341 Z " /><path fill="rgb(230,230,231)" stroke="rgb(230,230,231)" stroke-width="1" opacity="0.996078431372549" d="M 220.5 341 L 221 342.5 L 219 343.5 L 220.5 341 Z " /><path fill="rgb(230,230,231)" stroke="rgb(230,230,231)" stroke-width="1" opacity="0.996078431372549" d="M 217.5 344 L 216.5 346 L 217.5 344 Z " /><path fill="rgb(230,230,231)" stroke="rgb(230,230,231)" stroke-width="1" opacity="0.996078431372549" d="M 132.5 345 L 133.5 347 L 132.5 345 Z " /><path fill="rgb(230,230,231)" stroke="rgb(230,230,231)" stroke-width="1" opacity="0.996078431372549" d="M 212.5 347 L 211.5 349 L 209.5 350 L 210.5 348 L 212.5 347 Z " /><path fill="rgb(230,230,231)" stroke="rgb(230,230,231)" stroke-width="1" opacity="0.996078431372549" d="M 207.5 350 L 206.5 352 L 207.5 350 Z " /><path fill="rgb(230,230,231)" stroke="rgb(230,230,231)" stroke-width="1" opacity="0.996078431372549" d="M 202.5 353 L 201.5 355 L 199.5 356 L 200.5 354 L 202.5 353 Z " /><path fill="rgb(230,230,231)" stroke="rgb(230,230,231)" stroke-width="1" opacity="0.996078431372549" d="M 197.5 356 L 196.5 358 L 193.5 359 L 193.5 358 L 197.5 356 Z " /><path fill="rgb(185,189,191)" stroke="rgb(185,189,191)" stroke-width="1" opacity="1" d="M 169.5 30 L 168.5 32 L 169.5 30 Z " /><path fill="rgb(185,189,191)" stroke="rgb(185,189,191)" stroke-width="1" opacity="1" d="M 177.5 31 L 178.5 33 L 177.5 31 Z " /><path fill="rgb(185,189,191)" stroke="rgb(185,189,191)" stroke-width="1" opacity="1" d="M 138.5 48 L 137.5 50 L 138.5 48 Z " /><path fill="rgb(185,189,191)" stroke="rgb(185,189,191)" stroke-width="1" opacity="1" d="M 131.5 52 L 130.5 54 L 131.5 52 Z " /><path fill="rgb(185,189,191)" stroke="rgb(185,189,191)" stroke-width="1" opacity="1" d="M 223.5 58 L 224.5 60 L 223.5 58 Z " /><path fill="rgb(185,189,191)" stroke="rgb(185,189,191)" stroke-width="1" opacity="1" d="M 119.5 59 L 118.5 61 L 119.5 59 Z " /><path fill="rgb(185,189,191)" stroke="rgb(185,189,191)" stroke-width="1" opacity="1" d="M 149.5 63 L 150 67.5 L 149 67.5 L 149.5 63 Z " /><path fill="rgb(185,189,191)" stroke="rgb(185,189,191)" stroke-width="1" opacity="1" d="M 107.5 66 L 106.5 68 L 107.5 66 Z " /><path fill="rgb(185,189,191)" stroke="rgb(185,189,191)" stroke-width="1" opacity="1" d="M 232.5 66 L 233 70.5 L 232 70.5 L 232.5 66 Z " /><path fill="rgb(185,189,191)" stroke="rgb(185,189,191)" stroke-width="1" opacity="1" d="M 100.5 70 L 99.5 72 L 100.5 70 Z " /><path fill="rgb(185,189,191)" stroke="rgb(185,189,191)" stroke-width="1" opacity="1" d="M 136.5 72 Q 144.5 70.5 147 74.5 L 148 82.5 L 147 85.5 Q 148.6 95.6 146 101.5 L 137.5 112 L 132.5 113 L 130 112 L 126 102.5 L 126 80.5 L 129.5 76 L 136.5 72 Z " /><path fill="rgb(185,189,191)" stroke="rgb(185,189,191)" stroke-width="1" opacity="1" d="M 95.5 73 L 94 75.5 L 94 122.5 L 93 123.5 L 93 135.5 L 89.5 140 L 80.5 141 L 68.5 138 L 57 126.5 L 50 111.5 L 50 100.5 L 92.5 76 L 95.5 73 Z " /><path fill="rgb(185,189,191)" stroke="rgb(185,189,191)" stroke-width="1" opacity="1" d="M 120.5 78 L 121 82.5 L 120 82.5 L 120.5 78 Z " /><path fill="rgb(185,189,191)" stroke="rgb(185,189,191)" stroke-width="1" opacity="1" d="M 269.5 85 L 270.5 87 L 269.5 85 Z " /><path fill="rgb(185,189,191)" stroke="rgb(185,189,191)" stroke-width="1" opacity="1" d="M 286.5 95 L 287.5 97 L 286.5 95 Z " /><path fill="rgb(185,189,191)" stroke="rgb(185,189,191)" stroke-width="1" opacity="1" d="M 268.5 100 L 281.5 101 L 294 110.5 L 298 121.5 L 298 133.5 L 297 134.5 L 297 144.5 L 295 153.5 Q 290.9 162.9 283.5 169 Q 270.2 171.3 267 163.5 L 260 143.5 L 259 127.5 L 260 126.5 L 260 119.5 L 262 107 Q 264.7 108.1 264 105.5 L 268.5 100 Z " /><path fill="rgb(185,189,191)" stroke="rgb(185,189,191)" stroke-width="1" opacity="1" d="M 298.5 102 L 299.5 104 L 298.5 102 Z " /><path fill="rgb(185,189,191)" stroke="rgb(185,189,191)" stroke-width="1" opacity="1" d="M 38.5 106 L 37.5 108 L 38.5 106 Z " /><path fill="rgb(185,189,191)" stroke="rgb(185,189,191)" stroke-width="1" opacity="1" d="M 176.5 112 L 178.5 115 L 176.5 112 Z " /><path fill="rgb(185,189,191)" stroke="rgb(185,189,191)" stroke-width="1" opacity="1" d="M 315.5 112 L 316.5 114 L 315.5 112 Z " /><path fill="rgb(185,189,191)" stroke="rgb(185,189,191)" stroke-width="1" opacity="1" d="M 26.5 113 L 25.5 115 L 26.5 113 Z " /><path fill="rgb(185,189,191)" stroke="rgb(185,189,191)" stroke-width="1" opacity="1" d="M 320.5 116 L 321 119.5 L 320 119.5 L 320.5 116 Z " /><path fill="rgb(185,189,191)" stroke="rgb(185,189,191)" stroke-width="1" opacity="1" d="M 29.5 123 Q 36.4 124.6 40 129.5 L 51 145.5 L 56 158.5 L 56 206.5 L 47.5 217 L 30.5 228 L 25 230 L 24.5 238 L 24 230.5 L 25 229.5 L 25 124 L 29.5 123 Z " /><path fill="rgb(185,189,191)" stroke="rgb(185,189,191)" stroke-width="1" opacity="1" d="M 185.5 126 Q 189.5 125.5 190 128.5 L 192 138.5 L 192 165.5 L 192 167.5 L 191 175.5 L 188.5 179 Q 183.8 179.8 183 176.5 L 181 171.5 L 181 169.5 L 182 163.5 L 181 162.5 L 181 130.5 L 183.5 127 L 185.5 126 Z " /><path fill="rgb(185,189,191)" stroke="rgb(185,189,191)" stroke-width="1" opacity="1" d="M 255.5 138 L 256 149.5 L 255 149.5 L 255.5 138 Z " /><path fill="rgb(185,189,191)" stroke="rgb(185,189,191)" stroke-width="1" opacity="1" d="M 143.5 139 L 165.5 139 L 171 142.5 L 176 160.5 L 176 166.5 L 178 174.5 L 178 187.5 Q 172.4 210.4 156.5 223 L 147.5 228 L 141.5 228 L 131 221 Q 132.1 218.3 129.5 219 L 126 215.5 L 123 207.5 L 122 187.5 L 121 186.5 L 121 172.5 L 122 171.5 L 123 158.5 L 128 147.5 L 132.5 143 L 143.5 139 Z " /><path fill="rgb(185,189,191)" stroke="rgb(185,189,191)" stroke-width="1" opacity="1" d="M 211.5 148 L 212.5 150 L 211.5 148 Z " /><path fill="rgb(185,189,191)" stroke="rgb(185,189,191)" stroke-width="1" opacity="1" d="M 94.5 188 L 95.5 190 L 94.5 188 Z " /><path fill="rgb(185,189,191)" stroke="rgb(185,189,191)" stroke-width="1" opacity="1" d="M 320.5 190 L 321 233.5 L 321 235.5 L 321 246.5 L 319.5 248 Q 312.9 247.1 310 242.5 L 308 234.5 L 308 226.5 L 311 213.5 L 312 201.5 Q 314.6 194.1 320.5 190 Z " /><path fill="rgb(185,189,191)" stroke="rgb(185,189,191)" stroke-width="1" opacity="1" d="M 87.5 193 L 88 195.5 L 87 195.5 L 87.5 193 Z " /><path fill="rgb(185,189,191)" stroke="rgb(185,189,191)" stroke-width="1" opacity="1" d="M 222.5 193 L 242.5 194 Q 249.4 195.6 252 201.5 L 258 219.5 L 259 246.5 L 252 273.5 L 244.5 284 Q 238.3 291.3 224.5 291 L 209.5 283 L 204 277.5 L 197 248.5 L 197 227.5 L 198 226.5 L 199 214.5 L 205 205 L 209 203.5 Q 208.3 201.3 210.5 202 L 222.5 193 Z " /><path fill="rgb(185,189,191)" stroke="rgb(185,189,191)" stroke-width="1" opacity="1" d="M 276.5 205 L 277 207.5 L 276 207.5 L 276.5 205 Z " /><path fill="rgb(185,189,191)" stroke="rgb(185,189,191)" stroke-width="1" opacity="1" d="M 58.5 216 L 59 218.5 L 58 218.5 L 58.5 216 Z " /><path fill="rgb(185,189,191)" stroke="rgb(185,189,191)" stroke-width="1" opacity="1" d="M 276.5 218 L 277 220.5 L 276 220.5 L 276.5 218 Z " /><path fill="rgb(185,189,191)" stroke="rgb(185,189,191)" stroke-width="1" opacity="1" d="M 57.5 229 L 58 233.5 L 57 233.5 L 57.5 229 Z " /><path fill="rgb(185,189,191)" stroke="rgb(185,189,191)" stroke-width="1" opacity="1" d="M 83.5 238 L 82.5 240 L 83.5 238 Z " /><path fill="rgb(185,189,191)" stroke="rgb(185,189,191)" stroke-width="1" opacity="1" d="M 172.5 240 Q 178.5 238.5 180 241.5 L 182 254.5 L 179 268.5 L 175.5 272 Q 169.1 271.9 167 267.5 L 166 265.5 L 166 245.5 L 172.5 240 Z " /><path fill="rgb(185,189,191)" stroke="rgb(185,189,191)" stroke-width="1" opacity="1" d="M 153.5 244 L 151.5 247 L 153.5 244 Z " /><path fill="rgb(185,189,191)" stroke="rgb(185,189,191)" stroke-width="1" opacity="1" d="M 99.5 246 L 104.5 246 L 113 252 L 121 266.5 L 124 281.5 L 125 299.5 L 124 300.5 L 123 316.5 L 120 327.5 L 120 334.5 L 118.5 338 L 80 316.5 L 80 314.5 L 78 308.5 L 77 293.5 L 76 292.5 L 76 265.5 Q 78.8 256.8 85.5 252 L 93.5 247 Q 98.3 248.3 99.5 246 Z " /><path fill="rgb(185,189,191)" stroke="rgb(185,189,191)" stroke-width="1" opacity="1" d="M 150.5 248 L 151 259.5 L 150 259.5 L 150.5 248 Z " /><path fill="rgb(185,189,191)" stroke="rgb(185,189,191)" stroke-width="1" opacity="1" d="M 300.5 252 L 303 252.5 L 300.5 253 L 300.5 252 Z " /><path fill="rgb(185,189,191)" stroke="rgb(185,189,191)" stroke-width="1" opacity="1" d="M 320.5 263 Q 323.1 262.2 322 265.5 L 321 265.5 L 320.5 263 Z " /><path fill="rgb(185,189,191)" stroke="rgb(185,189,191)" stroke-width="1" opacity="1" d="M 231 302 Q 235.7 301 237 304.5 L 239 311.5 L 239 321.5 L 238 322.5 L 238 331.5 L 238.5 333 L 223.5 341 L 220.5 344 L 221 342.5 L 219 336.5 L 222 326.5 L 222 324.5 L 225 309.5 L 228.5 304 Q 232.3 305 231 302 Z " /><path fill="rgb(185,189,191)" stroke="rgb(185,189,191)" stroke-width="1" opacity="1" d="M 70.5 310 L 71.5 312 L 70.5 310 Z " /><path fill="rgb(185,189,191)" stroke="rgb(185,189,191)" stroke-width="1" opacity="1" d="M 77.5 314 L 78.5 316 L 77.5 314 Z " /><path fill="rgb(185,189,191)" stroke="rgb(185,189,191)" stroke-width="1" opacity="1" d="M 248.5 326 L 247.5 328 L 248.5 326 Z " /><path fill="rgb(185,189,191)" stroke="rgb(185,189,191)" stroke-width="1" opacity="1" d="M 243.5 329 L 242.5 331 L 243.5 329 Z " /><path fill="rgb(185,189,191)" stroke="rgb(185,189,191)" stroke-width="1" opacity="1" d="M 124.5 341 L 125.5 343 L 124.5 341 Z " /><path fill="rgb(185,189,191)" stroke="rgb(185,189,191)" stroke-width="1" opacity="1" d="M 131.5 345 L 132.5 347 L 131.5 345 Z " /><path fill="rgb(138,144,152)" stroke="rgb(138,144,152)" stroke-width="1" opacity="1" d="M 161.5 35 L 162 37 L 148.5 44 L 150.5 41 L 161.5 35 Z " /><path fill="rgb(138,144,152)" stroke="rgb(138,144,152)" stroke-width="1" opacity="1" d="M 187 38 L 189.5 38 L 209 49.5 L 206.5 51 L 188.5 39 L 187 39.5 L 187 38 Z " /><path fill="rgb(138,144,152)" stroke="rgb(138,144,152)" stroke-width="1" opacity="1" d="M 210.5 60 L 211 62.5 L 210 62.5 L 210.5 60 Z " /><path fill="rgb(138,144,152)" stroke="rgb(138,144,152)" stroke-width="1" opacity="1" d="M 232.5 63 L 263 81.5 L 260.5 82 L 248.5 75 L 246.5 76 L 245.5 74 L 247.5 75 L 246.5 73 L 233 66 L 232.5 63 Z " /><path fill="rgb(138,144,152)" stroke="rgb(138,144,152)" stroke-width="1" opacity="1" d="M 173.5 66 L 174 68.5 L 173 68.5 L 173.5 66 Z " /><path fill="rgb(138,144,152)" stroke="rgb(138,144,152)" stroke-width="1" opacity="1" d="M 159.5 69 L 158.5 71 L 159.5 69 Z " /><path fill="rgb(138,144,152)" stroke="rgb(138,144,152)" stroke-width="1" opacity="1" d="M 109.5 73 L 111 73.5 L 108.5 75 L 109.5 73 Z " /><path fill="rgb(138,144,152)" stroke="rgb(138,144,152)" stroke-width="1" opacity="1" d="M 84.5 79 L 83.5 81 L 84.5 79 Z " /><path fill="rgb(138,144,152)" stroke="rgb(138,144,152)" stroke-width="1" opacity="1" d="M 255.5 82 Q 259 84 254.5 86 L 255.5 82 Z " /><path fill="rgb(138,144,152)" stroke="rgb(138,144,152)" stroke-width="1" opacity="1" d="M 77.5 83 L 76.5 85 L 77.5 83 Z " /><path fill="rgb(138,144,152)" stroke="rgb(138,144,152)" stroke-width="1" opacity="1" d="M 53.5 97 L 52.5 99 L 53.5 97 Z " /><path fill="rgb(138,144,152)" stroke="rgb(138,144,152)" stroke-width="1" opacity="1" d="M 201.5 101 L 200.5 103 L 201.5 101 Z " /><path fill="rgb(138,144,152)" stroke="rgb(138,144,152)" stroke-width="1" opacity="1" d="M 177.5 102 L 178.5 104 L 177.5 102 Z " /><path fill="rgb(138,144,152)" stroke="rgb(138,144,152)" stroke-width="1" opacity="1" d="M 198.5 106 L 197.5 108 L 198.5 106 Z " /><path fill="rgb(138,144,152)" stroke="rgb(138,144,152)" stroke-width="1" opacity="1" d="M 249.5 108 L 251 111.5 L 250 111.5 L 249.5 108 Z " /><path fill="rgb(138,144,152)" stroke="rgb(138,144,152)" stroke-width="1" opacity="1" d="M 243.5 110 L 245 110.5 L 242.5 112 L 243.5 110 Z " /><path fill="rgb(138,144,152)" stroke="rgb(138,144,152)" stroke-width="1" opacity="1" d="M 25.5 113 L 25 114.5 L 24.5 181 L 24 114.5 L 25.5 113 Z " /><path fill="rgb(138,144,152)" stroke="rgb(138,144,152)" stroke-width="1" opacity="1" d="M 321.5 116 L 322 246.5 L 321 246.5 L 321.5 116 Z " /><path fill="rgb(138,144,152)" stroke="rgb(138,144,152)" stroke-width="1" opacity="1" d="M 210.5 150 L 211.5 152 L 210.5 150 Z " /><path fill="rgb(138,144,152)" stroke="rgb(138,144,152)" stroke-width="1" opacity="1" d="M 251.5 156 L 252 158.5 L 251 158.5 L 251.5 156 Z " /><path fill="rgb(138,144,152)" stroke="rgb(138,144,152)" stroke-width="1" opacity="1" d="M 94.5 178 L 95 180.5 L 94 180.5 L 94.5 178 Z " /><path fill="rgb(138,144,152)" stroke="rgb(138,144,152)" stroke-width="1" opacity="1" d="M 301.5 181 L 303.5 184 L 301.5 181 Z " /><path fill="rgb(138,144,152)" stroke="rgb(138,144,152)" stroke-width="1" opacity="1" d="M 284.5 182 L 283.5 184 L 284.5 182 Z " /><path fill="rgb(138,144,152)" stroke="rgb(138,144,152)" stroke-width="1" opacity="1" d="M 82.5 183 L 85 186.5 L 83 185.5 L 82.5 183 Z " /><path fill="rgb(138,144,152)" stroke="rgb(138,144,152)" stroke-width="1" opacity="1" d="M 109.5 188 L 111 188.5 L 108.5 190 L 109.5 188 Z " /><path fill="rgb(138,144,152)" stroke="rgb(138,144,152)" stroke-width="1" opacity="1" d="M 59.5 223 L 60 226.5 L 59 226.5 L 59.5 223 Z " /><path fill="rgb(138,144,152)" stroke="rgb(138,144,152)" stroke-width="1" opacity="1" d="M 280.5 229 L 281.5 231 L 280.5 229 Z " /><path fill="rgb(138,144,152)" stroke="rgb(138,144,152)" stroke-width="1" opacity="1" d="M 23.5 231 L 24 246.5 L 26 251.5 L 25 252.5 L 25 282.5 L 65 306.5 L 66 308.5 L 62.5 306 L 24 283.5 L 24 247.5 L 23 246.5 L 23.5 231 Z " /><path fill="rgb(138,144,152)" stroke="rgb(138,144,152)" stroke-width="1" opacity="1" d="M 83.5 235 L 81.5 238 L 83.5 235 Z " /><path fill="rgb(138,144,152)" stroke="rgb(138,144,152)" stroke-width="1" opacity="1" d="M 68.5 242 L 67.5 244 L 68.5 242 Z " /><path fill="rgb(138,144,152)" stroke="rgb(138,144,152)" stroke-width="1" opacity="1" d="M 156.5 244 L 158 244.5 L 156.5 247 L 155.5 246 L 152 248.5 L 156.5 244 Z " /><path fill="rgb(138,144,152)" stroke="rgb(138,144,152)" stroke-width="1" opacity="1" d="M 51.5 248 L 52.5 250 L 51.5 248 Z " /><path fill="rgb(138,144,152)" stroke="rgb(138,144,152)" stroke-width="1" opacity="1" d="M 54.5 250 L 55.5 252 L 54.5 250 Z " /><path fill="rgb(138,144,152)" stroke="rgb(138,144,152)" stroke-width="1" opacity="1" d="M 313.5 255 L 314.5 257 L 313.5 255 Z " /><path fill="rgb(138,144,152)" stroke="rgb(138,144,152)" stroke-width="1" opacity="1" d="M 281.5 260 L 283 260.5 L 280.5 262 L 281.5 260 Z " /><path fill="rgb(138,144,152)" stroke="rgb(138,144,152)" stroke-width="1" opacity="1" d="M 320.5 264 L 322 267.5 L 322 281.5 L 319.5 285 L 254.5 323 L 251.5 326 L 252 324.5 Q 251.3 322.3 253.5 323 L 271.5 311 L 320 283 L 320 267.5 L 319 266.5 L 320.5 264 Z " /><path fill="rgb(138,144,152)" stroke="rgb(138,144,152)" stroke-width="1" opacity="1" d="M 153.5 268 L 154 271.5 L 153 271.5 L 153.5 268 Z " /><path fill="rgb(138,144,152)" stroke="rgb(138,144,152)" stroke-width="1" opacity="1" d="M 159.5 269 L 160 278.5 L 159 278.5 L 159.5 269 Z " /><path fill="rgb(138,144,152)" stroke="rgb(138,144,152)" stroke-width="1" opacity="1" d="M 263.5 283 L 262.5 285 L 263.5 283 Z " /><path fill="rgb(138,144,152)" stroke="rgb(138,144,152)" stroke-width="1" opacity="1" d="M 191.5 287 L 189.5 290 L 191.5 287 Z " /><path fill="rgb(138,144,152)" stroke="rgb(138,144,152)" stroke-width="1" opacity="1" d="M 200.5 293 L 201 296.5 L 200 296.5 L 200.5 293 Z " /><path fill="rgb(138,144,152)" stroke="rgb(138,144,152)" stroke-width="1" opacity="1" d="M 92.5 323 L 93.5 325 L 92.5 323 Z " /><path fill="rgb(138,144,152)" stroke="rgb(138,144,152)" stroke-width="1" opacity="1" d="M 182.5 325 L 185 326.5 L 183.5 326 L 182.5 325 Z " /><path fill="rgb(138,144,152)" stroke="rgb(138,144,152)" stroke-width="1" opacity="1" d="M 147.5 328 L 145 331.5 L 143.5 334 L 143 332.5 L 147.5 328 Z " /><path fill="rgb(138,144,152)" stroke="rgb(138,144,152)" stroke-width="1" opacity="1" d="M 106.5 331 L 107.5 333 L 106.5 331 Z " /><path fill="rgb(138,144,152)" stroke="rgb(138,144,152)" stroke-width="1" opacity="1" d="M 113.5 335 L 114.5 337 L 113.5 335 Z " /><path fill="rgb(138,144,152)" stroke="rgb(138,144,152)" stroke-width="1" opacity="1" d="M 118.5 338 L 119.5 340 L 118.5 338 Z " /><path fill="rgb(138,144,152)" stroke="rgb(138,144,152)" stroke-width="1" opacity="1" d="M 222.5 342 L 221.5 344 L 222.5 342 Z " /><path fill="rgb(138,144,152)" stroke="rgb(138,144,152)" stroke-width="1" opacity="1" d="M 137.5 346 L 137.5 348 Q 139.8 348.8 139 346.5 L 140 346.5 L 139 348.5 L 140.5 349 L 142 348.5 Q 139.8 349.8 142.5 351 L 175.5 369 L 184.5 363 L 187 363 L 187 361 Q 189.7 362.1 189 359.5 L 192 359.5 L 191 362 L 174.5 371 L 135 348.5 L 137.5 346 Z " /><path fill="rgb(138,145,153)" stroke="rgb(138,145,153)" stroke-width="1" opacity="1" d="M 160.5 37 Q 163.5 36.1 162 40.5 L 163 41.5 L 163 60.5 L 162 61.5 L 162 69.5 L 159.5 72 Q 151.9 73.1 150 68.5 L 148 44.5 L 160.5 37 Z " /><path fill="rgb(138,145,153)" stroke="rgb(138,145,153)" stroke-width="1" opacity="1" d="M 187.5 37 L 187 38.5 L 187.5 40 Q 189 37.5 190.5 41 L 207.5 51 L 209 50.5 Q 214.3 60.7 214 76.5 L 211 89.5 L 207 97.5 L 194.5 114 L 185.5 117 L 180.5 116 L 176 111.5 L 173 103.5 L 173 94.5 L 172 93.5 L 172 62.5 L 175 47.5 L 179.5 40 L 187.5 37 Z M 211 60 L 210 63 L 211 63 L 211 60 Z M 174 66 L 173 69 L 174 69 L 174 66 Z " /><path fill="rgb(138,145,153)" stroke="rgb(138,145,153)" stroke-width="1" opacity="1" d="M 232.5 64 L 233 66 L 262 82.5 Q 259.1 88.2 253 89 Q 254.1 91.7 251.5 91 L 246.5 95 L 239.5 95 L 234 87.5 L 233 66.5 L 232.5 64 Z " /><path fill="rgb(138,145,153)" stroke="rgb(138,145,153)" stroke-width="1" opacity="1" d="M 111.5 71 L 116.5 72 Q 118.2 69.2 120 73.5 L 120 91.5 L 118 97.5 L 118 103.5 L 113.5 111 L 108.5 111 L 102 106.5 L 98 96.5 L 98 88.5 L 100 77.5 L 103.5 74 L 111.5 71 Z " /><path fill="rgb(138,145,153)" stroke="rgb(138,145,153)" stroke-width="1" opacity="1" d="M 248.5 106 Q 252.3 105.3 253 107.5 L 254 114.5 L 253 117.5 L 255 125.5 L 255 154.5 L 250.5 163 Q 239 164 235 157.5 L 231 143.5 L 231 123.5 Q 233.4 114.4 240.5 110 L 248.5 106 Z M 251 109 L 250 112 L 251 112 L 251 109 Z M 252 156 L 251 159 L 252 159 L 252 156 Z " /><path fill="rgb(138,145,153)" stroke="rgb(138,145,153)" stroke-width="1" opacity="1" d="M 107 140 L 115 144.5 L 117 153.5 L 117 165.5 L 116 166.5 L 114 185.5 L 110.5 191 L 101.5 192 L 94 187.5 L 93 185.5 L 92 166.5 L 95 154.5 L 101.5 145 L 107 143 L 107 140 Z M 95 178 L 94 181 L 95 181 L 95 178 Z " /><path fill="rgb(138,145,153)" stroke="rgb(138,145,153)" stroke-width="1" opacity="1" d="M 207.5 148 Q 213.3 147.3 214 151.5 Q 216.8 157.8 215 168.5 L 213 177.5 L 209.5 183 L 204.5 184 L 197 179.5 Q 194.3 176.2 195 169.5 L 196 168.5 L 196 154.5 L 199.5 151 L 207.5 148 Z " /><path fill="rgb(138,145,153)" stroke="rgb(138,145,153)" stroke-width="1" opacity="1" d="M 286.5 178 L 288.5 178 Q 301 176 305 182.5 L 306 184.5 L 306 207.5 L 302 225.5 L 296.5 233 Q 293.5 236 286.5 235 L 282.5 234 L 279 230.5 L 277 225.5 L 276 208.5 L 277 207.5 Q 275.7 197.2 278 190.5 L 284.5 179 L 286.5 178 Z " /><path fill="rgb(138,145,153)" stroke="rgb(138,145,153)" stroke-width="1" opacity="1" d="M 77.5 180 L 85 183.5 L 87 186.5 L 87 197.5 L 89 208.5 L 89 226.5 Q 87.1 237.6 79.5 243 L 63.5 245 L 61 244 L 58 237.5 L 57 226.5 L 63 192.5 L 65 184.5 L 67.5 182 L 77.5 180 Z M 60 223 L 59 227 L 60 227 L 60 223 Z " /><path fill="rgb(138,145,153)" stroke="rgb(138,145,153)" stroke-width="1" opacity="1" d="M 24.5 181 L 25 229.5 L 24 229.5 L 24.5 181 Z " /><path fill="rgb(138,145,153)" stroke="rgb(138,145,153)" stroke-width="1" opacity="1" d="M 39.5 243 L 51.5 246 L 59 251 L 66 265.5 L 67 278.5 L 68 279.5 L 68 296.5 L 64.5 306 L 25 282.5 L 25 252.5 L 26 251.5 L 25 247.5 L 29.5 245 L 39.5 243 Z " /><path fill="rgb(138,145,153)" stroke="rgb(138,145,153)" stroke-width="1" opacity="1" d="M 155.5 243 Q 162.7 240.7 160 248.5 L 161 249.5 L 161 289.5 L 160 292 L 152 293 L 151 247.5 L 155.5 243 Z M 157 244 Q 154 246 157 247 L 158 245 L 157 244 Z M 154 268 L 153 272 L 154 272 L 154 268 Z M 160 269 L 159 279 L 160 279 L 160 269 Z " /><path fill="rgb(138,145,153)" stroke="rgb(138,145,153)" stroke-width="1" opacity="1" d="M 321.5 247 L 322 258.5 L 321 258.5 L 321.5 247 Z " /><path fill="rgb(138,145,153)" stroke="rgb(138,145,153)" stroke-width="1" opacity="1" d="M 303.5 252 Q 315.3 250.2 318 257.5 Q 320.7 259.8 320 265.5 L 320 267.5 L 320 282.5 L 318.5 283 L 310.5 289 L 308.5 289 L 305.5 292 L 303.5 292 L 252.5 323 L 253 321.5 L 260 285.5 L 265 273.5 L 273.5 263 L 283.5 257 L 303.5 252 Z " /><path fill="rgb(138,145,153)" stroke="rgb(138,145,153)" stroke-width="1" opacity="1" d="M 191.5 282 Q 197 281 198 284.5 Q 204.2 288.8 202 301.5 L 195.5 311 Q 189.3 311.7 188 307.5 L 186 297.5 L 186 290.5 L 191.5 282 Z M 201 293 L 200 297 L 201 297 L 201 293 Z " /><path fill="rgb(138,145,153)" stroke="rgb(138,145,153)" stroke-width="1" opacity="1" d="M 160.5 319 L 174.5 319 L 186.5 325 L 195 332.5 L 199 342.5 L 199 348.5 L 192.5 359 L 191 359.5 L 193 360.5 L 191.5 361 L 189 359.5 Q 189.7 362.1 187 361 L 187 363 L 184.5 363 L 181.5 366 L 173.5 369 L 136 346.5 Q 136 339.5 139 335.5 L 148.5 325 L 160.5 319 Z M 145 331 L 143 334 L 145 333 L 145 331 Z " /><path fill="rgb(242,242,242)" stroke="rgb(242,242,242)" stroke-width="1" opacity="0.996078431372549" d="M 117.5 28 L 116.5 30 L 104.5 36 L 105.5 34 L 117.5 28 Z " /><path fill="rgb(242,242,242)" stroke="rgb(242,242,242)" stroke-width="1" opacity="0.996078431372549" d="M 102.5 36 L 100.5 39 L 98.5 40 L 99.5 38 L 102.5 36 Z " /><path fill="rgb(242,242,242)" stroke="rgb(242,242,242)" stroke-width="1" opacity="0.996078431372549" d="M 123.5 58 Q 126.9 57.1 125 62.5 L 129 76.5 L 125 81.5 L 126 82.5 L 126 92.5 L 123.5 91 L 120 89.5 L 121 87.5 L 121 75.5 L 119 71 L 116.5 72 Q 115.3 69.8 110.5 71 L 102.5 74 L 100 76.5 L 99 83 L 94 83 L 94 75 L 123.5 58 Z " /><path fill="rgb(242,242,242)" stroke="rgb(242,242,242)" stroke-width="1" opacity="0.996078431372549" d="M 145.5 102 L 152.5 107 L 167.5 114 L 174.5 116 L 188.5 117 L 198.5 115 L 207.5 111 L 209 112.5 L 209 116.5 Q 212.7 119.9 212 126 L 214 126 L 214 128 Q 216.7 126.9 216 129.5 L 221 137 Q 224 135.8 223 139.5 L 224 146 Q 227.7 144.7 226 150.5 L 222 161.5 L 221 176.5 Q 215.3 184.3 215 197.5 L 212.5 200 L 204 206.5 L 202 211 Q 199.3 209.9 200 212.5 L 198 218.5 L 198 223.5 L 196.5 225 L 185.5 227 L 177.5 223 L 169 222 L 169 219.5 L 176 209.5 L 183 194.5 Q 182.3 188.8 185 186.5 L 185 179 Q 189.7 180 191 176.5 L 192 173.5 L 192 158.5 L 193 157.5 L 192 154.5 L 193 151.5 L 192 150.5 L 192 135.5 L 188.5 126 L 182 127 L 180.5 131 L 176 125.5 L 176 123 Q 173.3 124.1 174 121.5 L 159.5 111 L 149.5 108 L 145 104.5 L 145.5 102 Z M 207 148 L 198 152 L 195 158 L 196 161 L 195 165 L 195 167 Q 194 176 197 181 Q 200 185 209 184 L 214 177 L 215 162 L 216 161 L 215 154 L 213 150 Q 212 147 207 148 Z " /><path fill="rgb(242,242,242)" stroke="rgb(242,242,242)" stroke-width="1" opacity="0.996078431372549" d="M 34.5 110 L 31 114.5 L 26.5 123 L 26 115.5 L 34.5 110 Z " /><path fill="rgb(242,242,242)" stroke="rgb(242,242,242)" stroke-width="1" opacity="1" d="M 171.5 30 L 186 37.5 Q 179.2 38.7 176 43.5 L 172 59.5 L 171 83.5 L 171 85.5 L 172 87.5 L 172 89.5 L 173 105.5 L 178.5 115 L 180 115.5 L 174.5 116 L 158.5 110 L 158.5 111 L 174 121.5 Q 173.3 124.1 176 123 L 176 125.5 L 181 132.5 L 180 133.5 L 180 141.5 L 180 143.5 L 181 147.5 L 181 149.5 L 181 171.5 L 182 175.5 L 185 178.5 L 185 186.5 L 180 201.5 L 169 219.5 L 169 222 L 177.5 223 L 185.5 227 L 189.5 227 Q 191.8 224 197 225 L 197 231.5 L 196 232.5 L 197 236.5 Q 194.5 238 196 243.5 L 202 273.5 L 204 278.5 L 207.5 282 L 223.5 291 L 231.5 291 Q 243.1 288.1 249 279.5 L 254 268.5 L 258 254.5 L 259 249.5 L 259 229.5 L 259 227.5 L 258 225.5 L 258 223.5 L 258 217.5 L 254 204.5 L 247.5 196 L 239.5 193 L 221.5 193 L 215.5 198 L 215 192.5 L 218 181.5 L 221 176.5 L 222 161.5 L 226 150.5 L 226 146 Q 222 147.4 224 140.5 L 223 137 Q 220.3 138.1 221 135.5 L 216 128 L 212 126 L 212 122.5 L 207.5 111 Q 201.5 115 192.5 116 L 193.5 114 L 200 108.5 L 211 90.5 L 214 79.5 L 214 66.5 Q 211.8 65.3 213 60.5 L 209 51.5 L 211.5 53 L 232 64 L 233 84.5 L 237.5 94 L 243.5 96 L 247.5 95 L 260 85.5 L 262.5 82 L 320 116.5 L 320 189.5 L 312 200.5 L 312 205.5 L 308 224.5 L 308 236.5 Q 309.1 243.9 314.5 247 L 320 248 L 319.5 260 L 314.5 253 Q 309 250.5 299.5 252 L 287.5 255 L 269 266.5 L 260 284.5 L 257 296.5 L 257 301.5 L 253 314.5 L 253 319.5 L 250.5 325 L 238.5 332 L 238 327.5 L 239 326.5 L 239 309.5 Q 237.8 303.8 233.5 301 L 231 302 L 231 304 L 227 304 L 227 305.5 L 225 308.5 L 223 319.5 L 221 323.5 L 221 330.5 Q 218.2 333.2 219 339.5 L 220 342.5 L 194.5 358 L 196 355.5 Q 200.3 351.3 199 341.5 L 195 331.5 L 191.5 328 L 175.5 319 L 158.5 319 Q 146.9 323.9 140 333.5 L 134.5 347 L 120 339 L 120 330.5 L 125 301.5 L 125 291.5 L 124 290.5 L 124 279.5 L 121 265.5 Q 116.8 254.7 108.5 248 L 105.5 246 L 94.5 246 Q 85.1 250.6 79 258.5 L 76 263.5 L 76 298.5 L 77 299.5 L 78 310.5 L 80 314.5 L 78.5 314 L 65 306.5 Q 69.2 299.2 69 287.5 L 68 286.5 L 68 275.5 L 65 260.5 L 56.5 249 Q 50 243.5 38.5 243 L 25 246 L 25 230.5 L 26.5 230 L 52 214 L 56 206.5 L 57 165.5 L 56 164.5 L 55 153.5 L 52 146.5 L 41 130.5 L 35.5 125 L 28.5 123 L 26.5 124 L 27 122.5 L 35 109 L 49 102 L 49 108.5 L 51 115.5 Q 56.2 127.8 65.5 136 L 73.5 140 L 88.5 141 L 91 140 L 94 130.5 L 94 83 L 99 83 L 99 84.5 L 98 85.5 L 98 97.5 Q 99.5 106 105.5 110 L 112.5 112 L 116 109.5 L 120.5 90 L 126 93.5 Q 124.2 107.8 131.5 113 Q 138 114 140 110.5 L 144.5 104 L 149.5 108 L 157.5 110 L 157.5 109 L 146 103 L 148 91.5 L 148 77.5 L 145.5 73 Q 142.3 70.7 135.5 72 L 129.5 76 L 125 62.5 L 125 57 L 147.5 44 L 149 67.5 L 151.5 71 L 158.5 73 L 162 70.5 L 163 67.5 L 163 35.5 L 164.5 34 L 171.5 30 Z M 271 99 L 265 102 L 261 109 L 260 125 L 259 126 L 260 145 L 264 159 L 268 166 L 278 170 L 284 169 Q 292 162 296 152 L 297 139 L 298 138 L 298 120 L 294 111 L 283 101 L 271 99 Z M 249 106 L 239 111 L 231 123 L 231 145 L 235 159 L 240 162 L 251 163 L 254 159 L 256 151 L 256 138 L 255 137 L 254 117 L 254 115 L 253 110 Q 255 104 249 106 Z M 148 138 L 132 143 L 129 146 L 123 159 L 121 169 L 122 201 L 122 203 L 125 215 Q 131 223 142 228 L 149 228 L 156 224 Q 174 211 179 185 L 176 159 L 172 144 L 170 141 L 162 138 L 158 139 L 148 138 Z M 107 140 L 107 143 L 103 144 Q 90 153 92 177 L 92 179 L 94 189 L 104 193 L 111 191 L 114 187 L 116 177 L 116 170 L 117 169 Q 119 153 115 144 L 107 140 Z M 291 177 L 286 178 L 280 185 L 276 198 L 276 223 L 279 232 L 286 235 Q 294 236 298 233 L 304 222 L 306 211 L 306 184 L 305 182 Q 300 177 291 177 Z M 74 180 L 65 183 L 57 223 Q 55 236 60 243 L 66 246 L 80 243 L 87 235 L 90 220 L 87 186 Q 85 178 74 180 Z M 173 240 L 167 243 L 165 252 Q 163 264 168 270 Q 171 273 177 272 Q 181 268 181 261 L 182 256 L 181 243 Q 180 239 173 240 Z M 157 242 L 150 248 L 151 275 L 152 276 L 152 293 L 154 294 L 159 293 L 162 287 L 162 265 L 161 264 L 161 249 L 160 248 Q 163 240 157 242 Z M 194 281 L 190 282 L 190 285 L 186 290 L 187 307 L 192 311 L 196 311 Q 201 307 203 300 L 203 294 L 201 288 L 194 281 Z " /><path fill="rgb(92,94,96)" stroke="rgb(92,94,96)" stroke-width="1" opacity="1" d="M 169.5 1 Q 175.8 0.2 178.5 3 L 346 99.5 L 344 100.5 L 346 102.5 L 346 301 L 275.5 340 L 201.5 386 L 199.5 386 L 181.5 397 L 172.5 399 Q 171.5 396 166.5 397 L 113.5 365 L 87.5 351 L 15.5 308 L 4.5 299 L 0 298 L 0 117.5 L 1 115.5 L 0 114.5 L 0 101 L 169.5 1 Z M 171 29 L 156 39 L 145 44 L 66 91 L 26 113 L 24 115 L 24 231 L 23 232 L 24 284 L 78 316 L 175 371 L 320 285 L 322 282 L 322 117 L 288 95 L 238 67 L 230 61 L 202 46 L 177 30 L 171 29 Z " /></svg>