<svg width="346" height="400" version="1.1" xmlns="http://www.w3.org/2000/svg" desc="Created with imagetracer.js version 1.2.6" ><path fill="rgb(2,1,0)" stroke="rgb(2,1,0)" stroke-width="1" opacity="0.0196078431372549" d="M 0 0 L 166 0.5 L 0.5 99 L 0 0 Z " /><path fill="rgb(2,1,0)" stroke="rgb(2,1,0)" stroke-width="1" opacity="0.0196078431372549" d="M 177.5 0 L 346 0 L 346 98 L 217.5 23 L 183.5 6 L 177.5 0 Z " /><path fill="rgb(2,1,0)" stroke="rgb(2,1,0)" stroke-width="1" opacity="0.0196078431372549" d="M 0 300 L 52.5 333 L 167 399.5 L 0 400 L 0 300 Z " /><path fill="rgb(2,1,0)" stroke="rgb(2,1,0)" stroke-width="1" opacity="0.0196078431372549" d="M 345.5 303 L 346 400 L 180 399.5 L 209.5 384 L 298.5 329 L 345.5 303 Z " /><path fill="rgb(171,188,173)" stroke="rgb(171,188,173)" stroke-width="1" opacity="1" d="M 171.5 30 L 174.5 30 L 227 61.5 L 231 84.5 L 240 106.5 Q 250.2 124.8 265.5 138 L 277.5 147 L 300.5 159 L 320 164 L 320 188.5 L 321 192.5 L 320 193.5 L 320 202.5 L 321 204.5 L 320 207.5 L 321 211.5 L 321 233.5 L 320 234.5 L 320 281.5 Q 322.3 282.8 319.5 284 L 174.5 370 L 27.5 286 L 24 282.5 L 25 276.5 L 25 274.5 L 24 269.5 L 25 268.5 L 26 144.5 L 25 143.5 L 25 133.5 L 26 131.5 L 26 129.5 L 25 123.5 L 26 122.5 L 26 114 L 171.5 30 Z M 151 86 Q 140 88 133 94 L 125 103 L 118 100 Q 107 98 101 101 Q 92 104 88 110 L 83 108 Q 74 107 69 109 L 63 112 L 52 121 L 44 130 L 40 139 Q 41 143 39 145 Q 38 150 40 152 L 37 164 L 38 176 L 42 185 L 45 188 L 45 192 L 49 201 Q 55 209 67 212 L 66 214 L 66 222 L 71 236 L 69 244 L 70 265 L 78 281 Q 89 295 108 302 L 113 314 L 117 319 L 123 321 L 123 319 L 116 307 L 116 305 L 120 307 L 129 308 L 131 308 L 134 313 Q 133 315 136 314 L 142 322 L 144 321 L 139 308 Q 158 309 168 300 L 177 301 Q 187 310 203 314 L 217 316 L 223 323 Q 225 322 224 325 L 230 328 L 232 327 L 231 323 Q 225 321 222 317 L 225 315 L 231 315 L 238 313 L 256 302 L 259 309 Q 260 313 265 312 Q 266 305 261 303 Q 262 300 259 301 L 259 299 Q 268 289 274 276 L 277 264 L 280 258 L 280 245 L 290 229 L 293 218 L 292 202 L 286 189 Q 280 177 265 175 L 256 176 Q 255 167 249 162 L 248 171 L 247 156 Q 244 144 237 137 L 219 121 L 205 115 L 200 115 L 194 102 Q 181 85 151 86 Z " /><path fill="rgb(171,188,173)" stroke="rgb(171,188,173)" stroke-width="1" opacity="1" d="M 139.5 103 L 138.5 105 L 139.5 103 Z " /><path fill="rgb(171,188,173)" stroke="rgb(171,188,173)" stroke-width="1" opacity="1" d="M 178.5 112 L 179.5 114 L 178.5 112 Z " /><path fill="rgb(171,188,173)" stroke="rgb(171,188,173)" stroke-width="1" opacity="1" d="M 170.5 119 L 173 119.5 L 170.5 120 L 170.5 119 Z " /><path fill="rgb(171,188,173)" stroke="rgb(171,188,173)" stroke-width="1" opacity="1" d="M 179.5 129 L 182 129.5 L 179.5 130 L 179.5 129 Z " /><path fill="rgb(171,188,173)" stroke="rgb(171,188,173)" stroke-width="1" opacity="1" d="M 226.5 135 L 227.5 137 L 226.5 135 Z " /><path fill="rgb(171,188,173)" stroke="rgb(171,188,173)" stroke-width="1" opacity="1" d="M 238.5 163 L 239 166.5 L 238 166.5 L 238.5 163 Z " /><path fill="rgb(171,188,173)" stroke="rgb(171,188,173)" stroke-width="1" opacity="1" d="M 199.5 166 L 201.5 169 L 199.5 166 Z " /><path fill="rgb(171,188,173)" stroke="rgb(171,188,173)" stroke-width="1" opacity="1" d="M 191.5 171 L 194.5 175 L 191.5 171 Z " /><path fill="rgb(171,188,173)" stroke="rgb(171,188,173)" stroke-width="1" opacity="1" d="M 199.5 180 L 201.5 183 L 199.5 180 Z " /><path fill="rgb(171,188,173)" stroke="rgb(171,188,173)" stroke-width="1" opacity="1" d="M 242.5 186 L 241.5 188 L 242.5 186 Z " /><path fill="rgb(171,188,173)" stroke="rgb(171,188,173)" stroke-width="1" opacity="1" d="M 52.5 187 L 53 191.5 L 52 191.5 L 52.5 187 Z " /><path fill="rgb(171,188,173)" stroke="rgb(171,188,173)" stroke-width="1" opacity="1" d="M 209.5 188 L 210.5 190 L 209.5 188 Z " /><path fill="rgb(171,188,173)" stroke="rgb(171,188,173)" stroke-width="1" opacity="1" d="M 234.5 197 L 233.5 199 L 234.5 197 Z " /><path fill="rgb(171,188,173)" stroke="rgb(171,188,173)" stroke-width="1" opacity="1" d="M 121.5 199 L 119.5 202 L 121.5 199 Z " /><path fill="rgb(171,188,173)" stroke="rgb(171,188,173)" stroke-width="1" opacity="1" d="M 56.5 202 L 57.5 204 L 56.5 202 Z " /><path fill="rgb(171,188,173)" stroke="rgb(171,188,173)" stroke-width="1" opacity="1" d="M 217.5 207 L 216.5 209 L 215 208.5 L 217.5 207 Z " /><path fill="rgb(171,188,173)" stroke="rgb(171,188,173)" stroke-width="1" opacity="1" d="M 104.5 208 L 107 208.5 L 104.5 209 L 104.5 208 Z " /><path fill="rgb(171,188,173)" stroke="rgb(171,188,173)" stroke-width="1" opacity="1" d="M 68.5 212 L 73 215.5 L 73 218.5 L 77 225.5 L 73.5 231 L 72 229.5 L 70 214.5 L 68.5 212 Z " /><path fill="rgb(171,188,173)" stroke="rgb(171,188,173)" stroke-width="1" opacity="1" d="M 178.5 226 L 176.5 229 L 178.5 226 Z " /><path fill="rgb(171,188,173)" stroke="rgb(171,188,173)" stroke-width="1" opacity="1" d="M 83.5 231 L 84.5 233 L 83.5 231 Z " /><path fill="rgb(171,188,173)" stroke="rgb(171,188,173)" stroke-width="1" opacity="1" d="M 86.5 233 L 89.5 237 L 86.5 233 Z " /><path fill="rgb(171,188,173)" stroke="rgb(171,188,173)" stroke-width="1" opacity="1" d="M 93.5 238 L 94.5 240 L 93.5 238 Z " /><path fill="rgb(171,188,173)" stroke="rgb(171,188,173)" stroke-width="1" opacity="1" d="M 123.5 239 L 127 239.5 L 123.5 240 L 123.5 239 Z " /><path fill="rgb(171,188,173)" stroke="rgb(171,188,173)" stroke-width="1" opacity="1" d="M 144.5 241 L 147 241.5 L 144.5 242 L 144.5 241 Z " /><path fill="rgb(171,188,173)" stroke="rgb(171,188,173)" stroke-width="1" opacity="1" d="M 134.5 242 L 139 242.5 L 134.5 243 L 134.5 242 Z " /><path fill="rgb(171,188,173)" stroke="rgb(171,188,173)" stroke-width="1" opacity="1" d="M 106.5 243 L 110 243.5 L 106.5 244 L 106.5 243 Z " /><path fill="rgb(171,188,173)" stroke="rgb(171,188,173)" stroke-width="1" opacity="1" d="M 119.5 243 L 123 243.5 L 119.5 244 L 119.5 243 Z " /><path fill="rgb(171,188,173)" stroke="rgb(171,188,173)" stroke-width="1" opacity="1" d="M 188.5 262 L 189.5 264 L 188.5 262 Z " /><path fill="rgb(133,133,122)" stroke="rgb(133,133,122)" stroke-width="1" opacity="0.9764705882352941" d="M 168.5 0 L 167.5 2 L 168.5 0 Z " /><path fill="rgb(133,133,122)" stroke="rgb(133,133,122)" stroke-width="1" opacity="0.9764705882352941" d="M 222.5 27 L 223.5 29 L 222.5 27 Z " /><path fill="rgb(133,133,122)" stroke="rgb(133,133,122)" stroke-width="1" opacity="0.9764705882352941" d="M 228.5 61 L 310.5 109 L 321 116.5 L 321 162.5 L 319.5 163 L 315.5 161 L 303.5 159 L 287.5 152 Q 269.3 142.3 256 127.5 Q 243.7 114.3 236 96.5 L 230 78.5 L 228 67.5 L 228.5 61 Z " /><path fill="rgb(133,133,122)" stroke="rgb(133,133,122)" stroke-width="1" opacity="0.9764705882352941" d="M 43.5 74 L 42.5 76 L 43.5 74 Z " /><path fill="rgb(133,133,122)" stroke="rgb(133,133,122)" stroke-width="1" opacity="0.9764705882352941" d="M 76.5 115 Q 79.3 116.3 77 117.5 Q 75.8 128.7 80 134.5 Q 71.3 142.3 67 154.5 L 65 161.5 L 65 172.5 Q 66.5 179 71.5 182 Q 75.2 185.3 83.5 184 Q 99.8 178.8 109 166.5 L 117 151 Q 119.7 149.9 119 152.5 Q 113.9 165.4 104.5 174 L 89.5 184 L 82.5 186 L 76.5 186 Q 69.6 184.4 66 179.5 Q 61.5 174 63 162.5 Q 66.8 144.3 78 133.5 Q 73.6 128.3 75 117.5 L 76.5 115 Z " /><path fill="rgb(133,133,122)" stroke="rgb(133,133,122)" stroke-width="1" opacity="0.9764705882352941" d="M 80 118 L 83 119.5 L 84 127.5 Q 82.5 130.5 81 127.5 L 80 118 Z " /><path fill="rgb(133,133,122)" stroke="rgb(133,133,122)" stroke-width="1" opacity="0.9764705882352941" d="M 98.5 121 L 106.5 121 L 107 123 Q 97.8 121.9 93 125 Q 91.9 122.3 94.5 123 L 98.5 121 Z " /><path fill="rgb(133,133,122)" stroke="rgb(133,133,122)" stroke-width="1" opacity="0.9764705882352941" d="M 130.5 141 Q 132.8 140.3 132 142.5 Q 128.7 147 122 147 Q 120.9 144.3 123.5 145 L 130.5 141 Z " /><path fill="rgb(133,133,122)" stroke="rgb(133,133,122)" stroke-width="1" opacity="0.9764705882352941" d="M 83.5 144 Q 86.8 142.9 86 145.5 L 82.5 149 L 81 147.5 L 83.5 144 Z " /><path fill="rgb(133,133,122)" stroke="rgb(133,133,122)" stroke-width="1" opacity="0.9764705882352941" d="M 96.5 147 Q 100.3 145.8 99 149.5 Q 97.8 152.8 94 152 Q 93.3 148.2 96.5 147 Z " /><path fill="rgb(133,133,122)" stroke="rgb(133,133,122)" stroke-width="1" opacity="0.9764705882352941" d="M 232.5 199 L 236 205.5 L 236 211.5 L 235 211.5 L 230 201.5 L 232.5 199 Z " /><path fill="rgb(133,133,122)" stroke="rgb(133,133,122)" stroke-width="1" opacity="0.9764705882352941" d="M 219.5 207 Q 225.5 212.9 226 223 Q 223.3 224.1 224 221.5 L 222 219.5 L 218 208.5 L 219.5 207 Z " /><path fill="rgb(133,133,122)" stroke="rgb(133,133,122)" stroke-width="1" opacity="0.9764705882352941" d="M 67.5 213 L 70 214.5 L 70 221.5 L 72 226.5 L 73 236 Q 70.3 237.1 71 234.5 Q 66.1 226.9 66 214.5 L 67.5 213 Z " /><path fill="rgb(133,133,122)" stroke="rgb(133,133,122)" stroke-width="1" opacity="0.9764705882352941" d="M 283.5 217 L 284 220.5 L 282 224.5 L 278 232 Q 275.3 233.1 276 230.5 L 282 222.5 L 283.5 217 Z " /><path fill="rgb(133,133,122)" stroke="rgb(133,133,122)" stroke-width="1" opacity="0.9764705882352941" d="M 91.5 238 L 94 239 L 94 244 L 96.5 244 Q 120 250.5 133 267.5 L 142 280.5 L 145 288.5 L 145 297.5 L 139.5 307 Q 136.2 305.9 137 308.5 L 142 315.5 L 143 320.5 L 141.5 320 Q 139.3 320.8 140 318.5 Q 134 314.3 132 307 L 123.5 307 L 115 304 L 115 306.5 L 122 319.5 Q 120 323 118 318.5 L 116 315.5 L 106.5 300 Q 91.7 294.3 82 283.5 Q 75.4 277.1 72 267.5 L 71 257.5 L 74 250.5 L 77.5 247 L 84.5 244 L 89.5 244 L 91 242.5 L 91.5 238 Z " /><path fill="rgb(133,133,122)" stroke="rgb(133,133,122)" stroke-width="1" opacity="0.9764705882352941" d="M 125.5 243 L 132.5 244 L 141 251.5 Q 140.3 253.8 142.5 253 L 158 274.5 L 162 283.5 L 162 288.5 L 160 287.5 L 160 283.5 L 155 272.5 Q 147.5 259.5 136.5 250 Q 132.7 245.3 125.5 244 L 125.5 243 Z " /><path fill="rgb(133,133,122)" stroke="rgb(133,133,122)" stroke-width="1" opacity="0.9764705882352941" d="M 266.5 243 L 267 251.5 L 266 255 L 263 254.5 L 266 247.5 L 265 244.5 L 266.5 243 Z " /><path fill="rgb(133,133,122)" stroke="rgb(133,133,122)" stroke-width="1" opacity="0.9764705882352941" d="M 270 243 L 272 243.5 L 272 252.5 L 271 255.5 Q 269.8 269.8 261.5 277 Q 258.3 275.3 262 273.5 Q 267.7 266.7 270 256.5 L 270 254.5 L 270 243 Z " /><path fill="rgb(133,133,122)" stroke="rgb(133,133,122)" stroke-width="1" opacity="0.9764705882352941" d="M 220.5 247 L 224 248.5 L 218.5 249 L 211 252 Q 212.1 254.7 209.5 254 L 203 259.5 L 207.5 254 L 210.5 252 L 220.5 247 Z " /><path fill="rgb(133,133,122)" stroke="rgb(133,133,122)" stroke-width="1" opacity="0.9764705882352941" d="M 242.5 247 L 245 247.5 L 242 249.5 L 243 254.5 Q 241.5 257.5 240 254.5 Q 239.5 249 242.5 247 Z " /><path fill="rgb(133,133,122)" stroke="rgb(133,133,122)" stroke-width="1" opacity="0.9764705882352941" d="M 192.5 258 L 200 264.5 Q 198.8 267.3 197.5 265 L 194 262.5 L 192.5 260 L 191 259.5 L 192.5 258 Z " /><path fill="rgb(133,133,122)" stroke="rgb(133,133,122)" stroke-width="1" opacity="0.9764705882352941" d="M 174.5 264 L 184 269 L 192 281.5 L 192 287 Q 186.6 288.5 185 285.5 L 181 278.5 L 183 277.5 L 187.5 285 Q 191.7 286.3 190 281.5 L 179.5 268 Q 178.1 265.4 173.5 266 Q 169.3 268.8 171 277.5 L 174 284.5 L 182.5 293 L 194.5 300 L 197.5 300 L 203 303 Q 204.1 305.7 201.5 305 L 188.5 299 L 177 290.5 Q 177.8 288.3 175.5 289 Q 168.9 283.1 169 270.5 L 172.5 265 L 174.5 264 Z " /><path fill="rgb(133,133,122)" stroke="rgb(133,133,122)" stroke-width="1" opacity="0.9764705882352941" d="M 141.5 266 Q 144.8 264.9 144 267.5 L 149 272.5 L 153 280.5 Q 151.5 286 154 287.5 L 154 289.5 Q 155.3 294.8 152.5 296 L 152 283.5 Q 149.9 274.1 143.5 269 Q 141.3 269.8 142 267.5 L 141.5 266 Z " /><path fill="rgb(133,133,122)" stroke="rgb(133,133,122)" stroke-width="1" opacity="0.9764705882352941" d="M 232.5 267 L 235 271.5 L 232 273 L 231 268.5 L 232.5 267 Z " /><path fill="rgb(133,133,122)" stroke="rgb(133,133,122)" stroke-width="1" opacity="0.9764705882352941" d="M 247.5 267 L 253 278.5 L 253 289.5 Q 251.5 299 245.5 304 L 239.5 308 L 231.5 310 L 228.5 309 L 222.5 309 L 214.5 305 L 206 297.5 L 202 289.5 L 204 290.5 L 210.5 300 L 219.5 306 L 226.5 308 L 233.5 308 Q 242.8 306.3 247 299.5 L 250 294.5 L 252 286.5 L 251 281.5 L 251 277.5 L 247 269.5 L 247.5 267 Z " /><path fill="rgb(133,133,122)" stroke="rgb(133,133,122)" stroke-width="1" opacity="0.9764705882352941" d="M 214.5 274 L 217 275.5 L 216.5 279 L 214 278 L 213 275.5 L 214.5 274 Z " /><path fill="rgb(133,133,122)" stroke="rgb(133,133,122)" stroke-width="1" opacity="0.9764705882352941" d="M 257.5 299 Q 262.9 303.1 265 310.5 L 262 312 L 256 300.5 L 257.5 299 Z " /><path fill="rgb(133,133,122)" stroke="rgb(133,133,122)" stroke-width="1" opacity="0.9764705882352941" d="M 12.5 306 L 13.5 308 L 12.5 306 Z " /><path fill="rgb(133,133,122)" stroke="rgb(133,133,122)" stroke-width="1" opacity="0.9764705882352941" d="M 219.5 315 L 223 317.5 L 227.5 323 L 231 325.5 Q 231.8 327.8 229.5 327 L 219 318.5 L 218 316.5 L 219.5 315 Z " /><path fill="rgb(133,133,122)" stroke="rgb(133,133,122)" stroke-width="1" opacity="0.9764705882352941" d="M 262.5 349 L 261.5 351 L 262.5 349 Z " /><path fill="rgb(254,229,176)" stroke="rgb(254,229,176)" stroke-width="1" opacity="1" d="M 78 113 Q 86.1 112 90 116.5 L 93.5 126 L 99.5 123 Q 105.8 124.8 107.5 122 Q 114 123.5 117 128.5 L 120.5 136 L 131.5 135 L 138 139.5 L 135 146 L 126.5 152 L 119 153 Q 120.3 148.9 117 150 L 114 158.5 L 101.5 174 L 91.5 181 L 82.5 184 L 76.5 184 Q 70.8 182.8 68 178.5 Q 63.6 173.3 65 162.5 L 68 152.5 Q 71.7 142.7 79 136.5 L 80 132.5 Q 75.7 128.3 77 118.5 L 78 116.5 L 78 114.5 L 78 113 Z M 81 117 L 81 129 L 84 128 Q 85 120 81 117 Z M 130 141 L 123 145 Q 120 144 121 147 Q 129 148 132 143 Q 133 140 130 141 Z M 82 144 L 81 148 L 84 149 L 86 146 L 86 144 L 82 144 Z M 97 147 L 94 150 L 96 153 L 99 151 Q 101 146 97 147 Z " /><path fill="rgb(254,229,176)" stroke="rgb(254,229,176)" stroke-width="1" opacity="1" d="M 242.5 242 Q 246.9 240.5 246 243.5 Q 249.7 245.8 249 252.5 L 245 259.5 L 248 265.5 L 246 268.5 L 250 275.5 L 251 288.5 Q 248.9 298.9 241.5 304 L 230.5 308 L 220.5 306 L 209 297.5 L 207 294.5 L 204 289 L 201 287.5 L 198 280.5 L 197 270.5 L 195.5 269 L 192.5 267 Q 187.9 264.1 187 257.5 Q 189.5 253.5 197.5 255 L 202 257.5 L 203.5 261 L 211 255 Q 209.9 252.3 212.5 253 L 221.5 249 Q 223 251.5 224.5 248 L 228.5 249 Q 230 246.5 231.5 250 Q 235.5 250.5 236 247.5 L 238.5 244 L 242.5 242 Z M 243 246 L 240 252 L 240 254 Q 239 258 243 256 L 244 254 L 243 249 L 246 248 L 243 246 Z M 190 258 L 190 260 L 193 261 L 197 266 Q 201 268 200 264 Q 197 259 190 258 Z M 230 267 Q 229 272 233 274 L 235 273 L 234 269 L 234 267 L 230 267 Z M 215 273 Q 212 274 213 278 L 216 279 L 218 278 L 217 275 L 215 273 Z " /><path fill="rgb(233,232,231)" stroke="rgb(233,232,231)" stroke-width="1" opacity="1" d="M 149.5 87 L 167 87.5 L 149.5 88 L 149.5 87 Z " /><path fill="rgb(233,232,231)" stroke="rgb(233,232,231)" stroke-width="1" opacity="1" d="M 168.5 88 L 172 88.5 L 168.5 89 L 168.5 88 Z " /><path fill="rgb(233,232,231)" stroke="rgb(233,232,231)" stroke-width="1" opacity="1" d="M 142.5 89 L 144 89.5 L 138.5 92 L 138.5 91 L 142.5 89 Z " /><path fill="rgb(233,232,231)" stroke="rgb(233,232,231)" stroke-width="1" opacity="1" d="M 176.5 90 L 180 91.5 L 178.5 92 L 176.5 90 Z " /><path fill="rgb(233,232,231)" stroke="rgb(233,232,231)" stroke-width="1" opacity="1" d="M 136.5 92 L 135.5 94 L 136.5 92 Z " /><path fill="rgb(233,232,231)" stroke="rgb(233,232,231)" stroke-width="1" opacity="1" d="M 181.5 92 L 186 95.5 L 183.5 94 L 181.5 92 Z " /><path fill="rgb(233,232,231)" stroke="rgb(233,232,231)" stroke-width="1" opacity="1" d="M 132.5 95 L 127 101.5 L 125.5 104 L 124 103.5 L 126 103 L 132.5 95 Z " /><path fill="rgb(233,232,231)" stroke="rgb(233,232,231)" stroke-width="1" opacity="1" d="M 187.5 96 L 193.5 103 L 187.5 96 Z " /><path fill="rgb(233,232,231)" stroke="rgb(233,232,231)" stroke-width="1" opacity="1" d="M 106 100 Q 114 98.9 119 101.5 L 113.5 102 Q 112.3 99.8 107.5 101 L 106 101.5 L 106 100 Z " /><path fill="rgb(233,232,231)" stroke="rgb(233,232,231)" stroke-width="1" opacity="1" d="M 101.5 101 L 105 101.5 L 97.5 104 L 97.5 103 L 101.5 101 Z " /><path fill="rgb(233,232,231)" stroke="rgb(233,232,231)" stroke-width="1" opacity="1" d="M 95.5 104 L 94.5 106 L 95.5 104 Z " /><path fill="rgb(233,232,231)" stroke="rgb(233,232,231)" stroke-width="1" opacity="1" d="M 194.5 104 L 198 110.5 L 197 110.5 L 194.5 104 Z " /><path fill="rgb(233,232,231)" stroke="rgb(233,232,231)" stroke-width="1" opacity="1" d="M 185.5 105 L 186.5 107 L 185.5 105 Z " /><path fill="rgb(233,232,231)" stroke="rgb(233,232,231)" stroke-width="1" opacity="1" d="M 92.5 106 L 87.5 112 L 92.5 106 Z " /><path fill="rgb(233,232,231)" stroke="rgb(233,232,231)" stroke-width="1" opacity="1" d="M 69.5 109 L 74 109.5 Q 67.5 109.5 64.5 113 L 65.5 111 L 69.5 109 Z " /><path fill="rgb(233,232,231)" stroke="rgb(233,232,231)" stroke-width="1" opacity="1" d="M 79.5 109 L 84 109.5 L 79.5 110 L 79.5 109 Z " /><path fill="rgb(233,232,231)" stroke="rgb(233,232,231)" stroke-width="1" opacity="1" d="M 190.5 110 L 191.5 112 L 190.5 110 Z " /><path fill="rgb(233,232,231)" stroke="rgb(233,232,231)" stroke-width="1" opacity="1" d="M 181.5 112 L 182.5 114 L 181.5 112 Z " /><path fill="rgb(233,232,231)" stroke="rgb(233,232,231)" stroke-width="1" opacity="1" d="M 62.5 113 L 59.5 117 L 62.5 113 Z " /><path fill="rgb(233,232,231)" stroke="rgb(233,232,231)" stroke-width="1" opacity="1" d="M 199.5 115 L 206 116.5 L 201.5 117 L 199.5 115 Z " /><path fill="rgb(233,232,231)" stroke="rgb(233,232,231)" stroke-width="1" opacity="1" d="M 208.5 117 L 212 118.5 L 210.5 119 L 208.5 117 Z " /><path fill="rgb(233,232,231)" stroke="rgb(233,232,231)" stroke-width="1" opacity="1" d="M 55.5 119 L 54.5 121 L 55.5 119 Z " /><path fill="rgb(233,232,231)" stroke="rgb(233,232,231)" stroke-width="1" opacity="1" d="M 215.5 120 L 216.5 122 L 215.5 120 Z " /><path fill="rgb(233,232,231)" stroke="rgb(233,232,231)" stroke-width="1" opacity="1" d="M 52.5 121 L 46.5 128 L 52.5 121 Z " /><path fill="rgb(233,232,231)" stroke="rgb(233,232,231)" stroke-width="1" opacity="1" d="M 218.5 122 L 219.5 124 L 218.5 122 Z " /><path fill="rgb(233,232,231)" stroke="rgb(233,232,231)" stroke-width="1" opacity="1" d="M 221.5 124 L 231 132.5 L 229.5 132 L 221.5 124 Z " /><path fill="rgb(233,232,231)" stroke="rgb(233,232,231)" stroke-width="1" opacity="1" d="M 45.5 129 L 44.5 131 L 45.5 129 Z " /><path fill="rgb(233,232,231)" stroke="rgb(233,232,231)" stroke-width="1" opacity="1" d="M 233.5 134 L 242 144.5 L 239 142.5 L 233.5 134 Z " /><path fill="rgb(233,232,231)" stroke="rgb(233,232,231)" stroke-width="1" opacity="1" d="M 223.5 135 L 224.5 137 L 223.5 135 Z " /><path fill="rgb(233,232,231)" stroke="rgb(233,232,231)" stroke-width="1" opacity="1" d="M 41.5 137 L 42 139.5 L 41 139.5 L 41.5 137 Z " /><path fill="rgb(233,232,231)" stroke="rgb(233,232,231)" stroke-width="1" opacity="1" d="M 217.5 138 L 218.5 140 L 217.5 138 Z " /><path fill="rgb(233,232,231)" stroke="rgb(233,232,231)" stroke-width="1" opacity="1" d="M 40.5 141 L 41 152.5 L 40 152.5 L 40.5 141 Z " /><path fill="rgb(233,232,231)" stroke="rgb(233,232,231)" stroke-width="1" opacity="1" d="M 219.5 146 L 220.5 148 L 219.5 146 Z " /><path fill="rgb(233,232,231)" stroke="rgb(233,232,231)" stroke-width="1" opacity="1" d="M 242.5 146 L 244 148.5 L 242 147.5 L 242.5 146 Z " /><path fill="rgb(233,232,231)" stroke="rgb(233,232,231)" stroke-width="1" opacity="1" d="M 141.5 151 L 140.5 153 L 141.5 151 Z " /><path fill="rgb(233,232,231)" stroke="rgb(233,232,231)" stroke-width="1" opacity="1" d="M 245.5 154 L 246 158.5 L 245 158.5 L 245.5 154 Z " /><path fill="rgb(233,232,231)" stroke="rgb(233,232,231)" stroke-width="1" opacity="1" d="M 245.5 160 L 247 160.5 L 247 169.5 L 246 169.5 Q 246.7 162 245.5 160 Z " /><path fill="rgb(233,232,231)" stroke="rgb(233,232,231)" stroke-width="1" opacity="1" d="M 245.5 171 L 246 176.5 L 245 176.5 L 245.5 171 Z " /><path fill="rgb(233,232,231)" stroke="rgb(233,232,231)" stroke-width="1" opacity="1" d="M 182.5 176 L 183.5 178 L 182.5 176 Z " /><path fill="rgb(233,232,231)" stroke="rgb(233,232,231)" stroke-width="1" opacity="1" d="M 43.5 179 L 44.5 181 L 43.5 179 Z " /><path fill="rgb(233,232,231)" stroke="rgb(233,232,231)" stroke-width="1" opacity="1" d="M 41.5 181 L 42.5 183 L 41.5 181 Z " /><path fill="rgb(233,232,231)" stroke="rgb(233,232,231)" stroke-width="1" opacity="1" d="M 67.5 181 L 68.5 183 L 67.5 181 Z " /><path fill="rgb(233,232,231)" stroke="rgb(233,232,231)" stroke-width="1" opacity="1" d="M 203.5 181 L 205.5 184 L 203.5 181 Z " /><path fill="rgb(233,232,231)" stroke="rgb(233,232,231)" stroke-width="1" opacity="1" d="M 43.5 184 Q 48.2 185.3 47 192.5 L 46 192.5 L 46 188.5 L 43.5 184 Z " /><path fill="rgb(233,232,231)" stroke="rgb(233,232,231)" stroke-width="1" opacity="1" d="M 67.5 184 L 68.5 186 L 67.5 184 Z " /><path fill="rgb(233,232,231)" stroke="rgb(233,232,231)" stroke-width="1" opacity="1" d="M 240.5 187 L 239.5 189 L 240.5 187 Z " /><path fill="rgb(233,232,231)" stroke="rgb(233,232,231)" stroke-width="1" opacity="1" d="M 208.5 190 L 209.5 192 L 208.5 190 Z " /><path fill="rgb(233,232,231)" stroke="rgb(233,232,231)" stroke-width="1" opacity="1" d="M 237.5 190 L 238 191.5 L 236 192.5 L 237.5 190 Z " /><path fill="rgb(233,232,231)" stroke="rgb(233,232,231)" stroke-width="1" opacity="1" d="M 47.5 194 L 49 197.5 L 48 197.5 L 47.5 194 Z " /><path fill="rgb(233,232,231)" stroke="rgb(233,232,231)" stroke-width="1" opacity="1" d="M 70.5 196 L 71.5 198 L 70.5 196 Z " /><path fill="rgb(233,232,231)" stroke="rgb(233,232,231)" stroke-width="1" opacity="1" d="M 125.5 196 L 124.5 198 L 125.5 196 Z " /><path fill="rgb(233,232,231)" stroke="rgb(233,232,231)" stroke-width="1" opacity="1" d="M 233.5 196 L 231.5 199 L 233.5 196 Z " /><path fill="rgb(233,232,231)" stroke="rgb(233,232,231)" stroke-width="1" opacity="1" d="M 120.5 197 L 118.5 200 L 120.5 197 Z " /><path fill="rgb(233,232,231)" stroke="rgb(233,232,231)" stroke-width="1" opacity="1" d="M 49.5 199 L 50.5 201 L 49.5 199 Z " /><path fill="rgb(233,232,231)" stroke="rgb(233,232,231)" stroke-width="1" opacity="1" d="M 145.5 200 L 146.5 202 L 145.5 200 Z " /><path fill="rgb(233,232,231)" stroke="rgb(233,232,231)" stroke-width="1" opacity="1" d="M 228.5 200 L 226.5 203 L 228.5 200 Z " /><path fill="rgb(233,232,231)" stroke="rgb(233,232,231)" stroke-width="1" opacity="1" d="M 58.5 201 L 61.5 205 L 58.5 201 Z " /><path fill="rgb(233,232,231)" stroke="rgb(233,232,231)" stroke-width="1" opacity="1" d="M 52.5 202 L 56.5 207 L 52.5 202 Z " /><path fill="rgb(233,232,231)" stroke="rgb(233,232,231)" stroke-width="1" opacity="1" d="M 118.5 202 L 117.5 204 L 118.5 202 Z " /><path fill="rgb(233,232,231)" stroke="rgb(233,232,231)" stroke-width="1" opacity="1" d="M 219.5 205 L 221 205.5 L 215.5 208 L 215.5 207 L 219.5 205 Z " /><path fill="rgb(233,232,231)" stroke="rgb(233,232,231)" stroke-width="1" opacity="1" d="M 136.5 207 L 135.5 209 L 136.5 207 Z " /><path fill="rgb(233,232,231)" stroke="rgb(233,232,231)" stroke-width="1" opacity="1" d="M 210.5 208 L 213 208.5 L 210.5 209 L 210.5 208 Z " /><path fill="rgb(233,232,231)" stroke="rgb(233,232,231)" stroke-width="1" opacity="1" d="M 61.5 209 L 63.5 210 L 65 209.5 Q 63.7 212.3 62.5 210 L 61.5 209 Z " /><path fill="rgb(233,232,231)" stroke="rgb(233,232,231)" stroke-width="1" opacity="1" d="M 194.5 209 L 193.5 211 L 194.5 209 Z " /><path fill="rgb(233,232,231)" stroke="rgb(233,232,231)" stroke-width="1" opacity="1" d="M 206.5 209 L 208 209.5 L 201.5 215 L 206.5 209 Z " /><path fill="rgb(233,232,231)" stroke="rgb(233,232,231)" stroke-width="1" opacity="1" d="M 65.5 211 L 74 212 L 73.5 217 L 73 213 L 65.5 212 L 65.5 211 Z " /><path fill="rgb(233,232,231)" stroke="rgb(233,232,231)" stroke-width="1" opacity="1" d="M 169.5 214 L 168.5 216 L 169.5 214 Z " /><path fill="rgb(233,232,231)" stroke="rgb(233,232,231)" stroke-width="1" opacity="1" d="M 199.5 215 L 198.5 217 L 199.5 215 Z " /><path fill="rgb(233,232,231)" stroke="rgb(233,232,231)" stroke-width="1" opacity="1" d="M 196.5 217 L 195.5 219 L 193.5 220 L 194.5 218 L 196.5 217 Z " /><path fill="rgb(233,232,231)" stroke="rgb(233,232,231)" stroke-width="1" opacity="1" d="M 75.5 220 L 77 222.5 L 75 221.5 L 75.5 220 Z " /><path fill="rgb(233,232,231)" stroke="rgb(233,232,231)" stroke-width="1" opacity="1" d="M 188.5 221 L 190 221.5 L 184.5 224 L 184.5 223 L 188.5 221 Z " /><path fill="rgb(233,232,231)" stroke="rgb(233,232,231)" stroke-width="1" opacity="1" d="M 77.5 224 L 83.5 231 L 77.5 224 Z " /><path fill="rgb(233,232,231)" stroke="rgb(233,232,231)" stroke-width="1" opacity="1" d="M 178.5 225 L 177.5 227 L 178.5 225 Z " /><path fill="rgb(233,232,231)" stroke="rgb(233,232,231)" stroke-width="1" opacity="1" d="M 174.5 228 L 172.5 231 L 174.5 228 Z " /><path fill="rgb(233,232,231)" stroke="rgb(233,232,231)" stroke-width="1" opacity="1" d="M 93.5 237 L 94.5 239 L 93.5 237 Z " /><path fill="rgb(233,232,231)" stroke="rgb(233,232,231)" stroke-width="1" opacity="1" d="M 148.5 239 L 152 239.5 L 148.5 240 L 148.5 239 Z " /><path fill="rgb(233,232,231)" stroke="rgb(233,232,231)" stroke-width="1" opacity="1" d="M 139.5 240 L 147 240.5 L 139.5 241 L 139.5 240 Z " /><path fill="rgb(233,232,231)" stroke="rgb(233,232,231)" stroke-width="1" opacity="1" d="M 101.5 241 L 106.5 242 L 121.5 242 L 123 241.5 L 122.5 243 L 106.5 243 L 101.5 242 L 101.5 241 Z " /><path fill="rgb(233,232,231)" stroke="rgb(233,232,231)" stroke-width="1" opacity="1" d="M 124.5 241 L 138 241.5 L 124.5 242 L 124.5 241 Z " /><path fill="rgb(236,235,233)" stroke="rgb(236,235,233)" stroke-width="1" opacity="0.996078431372549" d="M 147.5 88 L 167.5 88 L 172.5 89 Q 186.3 93.3 194 103.5 L 199 116 Q 201.4 117.8 207.5 117 L 214.5 120 L 237 138.5 L 244 149.5 L 246 159.5 L 246 161.5 L 245 178.5 L 239 190 Q 236.3 188.9 237 191.5 L 235 196 L 221.5 205 L 214.5 208 L 206.5 209 Q 200.9 215.9 192.5 220 L 178.5 225 Q 171 233 159.5 237 L 147.5 240 L 124.5 241 L 123.5 242 L 121.5 242 L 99.5 241 Q 85.8 234.7 77 223.5 L 74 217.5 L 74 212 L 64.5 211 L 51 202 L 47 193.5 L 47 187.5 L 43 183.5 L 44.5 184 L 46.5 185 L 48 182 L 42 179 L 40 174.5 L 39 167.5 Q 41.7 165.8 40 159.5 L 42 154 Q 44.7 155.1 44 152.5 L 41 151.5 L 42 135.5 Q 46 126.5 53.5 121 L 58 119 Q 56.9 116.3 59.5 117 Q 64.8 108.8 78.5 109 Q 79.7 111.2 84.5 110 L 87.5 112 Q 93.3 103.3 105.5 101 L 107.5 101 L 120.5 102 L 125.5 104 L 134.5 94 L 147.5 88 Z M 163 91 L 161 93 L 178 99 L 188 107 Q 195 113 197 124 L 208 126 L 221 133 Q 234 142 238 161 Q 239 172 235 178 L 228 183 L 221 182 L 216 177 Q 215 169 218 166 Q 219 161 225 162 Q 230 164 228 174 L 230 173 Q 231 166 229 163 L 226 160 L 219 161 L 214 169 Q 212 177 215 181 Q 218 185 224 186 L 234 183 L 238 178 L 241 168 L 241 162 L 239 155 L 231 140 L 220 129 L 205 122 L 199 122 L 199 119 L 195 112 Q 185 95 163 91 Z M 147 98 L 142 101 L 136 108 Q 135 111 138 110 L 139 108 L 149 100 L 156 100 L 163 102 L 177 111 L 185 122 Q 186 126 184 127 Q 177 128 175 125 L 173 122 L 178 124 Q 180 125 179 123 L 175 119 Q 169 118 168 121 L 169 124 L 179 130 L 185 129 L 188 125 L 187 120 L 183 114 L 167 101 L 159 98 L 147 98 Z M 78 113 L 78 115 L 75 117 Q 73 127 77 133 L 77 135 L 67 149 L 63 161 Q 61 175 67 182 L 75 186 L 85 186 L 101 178 Q 112 169 118 155 L 123 152 L 129 151 L 135 146 L 138 140 L 132 135 Q 124 134 121 136 L 117 129 L 113 124 L 107 121 L 95 122 L 93 125 L 91 118 Q 88 112 78 113 Z M 192 127 L 192 130 L 198 133 Q 210 131 216 136 L 220 143 L 224 145 L 224 143 L 219 135 L 212 131 Q 207 132 206 130 L 201 131 L 196 129 Q 193 130 194 127 L 192 127 Z M 202 139 L 200 141 L 204 143 Q 211 142 214 145 L 220 151 Q 219 154 223 152 L 221 148 L 212 141 Q 205 142 202 139 Z M 140 148 L 140 150 L 128 158 Q 122 156 123 160 L 130 160 L 142 152 Q 143 147 140 148 Z M 174 156 L 164 159 L 157 164 L 153 165 Q 147 164 149 168 L 156 167 L 166 161 L 179 158 Q 191 159 198 165 Q 204 169 207 177 L 209 176 L 204 168 L 192 158 Q 185 155 174 156 Z M 183 164 L 182 167 L 191 171 L 204 187 Q 209 193 218 196 L 221 195 Q 223 196 222 193 Q 215 194 212 190 L 197 174 Q 192 167 183 164 Z M 171 171 L 169 174 L 173 173 L 181 175 L 191 182 L 196 189 L 197 190 Q 189 191 185 188 L 184 186 L 188 188 L 191 188 L 184 183 L 177 183 L 177 186 Q 182 191 192 193 Q 197 194 199 192 Q 200 187 197 185 L 183 173 Q 179 170 171 171 Z M 64 182 L 64 185 L 67 189 L 74 192 L 79 192 L 87 195 L 89 198 L 90 204 L 92 203 L 92 198 L 90 194 L 85 191 L 77 190 L 71 187 Q 68 188 69 186 L 64 182 Z M 54 185 L 52 187 L 53 198 L 55 202 L 65 210 L 75 210 Q 79 208 77 200 L 71 193 L 65 193 L 67 201 L 71 203 L 72 204 Q 73 200 70 201 L 68 197 L 69 195 L 73 198 L 75 202 L 74 208 L 65 207 L 56 199 L 55 196 L 55 186 L 54 185 Z M 137 190 L 125 194 Q 118 202 108 206 Q 101 204 103 209 L 113 207 L 128 195 L 139 192 L 154 195 Q 158 196 157 193 L 146 190 L 137 190 Z M 136 196 L 127 200 L 118 209 L 118 211 L 124 214 Q 132 215 137 211 Q 140 210 139 205 L 137 204 L 135 205 Q 130 203 131 207 Q 132 209 134 207 L 136 208 L 131 211 L 123 211 L 121 210 L 122 208 L 132 200 L 144 199 L 148 205 L 145 212 L 136 218 L 121 222 Q 107 224 101 218 Q 98 217 99 221 L 107 224 L 124 224 L 133 222 L 142 218 L 149 211 L 150 208 L 149 201 Q 146 195 136 196 Z M 196 198 L 185 201 L 171 201 L 170 203 L 176 204 L 189 203 L 202 200 L 208 201 L 211 203 Q 218 205 216 200 L 214 201 Q 207 197 196 198 Z M 83 201 L 82 205 L 82 217 L 88 228 L 104 237 L 119 240 L 131 240 L 132 239 L 144 238 Q 160 235 172 227 L 173 224 L 171 224 L 156 232 L 136 237 Q 107 240 93 228 Q 87 223 84 215 L 84 207 L 85 206 Q 87 200 83 201 Z M 200 204 L 197 208 Q 192 215 181 215 L 179 218 Q 194 217 201 207 L 200 204 Z M 171 210 L 155 223 L 141 229 L 132 230 Q 129 232 132 233 Q 153 230 166 218 L 169 216 L 171 213 L 171 210 Z " /><path fill="rgb(164,171,158)" stroke="rgb(164,171,158)" stroke-width="1" opacity="0.996078431372549" d="M 171.5 29 L 174 29.5 L 166.5 33 L 167.5 31 L 171.5 29 Z " /><path fill="rgb(164,171,158)" stroke="rgb(164,171,158)" stroke-width="1" opacity="0.996078431372549" d="M 175.5 30 L 186 36.5 L 184.5 36 L 176.5 32 L 175.5 30 Z " /><path fill="rgb(164,171,158)" stroke="rgb(164,171,158)" stroke-width="1" opacity="0.996078431372549" d="M 164.5 33 L 163.5 35 L 161.5 36 L 162.5 34 L 164.5 33 Z " /><path fill="rgb(164,171,158)" stroke="rgb(164,171,158)" stroke-width="1" opacity="0.996078431372549" d="M 159.5 36 L 158.5 38 L 154.5 40 L 155.5 38 L 159.5 36 Z " /><path fill="rgb(164,171,158)" stroke="rgb(164,171,158)" stroke-width="1" opacity="0.996078431372549" d="M 187.5 37 L 220 56.5 L 218.5 56 L 188.5 39 L 187.5 37 Z " /><path fill="rgb(164,171,158)" stroke="rgb(164,171,158)" stroke-width="1" opacity="0.996078431372549" d="M 152.5 40 L 151.5 42 L 142.5 47 L 143.5 45 L 152.5 40 Z " /><path fill="rgb(164,171,158)" stroke="rgb(164,171,158)" stroke-width="1" opacity="0.996078431372549" d="M 140.5 47 L 139.5 49 L 130.5 54 L 131.5 52 L 140.5 47 Z " /><path fill="rgb(164,171,158)" stroke="rgb(164,171,158)" stroke-width="1" opacity="0.996078431372549" d="M 128.5 54 L 127.5 56 L 123.5 58 L 124.5 56 L 128.5 54 Z " /><path fill="rgb(164,171,158)" stroke="rgb(164,171,158)" stroke-width="1" opacity="0.996078431372549" d="M 221.5 57 L 228 61.5 L 227.5 63 L 225.5 60 Q 221.5 59.5 221.5 57 Z " /><path fill="rgb(164,171,158)" stroke="rgb(164,171,158)" stroke-width="1" opacity="0.996078431372549" d="M 121.5 58 L 120.5 60 L 116.5 62 L 117.5 60 L 121.5 58 Z " /><path fill="rgb(164,171,158)" stroke="rgb(164,171,158)" stroke-width="1" opacity="0.996078431372549" d="M 114.5 62 L 113.5 64 L 104.5 69 L 105.5 67 L 114.5 62 Z " /><path fill="rgb(164,171,158)" stroke="rgb(164,171,158)" stroke-width="1" opacity="0.996078431372549" d="M 102.5 69 L 101.5 71 L 92.5 76 L 93.5 74 L 102.5 69 Z " /><path fill="rgb(164,171,158)" stroke="rgb(164,171,158)" stroke-width="1" opacity="0.996078431372549" d="M 228.5 69 L 229 71.5 L 228 71.5 L 228.5 69 Z " /><path fill="rgb(164,171,158)" stroke="rgb(164,171,158)" stroke-width="1" opacity="0.996078431372549" d="M 90.5 76 L 89.5 78 L 85.5 80 L 86.5 78 L 90.5 76 Z " /><path fill="rgb(164,171,158)" stroke="rgb(164,171,158)" stroke-width="1" opacity="0.996078431372549" d="M 83.5 80 L 82.5 82 L 73.5 87 L 74.5 85 L 83.5 80 Z " /><path fill="rgb(164,171,158)" stroke="rgb(164,171,158)" stroke-width="1" opacity="0.996078431372549" d="M 71.5 87 L 70.5 89 L 61.5 94 L 62.5 92 L 71.5 87 Z " /><path fill="rgb(164,171,158)" stroke="rgb(164,171,158)" stroke-width="1" opacity="0.996078431372549" d="M 59.5 94 L 58.5 96 L 42.5 105 L 43.5 103 L 59.5 94 Z " /><path fill="rgb(164,171,158)" stroke="rgb(164,171,158)" stroke-width="1" opacity="0.996078431372549" d="M 186.5 103 L 188.5 106 L 186.5 103 Z " /><path fill="rgb(164,171,158)" stroke="rgb(164,171,158)" stroke-width="1" opacity="0.996078431372549" d="M 40.5 105 L 39.5 107 L 35.5 109 L 36.5 107 L 40.5 105 Z " /><path fill="rgb(164,171,158)" stroke="rgb(164,171,158)" stroke-width="1" opacity="0.996078431372549" d="M 240.5 106 L 241.5 108 L 240.5 106 Z " /><path fill="rgb(164,171,158)" stroke="rgb(164,171,158)" stroke-width="1" opacity="0.996078431372549" d="M 190.5 107 L 192.5 110 L 190.5 107 Z " /><path fill="rgb(164,171,158)" stroke="rgb(164,171,158)" stroke-width="1" opacity="0.996078431372549" d="M 33.5 109 L 32.5 111 L 26 114 L 26 122.5 L 24.5 124 L 25 122.5 L 25 114.5 L 26.5 113 L 33.5 109 Z " /><path fill="rgb(164,171,158)" stroke="rgb(164,171,158)" stroke-width="1" opacity="0.996078431372549" d="M 247.5 117 L 248.5 119 L 247.5 117 Z " /><path fill="rgb(164,171,158)" stroke="rgb(164,171,158)" stroke-width="1" opacity="0.996078431372549" d="M 250.5 121 L 251.5 123 L 250.5 121 Z " /><path fill="rgb(164,171,158)" stroke="rgb(164,171,158)" stroke-width="1" opacity="0.996078431372549" d="M 25.5 125 L 26 129.5 L 26 131.5 Q 23.3 135.3 25 143.5 L 26 144.5 L 26 180.5 L 25 181.5 L 25 268.5 L 23.5 270 L 23 268.5 L 24 267.5 L 24 128.5 L 25 127.5 Q 22.7 126.2 25.5 125 Z " /><path fill="rgb(164,171,158)" stroke="rgb(164,171,158)" stroke-width="1" opacity="0.996078431372549" d="M 186.5 126 L 185.5 128 L 186.5 126 Z " /><path fill="rgb(164,171,158)" stroke="rgb(164,171,158)" stroke-width="1" opacity="0.996078431372549" d="M 254.5 126 L 265.5 138 L 254.5 126 Z " /><path fill="rgb(164,171,158)" stroke="rgb(164,171,158)" stroke-width="1" opacity="0.996078431372549" d="M 216.5 136 L 217.5 138 L 216.5 136 Z " /><path fill="rgb(164,171,158)" stroke="rgb(164,171,158)" stroke-width="1" opacity="0.996078431372549" d="M 268.5 139 L 270.5 142 L 268.5 139 Z " /><path fill="rgb(164,171,158)" stroke="rgb(164,171,158)" stroke-width="1" opacity="0.996078431372549" d="M 273.5 143 L 274.5 145 L 273.5 143 Z " /><path fill="rgb(164,171,158)" stroke="rgb(164,171,158)" stroke-width="1" opacity="0.996078431372549" d="M 276.5 145 L 277.5 147 L 276.5 145 Z " /><path fill="rgb(164,171,158)" stroke="rgb(164,171,158)" stroke-width="1" opacity="0.996078431372549" d="M 218.5 148 L 219.5 150 L 218.5 148 Z " /><path fill="rgb(164,171,158)" stroke="rgb(164,171,158)" stroke-width="1" opacity="0.996078431372549" d="M 139.5 150 L 138.5 152 L 139.5 150 Z " /><path fill="rgb(164,171,158)" stroke="rgb(164,171,158)" stroke-width="1" opacity="0.996078431372549" d="M 297.5 156 L 302 158.5 L 300.5 159 L 297.5 156 Z " /><path fill="rgb(164,171,158)" stroke="rgb(164,171,158)" stroke-width="1" opacity="0.996078431372549" d="M 303.5 159 L 306 159.5 L 303.5 160 L 303.5 159 Z " /><path fill="rgb(164,171,158)" stroke="rgb(164,171,158)" stroke-width="1" opacity="0.996078431372549" d="M 310.5 161 L 314 161.5 L 310.5 162 L 310.5 161 Z " /><path fill="rgb(164,171,158)" stroke="rgb(164,171,158)" stroke-width="1" opacity="0.996078431372549" d="M 197.5 162 L 198.5 164 L 197.5 162 Z " /><path fill="rgb(164,171,158)" stroke="rgb(164,171,158)" stroke-width="1" opacity="0.996078431372549" d="M 37.5 163 L 38 165.5 L 37 165.5 L 37.5 163 Z " /><path fill="rgb(164,171,158)" stroke="rgb(164,171,158)" stroke-width="1" opacity="0.996078431372549" d="M 318.5 163 L 321 163.5 L 321 187.5 L 322 191.5 L 321 191.5 L 320 188.5 L 320 164 L 318.5 163 Z " /><path fill="rgb(164,171,158)" stroke="rgb(164,171,158)" stroke-width="1" opacity="0.996078431372549" d="M 250.5 164 L 251.5 166 L 250.5 164 Z " /><path fill="rgb(164,171,158)" stroke="rgb(164,171,158)" stroke-width="1" opacity="0.996078431372549" d="M 255.5 174 L 257 176.5 L 255 175.5 L 255.5 174 Z " /><path fill="rgb(164,171,158)" stroke="rgb(164,171,158)" stroke-width="1" opacity="0.996078431372549" d="M 261.5 175 L 265 175.5 L 261.5 176 L 261.5 175 Z " /><path fill="rgb(164,171,158)" stroke="rgb(164,171,158)" stroke-width="1" opacity="0.996078431372549" d="M 277.5 180 L 285.5 189 L 277.5 180 Z " /><path fill="rgb(164,171,158)" stroke="rgb(164,171,158)" stroke-width="1" opacity="0.996078431372549" d="M 42.5 181 L 43.5 183 L 42.5 181 Z " /><path fill="rgb(164,171,158)" stroke="rgb(164,171,158)" stroke-width="1" opacity="0.996078431372549" d="M 216.5 181 L 217.5 183 L 216.5 181 Z " /><path fill="rgb(164,171,158)" stroke="rgb(164,171,158)" stroke-width="1" opacity="0.996078431372549" d="M 202.5 183 L 203.5 185 L 202.5 183 Z " /><path fill="rgb(164,171,158)" stroke="rgb(164,171,158)" stroke-width="1" opacity="0.996078431372549" d="M 320.5 193 L 322 197.5 L 321 200.5 L 322 201.5 L 322 282.5 L 302.5 295 L 303.5 293 L 321 282.5 L 320 281.5 L 320 234.5 L 321 233.5 L 321 211.5 L 320 207.5 L 321 204.5 Q 318.3 200.6 320.5 193 Z " /><path fill="rgb(164,171,158)" stroke="rgb(164,171,158)" stroke-width="1" opacity="0.996078431372549" d="M 68.5 201 L 69.5 203 L 68.5 201 Z " /><path fill="rgb(164,171,158)" stroke="rgb(164,171,158)" stroke-width="1" opacity="0.996078431372549" d="M 58.5 204 L 59.5 206 L 58.5 204 Z " /><path fill="rgb(164,171,158)" stroke="rgb(164,171,158)" stroke-width="1" opacity="0.996078431372549" d="M 121.5 205 L 120.5 207 L 121.5 205 Z " /><path fill="rgb(164,171,158)" stroke="rgb(164,171,158)" stroke-width="1" opacity="0.996078431372549" d="M 292.5 206 L 293 211.5 L 292 211.5 L 292.5 206 Z " /><path fill="rgb(164,171,158)" stroke="rgb(164,171,158)" stroke-width="1" opacity="0.996078431372549" d="M 138.5 208 L 137.5 210 L 138.5 208 Z " /><path fill="rgb(164,171,158)" stroke="rgb(164,171,158)" stroke-width="1" opacity="0.996078431372549" d="M 168.5 212 L 165.5 216 L 168.5 212 Z " /><path fill="rgb(164,171,158)" stroke="rgb(164,171,158)" stroke-width="1" opacity="0.996078431372549" d="M 125.5 213 L 128 213.5 L 125.5 214 L 125.5 213 Z " /><path fill="rgb(164,171,158)" stroke="rgb(164,171,158)" stroke-width="1" opacity="0.996078431372549" d="M 292.5 213 L 293 217.5 L 292 217.5 L 292.5 213 Z " /><path fill="rgb(164,171,158)" stroke="rgb(164,171,158)" stroke-width="1" opacity="0.996078431372549" d="M 86.5 224 L 87.5 226 L 86.5 224 Z " /><path fill="rgb(164,171,158)" stroke="rgb(164,171,158)" stroke-width="1" opacity="0.996078431372549" d="M 89.5 225 L 90.5 227 L 89.5 225 Z " /><path fill="rgb(164,171,158)" stroke="rgb(164,171,158)" stroke-width="1" opacity="0.996078431372549" d="M 72.5 230 L 73.5 232 L 72.5 230 Z " /><path fill="rgb(164,171,158)" stroke="rgb(164,171,158)" stroke-width="1" opacity="0.996078431372549" d="M 287.5 232 L 286.5 234 L 287.5 232 Z " /><path fill="rgb(164,171,158)" stroke="rgb(164,171,158)" stroke-width="1" opacity="0.996078431372549" d="M 284.5 236 L 283.5 238 L 284.5 236 Z " /><path fill="rgb(164,171,158)" stroke="rgb(164,171,158)" stroke-width="1" opacity="0.996078431372549" d="M 281.5 240 L 281 241.5 L 280.5 244 L 280 241.5 L 281.5 240 Z " /><path fill="rgb(164,171,158)" stroke="rgb(164,171,158)" stroke-width="1" opacity="0.996078431372549" d="M 69.5 243 L 70 253.5 L 69 253.5 L 69.5 243 Z " /><path fill="rgb(164,171,158)" stroke="rgb(164,171,158)" stroke-width="1" opacity="0.996078431372549" d="M 70.5 257 L 71 264.5 L 70 264.5 L 70.5 257 Z " /><path fill="rgb(164,171,158)" stroke="rgb(164,171,158)" stroke-width="1" opacity="0.996078431372549" d="M 23.5 271 Q 26.5 270.1 25 274.5 L 25 276.5 L 24 282.5 L 26.5 286 L 24 285 Q 21.9 281.7 23 273.5 L 23.5 271 Z " /><path fill="rgb(164,171,158)" stroke="rgb(164,171,158)" stroke-width="1" opacity="0.996078431372549" d="M 74.5 274 L 75.5 276 L 74.5 274 Z " /><path fill="rgb(164,171,158)" stroke="rgb(164,171,158)" stroke-width="1" opacity="0.996078431372549" d="M 76.5 277 L 88.5 290 L 93 293.5 L 89.5 291 L 78 280.5 L 76.5 277 Z " /><path fill="rgb(164,171,158)" stroke="rgb(164,171,158)" stroke-width="1" opacity="0.996078431372549" d="M 269.5 283 L 268.5 285 L 269.5 283 Z " /><path fill="rgb(164,171,158)" stroke="rgb(164,171,158)" stroke-width="1" opacity="0.996078431372549" d="M 28.5 286 L 34 289.5 L 32.5 289 Q 28.5 288.5 28.5 286 Z " /><path fill="rgb(164,171,158)" stroke="rgb(164,171,158)" stroke-width="1" opacity="0.996078431372549" d="M 266.5 288 L 265.5 290 L 266.5 288 Z " /><path fill="rgb(164,171,158)" stroke="rgb(164,171,158)" stroke-width="1" opacity="0.996078431372549" d="M 35.5 290 L 41 293.5 L 39.5 293 Q 35.5 292.5 35.5 290 Z " /><path fill="rgb(164,171,158)" stroke="rgb(164,171,158)" stroke-width="1" opacity="0.996078431372549" d="M 263.5 292 L 262.5 294 L 263.5 292 Z " /><path fill="rgb(164,171,158)" stroke="rgb(164,171,158)" stroke-width="1" opacity="0.996078431372549" d="M 42.5 294 L 46 296.5 L 44.5 296 L 42.5 294 Z " /><path fill="rgb(164,171,158)" stroke="rgb(164,171,158)" stroke-width="1" opacity="0.996078431372549" d="M 94.5 294 L 95.5 296 L 94.5 294 Z " /><path fill="rgb(164,171,158)" stroke="rgb(164,171,158)" stroke-width="1" opacity="0.996078431372549" d="M 300.5 295 L 299.5 297 L 297.5 298 L 298.5 296 L 300.5 295 Z " /><path fill="rgb(164,171,158)" stroke="rgb(164,171,158)" stroke-width="1" opacity="0.996078431372549" d="M 97.5 296 L 108 301.5 L 106.5 302 L 98.5 298 L 97.5 296 Z " /><path fill="rgb(164,171,158)" stroke="rgb(164,171,158)" stroke-width="1" opacity="0.996078431372549" d="M 260.5 296 L 258.5 299 L 260.5 296 Z " /><path fill="rgb(164,171,158)" stroke="rgb(164,171,158)" stroke-width="1" opacity="0.996078431372549" d="M 47.5 297 L 53 300.5 L 51.5 300 Q 47.5 299.5 47.5 297 Z " /><path fill="rgb(164,171,158)" stroke="rgb(164,171,158)" stroke-width="1" opacity="0.996078431372549" d="M 295.5 298 L 294.5 300 L 287.5 304 L 288.5 302 L 295.5 298 Z " /><path fill="rgb(164,171,158)" stroke="rgb(164,171,158)" stroke-width="1" opacity="0.996078431372549" d="M 173.5 300 L 176 300.5 L 173.5 301 L 173.5 300 Z " /><path fill="rgb(164,171,158)" stroke="rgb(164,171,158)" stroke-width="1" opacity="0.996078431372549" d="M 54.5 301 L 60 304.5 L 58.5 304 Q 54.5 303.5 54.5 301 Z " /><path fill="rgb(164,171,158)" stroke="rgb(164,171,158)" stroke-width="1" opacity="0.996078431372549" d="M 177.5 301 L 178.5 303 L 177.5 301 Z " /><path fill="rgb(164,171,158)" stroke="rgb(164,171,158)" stroke-width="1" opacity="0.996078431372549" d="M 253.5 302 L 251.5 305 L 253.5 302 Z " /><path fill="rgb(164,171,158)" stroke="rgb(164,171,158)" stroke-width="1" opacity="0.996078431372549" d="M 161.5 303 L 160.5 305 L 159 304.5 L 161.5 303 Z " /><path fill="rgb(164,171,158)" stroke="rgb(164,171,158)" stroke-width="1" opacity="0.996078431372549" d="M 180.5 303 L 181.5 305 L 180.5 303 Z " /><path fill="rgb(164,171,158)" stroke="rgb(164,171,158)" stroke-width="1" opacity="0.996078431372549" d="M 115.5 304 L 122 306.5 L 119.5 307 Q 115.5 306.5 115.5 304 Z " /><path fill="rgb(164,171,158)" stroke="rgb(164,171,158)" stroke-width="1" opacity="0.996078431372549" d="M 285.5 304 L 284.5 306 L 282.5 307 L 283.5 305 L 285.5 304 Z " /><path fill="rgb(164,171,158)" stroke="rgb(164,171,158)" stroke-width="1" opacity="0.996078431372549" d="M 61.5 305 L 67 308.5 L 65.5 308 Q 61.5 307.5 61.5 305 Z " /><path fill="rgb(164,171,158)" stroke="rgb(164,171,158)" stroke-width="1" opacity="0.996078431372549" d="M 258.5 306 L 262 310.5 L 259 308.5 L 258.5 306 Z " /><path fill="rgb(164,171,158)" stroke="rgb(164,171,158)" stroke-width="1" opacity="0.996078431372549" d="M 280.5 307 L 279.5 309 L 277.5 310 L 278.5 308 L 280.5 307 Z " /><path fill="rgb(164,171,158)" stroke="rgb(164,171,158)" stroke-width="1" opacity="0.996078431372549" d="M 137.5 308 Q 140.1 307.2 139 310.5 L 138 310.5 L 137.5 308 Z " /><path fill="rgb(164,171,158)" stroke="rgb(164,171,158)" stroke-width="1" opacity="0.996078431372549" d="M 68.5 309 L 74 312.5 L 72.5 312 Q 68.5 311.5 68.5 309 Z " /><path fill="rgb(164,171,158)" stroke="rgb(164,171,158)" stroke-width="1" opacity="0.996078431372549" d="M 132.5 310 L 133.5 312 L 132.5 310 Z " /><path fill="rgb(164,171,158)" stroke="rgb(164,171,158)" stroke-width="1" opacity="0.996078431372549" d="M 275.5 310 L 274.5 312 L 267.5 316 L 268.5 314 L 275.5 310 Z " /><path fill="rgb(164,171,158)" stroke="rgb(164,171,158)" stroke-width="1" opacity="0.996078431372549" d="M 118.5 311 L 120 313.5 L 118 312.5 L 118.5 311 Z " /><path fill="rgb(164,171,158)" stroke="rgb(164,171,158)" stroke-width="1" opacity="0.996078431372549" d="M 75.5 313 L 88 320.5 L 86.5 320 L 76.5 315 L 75.5 313 Z " /><path fill="rgb(164,171,158)" stroke="rgb(164,171,158)" stroke-width="1" opacity="0.996078431372549" d="M 113.5 313 L 114.5 315 L 113.5 313 Z " /><path fill="rgb(164,171,158)" stroke="rgb(164,171,158)" stroke-width="1" opacity="0.996078431372549" d="M 212.5 315 Q 218 314 219 317.5 L 216.5 316 Q 211.5 317 212.5 315 Z " /><path fill="rgb(164,171,158)" stroke="rgb(164,171,158)" stroke-width="1" opacity="0.996078431372549" d="M 221.5 315 L 224 315.5 L 221.5 316 L 221.5 315 Z " /><path fill="rgb(164,171,158)" stroke="rgb(164,171,158)" stroke-width="1" opacity="0.996078431372549" d="M 265.5 316 L 264.5 318 L 225.5 341 L 226.5 339 L 265.5 316 Z " /><path fill="rgb(164,171,158)" stroke="rgb(164,171,158)" stroke-width="1" opacity="0.996078431372549" d="M 117.5 318 L 118.5 320 L 117.5 318 Z " /><path fill="rgb(164,171,158)" stroke="rgb(164,171,158)" stroke-width="1" opacity="0.996078431372549" d="M 122.5 318 L 123 321 L 121 320.5 L 122.5 318 Z " /><path fill="rgb(164,171,158)" stroke="rgb(164,171,158)" stroke-width="1" opacity="0.996078431372549" d="M 220.5 320 L 222.5 323 L 220.5 320 Z " /><path fill="rgb(164,171,158)" stroke="rgb(164,171,158)" stroke-width="1" opacity="0.996078431372549" d="M 89.5 321 L 93 323.5 L 91.5 323 L 89.5 321 Z " /><path fill="rgb(164,171,158)" stroke="rgb(164,171,158)" stroke-width="1" opacity="0.996078431372549" d="M 227.5 321 L 231 323 L 232 326.5 L 229.5 328 L 229.5 327 Q 231.8 327.8 231 325.5 L 227.5 321 Z " /><path fill="rgb(164,171,158)" stroke="rgb(164,171,158)" stroke-width="1" opacity="0.996078431372549" d="M 224.5 324 L 228 326.5 L 225.5 325 L 224.5 324 Z " /><path fill="rgb(164,171,158)" stroke="rgb(164,171,158)" stroke-width="1" opacity="0.996078431372549" d="M 96.5 325 L 102 328.5 L 100.5 328 Q 96.5 327.5 96.5 325 Z " /><path fill="rgb(164,171,158)" stroke="rgb(164,171,158)" stroke-width="1" opacity="0.996078431372549" d="M 103.5 329 L 121 339.5 L 119.5 339 L 104.5 331 L 103.5 329 Z " /><path fill="rgb(164,171,158)" stroke="rgb(164,171,158)" stroke-width="1" opacity="0.996078431372549" d="M 122.5 340 L 128 343.5 L 126.5 343 Q 122.5 342.5 122.5 340 Z " /><path fill="rgb(164,171,158)" stroke="rgb(164,171,158)" stroke-width="1" opacity="0.996078431372549" d="M 223.5 341 L 222.5 343 L 220.5 344 L 221.5 342 L 223.5 341 Z " /><path fill="rgb(164,171,158)" stroke="rgb(164,171,158)" stroke-width="1" opacity="0.996078431372549" d="M 129.5 344 L 135 347.5 L 133.5 347 Q 129.5 346.5 129.5 344 Z " /><path fill="rgb(164,171,158)" stroke="rgb(164,171,158)" stroke-width="1" opacity="0.996078431372549" d="M 218.5 344 L 217.5 346 L 215.5 347 L 216.5 345 L 218.5 344 Z " /><path fill="rgb(164,171,158)" stroke="rgb(164,171,158)" stroke-width="1" opacity="0.996078431372549" d="M 213.5 347 L 212.5 349 L 210.5 350 L 211.5 348 L 213.5 347 Z " /><path fill="rgb(164,171,158)" stroke="rgb(164,171,158)" stroke-width="1" opacity="0.996078431372549" d="M 136.5 348 L 149 355.5 L 147.5 355 L 137.5 350 L 136.5 348 Z " /><path fill="rgb(164,171,158)" stroke="rgb(164,171,158)" stroke-width="1" opacity="0.996078431372549" d="M 208.5 350 L 207.5 352 L 205.5 353 L 206.5 351 L 208.5 350 Z " /><path fill="rgb(164,171,158)" stroke="rgb(164,171,158)" stroke-width="1" opacity="0.996078431372549" d="M 203.5 353 L 202.5 355 L 174.5 371 L 169 367.5 L 170.5 368 L 175.5 370 L 203.5 353 Z " /><path fill="rgb(164,171,158)" stroke="rgb(164,171,158)" stroke-width="1" opacity="0.996078431372549" d="M 150.5 356 L 154 358.5 L 152.5 358 L 150.5 356 Z " /><path fill="rgb(164,171,158)" stroke="rgb(164,171,158)" stroke-width="1" opacity="0.996078431372549" d="M 155.5 359 L 168 366.5 L 166.5 366 L 156.5 361 L 155.5 359 Z " /><path fill="rgb(219,219,215)" stroke="rgb(219,219,215)" stroke-width="1" opacity="1" d="M 150.5 86 L 164 86.5 L 150.5 87 L 150.5 86 Z " /><path fill="rgb(219,219,215)" stroke="rgb(219,219,215)" stroke-width="1" opacity="1" d="M 146.5 87 L 149 87.5 L 146.5 88 L 146.5 87 Z " /><path fill="rgb(219,219,215)" stroke="rgb(219,219,215)" stroke-width="1" opacity="1" d="M 167.5 87 L 170 87.5 L 167.5 88 L 167.5 87 Z " /><path fill="rgb(219,219,215)" stroke="rgb(219,219,215)" stroke-width="1" opacity="1" d="M 135.5 92 L 133.5 95 L 126.5 101 L 132.5 94 L 135.5 92 Z " /><path fill="rgb(219,219,215)" stroke="rgb(219,219,215)" stroke-width="1" opacity="1" d="M 184.5 93 L 186.5 96 L 184.5 93 Z " /><path fill="rgb(219,219,215)" stroke="rgb(219,219,215)" stroke-width="1" opacity="1" d="M 188.5 96 L 193.5 102 L 188.5 96 Z " /><path fill="rgb(219,219,215)" stroke="rgb(219,219,215)" stroke-width="1" opacity="1" d="M 103.5 100 L 106 100.5 L 103.5 101 L 103.5 100 Z " /><path fill="rgb(219,219,215)" stroke="rgb(219,219,215)" stroke-width="1" opacity="1" d="M 115.5 100 L 118 100.5 L 115.5 101 L 115.5 100 Z " /><path fill="rgb(219,219,215)" stroke="rgb(219,219,215)" stroke-width="1" opacity="1" d="M 183.5 103 L 184.5 105 L 183.5 103 Z " /><path fill="rgb(219,219,215)" stroke="rgb(219,219,215)" stroke-width="1" opacity="1" d="M 194.5 103 L 195.5 105 L 194.5 103 Z " /><path fill="rgb(219,219,215)" stroke="rgb(219,219,215)" stroke-width="1" opacity="1" d="M 94.5 104 L 93.5 106 L 94.5 104 Z " /><path fill="rgb(219,219,215)" stroke="rgb(219,219,215)" stroke-width="1" opacity="1" d="M 91.5 106 L 87.5 111 L 84 109.5 L 85.5 109 L 87.5 110 L 91.5 106 Z " /><path fill="rgb(219,219,215)" stroke="rgb(219,219,215)" stroke-width="1" opacity="1" d="M 71.5 108 L 75 108.5 L 71.5 109 L 71.5 108 Z " /><path fill="rgb(219,219,215)" stroke="rgb(219,219,215)" stroke-width="1" opacity="1" d="M 78.5 108 L 83 108.5 L 78.5 109 L 78.5 108 Z " /><path fill="rgb(219,219,215)" stroke="rgb(219,219,215)" stroke-width="1" opacity="1" d="M 179.5 110 L 180.5 112 L 179.5 110 Z " /><path fill="rgb(219,219,215)" stroke="rgb(219,219,215)" stroke-width="1" opacity="1" d="M 64.5 111 L 63.5 113 L 56.5 119 L 62.5 112 L 64.5 111 Z " /><path fill="rgb(219,219,215)" stroke="rgb(219,219,215)" stroke-width="1" opacity="1" d="M 201.5 115 L 205 115.5 L 201.5 116 L 201.5 115 Z " /><path fill="rgb(219,219,215)" stroke="rgb(219,219,215)" stroke-width="1" opacity="1" d="M 54.5 119 L 53.5 121 L 54.5 119 Z " /><path fill="rgb(219,219,215)" stroke="rgb(219,219,215)" stroke-width="1" opacity="1" d="M 169.5 119 L 169 120.5 L 168.5 122 L 168 120.5 L 169.5 119 Z " /><path fill="rgb(219,219,215)" stroke="rgb(219,219,215)" stroke-width="1" opacity="1" d="M 216.5 120 L 221 123.5 L 218.5 122 L 216.5 120 Z " /><path fill="rgb(219,219,215)" stroke="rgb(219,219,215)" stroke-width="1" opacity="1" d="M 51.5 121 L 46.5 127 L 51.5 121 Z " /><path fill="rgb(219,219,215)" stroke="rgb(219,219,215)" stroke-width="1" opacity="1" d="M 171 121 L 173 121.5 L 172.5 124 L 171 121 Z " /><path fill="rgb(219,219,215)" stroke="rgb(219,219,215)" stroke-width="1" opacity="1" d="M 169.5 123 L 171.5 126 L 169.5 123 Z " /><path fill="rgb(219,219,215)" stroke="rgb(219,219,215)" stroke-width="1" opacity="1" d="M 222.5 124 L 233 133.5 L 229.5 131 L 222.5 124 Z " /><path fill="rgb(219,219,215)" stroke="rgb(219,219,215)" stroke-width="1" opacity="1" d="M 45.5 128 L 44.5 130 L 45.5 128 Z " /><path fill="rgb(219,219,215)" stroke="rgb(219,219,215)" stroke-width="1" opacity="1" d="M 202.5 130 L 206 130.5 L 202.5 131 L 202.5 130 Z " /><path fill="rgb(219,219,215)" stroke="rgb(219,219,215)" stroke-width="1" opacity="1" d="M 234.5 134 L 236.5 137 L 234.5 134 Z " /><path fill="rgb(219,219,215)" stroke="rgb(219,219,215)" stroke-width="1" opacity="1" d="M 225.5 137 L 227.5 140 L 225.5 137 Z " /><path fill="rgb(219,219,215)" stroke="rgb(219,219,215)" stroke-width="1" opacity="1" d="M 228.5 137 L 229.5 139 L 228.5 137 Z " /><path fill="rgb(219,219,215)" stroke="rgb(219,219,215)" stroke-width="1" opacity="1" d="M 40.5 138 L 41 140.5 L 40 140.5 L 40.5 138 Z " /><path fill="rgb(219,219,215)" stroke="rgb(219,219,215)" stroke-width="1" opacity="1" d="M 238.5 139 L 239.5 141 L 238.5 139 Z " /><path fill="rgb(219,219,215)" stroke="rgb(219,219,215)" stroke-width="1" opacity="1" d="M 240.5 142 L 241.5 144 L 240.5 142 Z " /><path fill="rgb(219,219,215)" stroke="rgb(219,219,215)" stroke-width="1" opacity="1" d="M 39.5 144 L 40 150.5 L 39 150.5 L 39.5 144 Z " /><path fill="rgb(219,219,215)" stroke="rgb(219,219,215)" stroke-width="1" opacity="1" d="M 246.5 155 L 247 159.5 L 246 159.5 L 246.5 155 Z " /><path fill="rgb(219,219,215)" stroke="rgb(219,219,215)" stroke-width="1" opacity="1" d="M 181.5 158 L 185 158.5 L 181.5 159 L 181.5 158 Z " /><path fill="rgb(219,219,215)" stroke="rgb(219,219,215)" stroke-width="1" opacity="1" d="M 227.5 161 L 228.5 163 L 227.5 161 Z " /><path fill="rgb(219,219,215)" stroke="rgb(219,219,215)" stroke-width="1" opacity="1" d="M 240.5 162 L 241 167.5 L 240 167.5 L 240.5 162 Z " /><path fill="rgb(219,219,215)" stroke="rgb(219,219,215)" stroke-width="1" opacity="1" d="M 201.5 165 L 202.5 167 L 201.5 165 Z " /><path fill="rgb(219,219,215)" stroke="rgb(219,219,215)" stroke-width="1" opacity="1" d="M 193.5 170 L 195.5 173 L 193.5 170 Z " /><path fill="rgb(219,219,215)" stroke="rgb(219,219,215)" stroke-width="1" opacity="1" d="M 246.5 170 L 247 174.5 L 246 174.5 L 246.5 170 Z " /><path fill="rgb(219,219,215)" stroke="rgb(219,219,215)" stroke-width="1" opacity="1" d="M 205.5 175 L 206.5 177 L 205.5 175 Z " /><path fill="rgb(219,219,215)" stroke="rgb(219,219,215)" stroke-width="1" opacity="1" d="M 234.5 178 L 233.5 180 L 234.5 178 Z " /><path fill="rgb(219,219,215)" stroke="rgb(219,219,215)" stroke-width="1" opacity="1" d="M 193.5 181 L 195.5 184 L 193.5 181 Z " /><path fill="rgb(219,219,215)" stroke="rgb(219,219,215)" stroke-width="1" opacity="1" d="M 41.5 182 L 45 186.5 L 42 184.5 L 41.5 182 Z " /><path fill="rgb(219,219,215)" stroke="rgb(219,219,215)" stroke-width="1" opacity="1" d="M 65.5 182 L 66.5 184 L 65.5 182 Z " /><path fill="rgb(219,219,215)" stroke="rgb(219,219,215)" stroke-width="1" opacity="1" d="M 192.5 183 L 193.5 185 L 192.5 183 Z " /><path fill="rgb(219,219,215)" stroke="rgb(219,219,215)" stroke-width="1" opacity="1" d="M 53.5 185 L 52.5 187 L 53.5 185 Z " /><path fill="rgb(219,219,215)" stroke="rgb(219,219,215)" stroke-width="1" opacity="1" d="M 180.5 185 L 183 186.5 L 181.5 186 L 180.5 185 Z " /><path fill="rgb(219,219,215)" stroke="rgb(219,219,215)" stroke-width="1" opacity="1" d="M 224.5 185 L 227 185.5 L 224.5 186 L 224.5 185 Z " /><path fill="rgb(219,219,215)" stroke="rgb(219,219,215)" stroke-width="1" opacity="1" d="M 242.5 185 L 241.5 187 L 242.5 185 Z " /><path fill="rgb(219,219,215)" stroke="rgb(219,219,215)" stroke-width="1" opacity="1" d="M 54.5 187 L 55 191.5 L 54 191.5 L 54.5 187 Z " /><path fill="rgb(219,219,215)" stroke="rgb(219,219,215)" stroke-width="1" opacity="1" d="M 205.5 187 L 207.5 190 L 205.5 187 Z " /><path fill="rgb(219,219,215)" stroke="rgb(219,219,215)" stroke-width="1" opacity="1" d="M 45.5 188 L 46 191.5 L 45 191.5 L 45.5 188 Z " /><path fill="rgb(219,219,215)" stroke="rgb(219,219,215)" stroke-width="1" opacity="1" d="M 240.5 188 L 238.5 191 L 240.5 188 Z " /><path fill="rgb(219,219,215)" stroke="rgb(219,219,215)" stroke-width="1" opacity="1" d="M 192.5 190 L 196 190.5 L 192.5 191 L 192.5 190 Z " /><path fill="rgb(219,219,215)" stroke="rgb(219,219,215)" stroke-width="1" opacity="1" d="M 237.5 192 L 237 193.5 L 232.5 199 L 236 194.5 L 237.5 192 Z " /><path fill="rgb(219,219,215)" stroke="rgb(219,219,215)" stroke-width="1" opacity="1" d="M 217.5 195 L 220 195.5 L 217.5 196 L 217.5 195 Z " /><path fill="rgb(219,219,215)" stroke="rgb(219,219,215)" stroke-width="1" opacity="1" d="M 139.5 196 L 143 196.5 L 139.5 197 L 139.5 196 Z " /><path fill="rgb(219,219,215)" stroke="rgb(219,219,215)" stroke-width="1" opacity="1" d="M 89.5 199 L 90 201.5 L 89 201.5 L 89.5 199 Z " /><path fill="rgb(219,219,215)" stroke="rgb(219,219,215)" stroke-width="1" opacity="1" d="M 230.5 199 L 227.5 203 L 230.5 199 Z " /><path fill="rgb(219,219,215)" stroke="rgb(219,219,215)" stroke-width="1" opacity="1" d="M 49.5 200 L 59 208.5 L 57.5 208 L 49.5 200 Z " /><path fill="rgb(219,219,215)" stroke="rgb(219,219,215)" stroke-width="1" opacity="1" d="M 175.5 203 L 179 203.5 L 175.5 204 L 175.5 203 Z " /><path fill="rgb(219,219,215)" stroke="rgb(219,219,215)" stroke-width="1" opacity="1" d="M 225.5 203 L 224.5 205 L 219.5 207 L 219.5 206 L 225.5 203 Z " /><path fill="rgb(219,219,215)" stroke="rgb(219,219,215)" stroke-width="1" opacity="1" d="M 103.5 206 L 106 206.5 L 103.5 207 L 103.5 206 Z " /><path fill="rgb(219,219,215)" stroke="rgb(219,219,215)" stroke-width="1" opacity="1" d="M 208.5 209 L 211 209.5 L 208.5 210 L 208.5 209 Z " /><path fill="rgb(219,219,215)" stroke="rgb(219,219,215)" stroke-width="1" opacity="1" d="M 206.5 210 L 202.5 215 L 206.5 210 Z " /><path fill="rgb(219,219,215)" stroke="rgb(219,219,215)" stroke-width="1" opacity="1" d="M 124.5 211 L 128 211.5 L 124.5 212 L 124.5 211 Z " /><path fill="rgb(219,219,215)" stroke="rgb(219,219,215)" stroke-width="1" opacity="1" d="M 71.5 213 Q 73.8 212.3 73 214.5 L 71.5 213 Z " /><path fill="rgb(219,219,215)" stroke="rgb(219,219,215)" stroke-width="1" opacity="1" d="M 200.5 215 L 199.5 217 L 200.5 215 Z " /><path fill="rgb(219,219,215)" stroke="rgb(219,219,215)" stroke-width="1" opacity="1" d="M 73.5 217 L 75 220.5 L 74 220.5 L 73.5 217 Z " /><path fill="rgb(219,219,215)" stroke="rgb(219,219,215)" stroke-width="1" opacity="1" d="M 197.5 217 L 196.5 219 L 197.5 217 Z " /><path fill="rgb(219,219,215)" stroke="rgb(219,219,215)" stroke-width="1" opacity="1" d="M 75.5 222 L 76.5 224 L 75.5 222 Z " /><path fill="rgb(219,219,215)" stroke="rgb(219,219,215)" stroke-width="1" opacity="1" d="M 77.5 225 L 82.5 231 L 77.5 225 Z " /><path fill="rgb(219,219,215)" stroke="rgb(219,219,215)" stroke-width="1" opacity="1" d="M 176.5 227 L 173.5 231 L 176.5 227 Z " /><path fill="rgb(219,219,215)" stroke="rgb(219,219,215)" stroke-width="1" opacity="1" d="M 84.5 231 L 85.5 233 L 84.5 231 Z " /><path fill="rgb(219,219,215)" stroke="rgb(219,219,215)" stroke-width="1" opacity="1" d="M 130.5 231 L 136 232.5 L 131.5 233 L 130.5 231 Z " /><path fill="rgb(219,219,215)" stroke="rgb(219,219,215)" stroke-width="1" opacity="1" d="M 89.5 235 L 90.5 237 L 89.5 235 Z " /><path fill="rgb(219,219,215)" stroke="rgb(219,219,215)" stroke-width="1" opacity="1" d="M 122.5 237 L 127 237.5 L 122.5 238 L 122.5 237 Z " /><path fill="rgb(219,219,215)" stroke="rgb(219,219,215)" stroke-width="1" opacity="1" d="M 95.5 239 L 98 240.5 L 96.5 241 L 95.5 239 Z " /><path fill="rgb(219,219,215)" stroke="rgb(219,219,215)" stroke-width="1" opacity="1" d="M 118.5 239 L 123 239.5 L 118.5 240 L 118.5 239 Z " /><path fill="rgb(219,219,215)" stroke="rgb(219,219,215)" stroke-width="1" opacity="1" d="M 127.5 239 L 130 239.5 L 127.5 240 L 127.5 239 Z " /><path fill="rgb(219,219,215)" stroke="rgb(219,219,215)" stroke-width="1" opacity="1" d="M 147.5 240 L 150 240.5 L 147.5 241 L 147.5 240 Z " /><path fill="rgb(219,219,215)" stroke="rgb(219,219,215)" stroke-width="1" opacity="1" d="M 138.5 241 L 144 241.5 L 138.5 242 L 138.5 241 Z " /><path fill="rgb(219,219,215)" stroke="rgb(219,219,215)" stroke-width="1" opacity="1" d="M 103.5 242 L 106 242.5 L 103.5 243 L 103.5 242 Z " /><path fill="rgb(219,219,215)" stroke="rgb(219,219,215)" stroke-width="1" opacity="1" d="M 123.5 242 L 126 242.5 L 123.5 243 L 123.5 242 Z " /><path fill="rgb(219,219,215)" stroke="rgb(219,219,215)" stroke-width="1" opacity="1" d="M 128.5 242 L 134 242.5 L 128.5 243 L 128.5 242 Z " /><path fill="rgb(219,219,215)" stroke="rgb(219,219,215)" stroke-width="1" opacity="1" d="M 110.5 243 L 119 243.5 L 110.5 244 L 110.5 243 Z " /><path fill="rgb(203,170,118)" stroke="rgb(203,170,118)" stroke-width="1" opacity="0.0196078431372549" d="M 166.5 0 L 168 0.5 L 0.5 100 L 1.5 98 L 166.5 0 Z " /><path fill="rgb(203,170,118)" stroke="rgb(203,170,118)" stroke-width="1" opacity="0.0196078431372549" d="M 175.5 0 L 182 4.5 L 180.5 4 L 175.5 1 L 175.5 0 Z " /><path fill="rgb(203,170,118)" stroke="rgb(203,170,118)" stroke-width="1" opacity="0.0196078431372549" d="M 186.5 7 L 231.5 31 L 344 97.5 L 342.5 97 L 222.5 27 L 186.5 8 L 186.5 7 Z " /><path fill="rgb(203,170,118)" stroke="rgb(203,170,118)" stroke-width="1" opacity="0.0196078431372549" d="M 2.5 300 L 29.5 318 L 165.5 398 L 167.5 399 L 179.5 399 L 224.5 374 L 289.5 333 L 345.5 302 L 343.5 305 L 298.5 329 L 236.5 368 L 182.5 399 Q 177 401.5 167.5 400 L 37.5 324 L 5.5 304 L 2.5 300 Z " /><path fill="rgb(190,168,130)" stroke="rgb(190,168,130)" stroke-width="1" opacity="1" d="M 78.5 136 L 77.5 138 L 78.5 136 Z " /><path fill="rgb(190,168,130)" stroke="rgb(190,168,130)" stroke-width="1" opacity="1" d="M 84.5 147 L 83.5 149 L 84.5 147 Z " /><path fill="rgb(190,168,130)" stroke="rgb(190,168,130)" stroke-width="1" opacity="1" d="M 248.5 162 L 252 166.5 L 256.5 177 L 257.5 176 L 267.5 176 L 275.5 179 L 286 189.5 L 292 203.5 L 292 211.5 L 293 212.5 L 290 227.5 L 280 241.5 L 280 255.5 L 274 274.5 Q 268 289 257.5 299 L 255 300.5 Q 255.8 302.8 253.5 302 Q 247.8 308.8 238.5 312 L 228.5 315 L 218.5 315 L 217.5 316 L 216.5 315 L 208.5 315 L 192.5 310 L 175.5 300 L 168.5 299 Q 159 308.5 139.5 308 L 139.5 307 L 143 304.5 L 146 296.5 L 146 290.5 L 141 277.5 Q 133.5 265 122.5 256 Q 111.1 245.9 94 243 Q 92.5 239.3 95.5 240 Q 104.9 246.1 122.5 244 L 125 243 Q 123.7 246.3 128.5 245 L 138 251 L 140.5 255 Q 142.8 254.3 142 256.5 L 152 268.5 L 159 281.5 L 160 289 Q 164.5 290.8 163 285.5 L 156 269.5 L 141 250 L 132 243.5 L 146.5 242 L 160.5 238 Q 172 234 179.5 226 L 182.5 226 L 195.5 220 L 206.5 211 L 217.5 208 L 224 223 Q 227.3 224.3 226 219.5 L 221 207.5 L 228.5 202 L 231 202 L 235.5 212 L 236 205.5 L 233 199.5 L 245 182.5 L 247 176.5 L 248.5 162 Z M 285 215 Q 281 218 281 224 L 277 229 Q 278 231 275 230 Q 273 234 277 233 L 282 228 L 284 224 Q 283 218 285 217 L 285 215 Z M 243 242 L 239 244 L 234 250 L 231 249 L 229 249 L 224 247 L 219 247 L 206 255 Q 207 257 205 256 L 203 259 L 202 258 L 198 255 Q 190 254 187 256 L 188 263 L 197 270 L 198 281 L 201 288 L 201 290 L 208 301 L 219 308 L 226 310 L 235 310 L 244 306 L 252 296 L 254 286 Q 251 284 253 278 L 249 269 Q 250 266 248 267 L 248 266 L 245 260 L 249 254 Q 250 246 246 244 Q 247 240 243 242 Z M 271 242 L 270 247 L 270 249 L 267 266 L 260 276 Q 259 278 263 277 L 267 272 L 271 262 L 272 248 L 272 246 L 273 243 L 271 242 Z M 265 243 Q 267 250 263 254 Q 262 257 265 256 Q 269 253 268 245 L 265 243 Z M 173 264 L 168 272 L 170 282 L 174 288 L 176 291 L 191 301 L 194 301 L 200 304 Q 201 307 203 305 Q 205 306 204 303 L 188 296 L 178 288 L 172 279 L 171 274 L 174 267 L 177 267 L 182 270 L 190 284 Q 191 286 189 285 L 184 280 Q 185 275 181 277 L 183 284 Q 185 289 192 288 L 193 285 L 192 280 L 187 273 Q 183 265 173 264 Z M 141 265 L 141 268 Q 147 272 150 280 L 151 292 L 151 294 Q 150 298 154 296 Q 156 281 150 274 L 148 271 L 141 265 Z " /><path fill="rgb(190,168,130)" stroke="rgb(190,168,130)" stroke-width="1" opacity="1" d="M 100.5 174 L 99.5 176 L 100.5 174 Z " /><path fill="rgb(190,168,130)" stroke="rgb(190,168,130)" stroke-width="1" opacity="1" d="M 76 226 L 91 237 L 91 243 L 85.5 243 Q 77.9 244.4 74 249.5 L 70.5 257 L 70 240.5 L 73 236.5 L 73 232.5 L 76 226 Z " /><path fill="rgb(190,168,130)" stroke="rgb(190,168,130)" stroke-width="1" opacity="1" d="M 242.5 246 L 241.5 248 L 242.5 246 Z " /><path fill="rgb(190,168,130)" stroke="rgb(190,168,130)" stroke-width="1" opacity="1" d="M 206.5 257 L 205.5 259 L 206.5 257 Z " /><path fill="rgb(190,168,130)" stroke="rgb(190,168,130)" stroke-width="1" opacity="1" d="M 190 258 L 192 258.5 L 191.5 261 L 190 258 Z " /><path fill="rgb(190,168,130)" stroke="rgb(190,168,130)" stroke-width="1" opacity="1" d="M 230 267 L 232 267.5 L 230.5 270 L 230 267 Z " /><path fill="rgb(190,168,130)" stroke="rgb(190,168,130)" stroke-width="1" opacity="1" d="M 234.5 272 L 233.5 274 L 234.5 272 Z " /><path fill="rgb(190,168,130)" stroke="rgb(190,168,130)" stroke-width="1" opacity="1" d="M 214.5 273 L 217 274.5 L 215.5 274 L 213.5 275 L 214.5 273 Z " /><path fill="rgb(190,168,130)" stroke="rgb(190,168,130)" stroke-width="1" opacity="1" d="M 205.5 293 L 206.5 295 L 205.5 293 Z " /><path fill="rgb(190,168,130)" stroke="rgb(190,168,130)" stroke-width="1" opacity="1" d="M 245.5 300 L 243.5 303 L 245.5 300 Z " /><path fill="rgb(190,168,130)" stroke="rgb(190,168,130)" stroke-width="1" opacity="1" d="M 240.5 304 L 239.5 306 L 236.5 307 L 236.5 306 L 240.5 304 Z " /><path fill="rgb(190,168,130)" stroke="rgb(190,168,130)" stroke-width="1" opacity="1" d="M 226.5 307 L 230 307.5 L 226.5 308 L 226.5 307 Z " /><path fill="rgb(137,135,127)" stroke="rgb(137,135,127)" stroke-width="1" opacity="1" d="M 169.5 0 L 176.5 1 Q 201.4 18.5 230 31 Q 228.8 34 232.5 33 L 239.5 38 L 242 38 Q 240.8 41 244.5 40 L 346 99.5 L 346 301.5 L 344.5 302 Q 342.6 305.6 338 305 Q 339.1 307.7 336.5 307 L 328.5 312 L 325 312 Q 326.1 314.7 323.5 314 L 318 316 Q 319.1 318.7 316.5 318 L 301.5 327 L 297.5 328 L 274.5 343 L 273 342.5 Q 273.8 344.8 271.5 344 L 259 351 Q 260.1 353.7 257.5 353 L 234.5 368 L 233 367.5 Q 233.8 369.8 231.5 369 L 224.5 374 L 223 373.5 Q 223.8 375.8 221.5 375 Q 201.7 388.7 178.5 399 L 176.5 399 L 167.5 399 L 146 387 Q 147.3 384 143.5 385 L 134 380 Q 135.3 377 131.5 378 L 122 373 Q 123.1 370.3 120.5 371 L 110 366 Q 111.3 363 107.5 364 L 88 353 L 87.5 351 Q 86 353.5 84.5 350 L 51 331 L 50.5 329 Q 49 331.5 47.5 328 L 41 325 L 40.5 323 L 39.5 324 L 36.5 321 L 26 316 Q 27.1 313.3 24.5 314 Q 16.8 311.7 12.5 306 L 10 306 Q 11.1 303.3 8.5 304 L 3.5 300 L 0 300 L 0 100.5 L 1.5 99 L 6 98 Q 4.9 95.3 7.5 96 L 21.5 87 L 23 87.5 Q 22.3 85.3 24.5 86 L 33 82 Q 31.9 79.3 34.5 80 L 38 79 Q 36.9 76.3 39.5 77 L 50.5 70 L 53 70 Q 51.9 67.3 54.5 68 L 139.5 17 L 148.5 13 L 151.5 10 L 156 9 Q 154.9 6.3 157.5 7 L 166.5 1 Q 168 3.5 169.5 0 Z M 172 29 L 27 113 L 25 115 L 25 123 L 24 124 L 25 126 L 25 128 L 24 129 L 24 268 L 23 270 L 23 274 Q 22 282 24 285 L 175 371 L 317 287 L 322 283 L 322 202 L 321 201 L 322 198 L 321 196 L 322 192 L 321 188 L 321 117 L 311 109 L 275 89 L 204 46 L 180 32 L 172 29 Z " /><path fill="rgb(137,135,127)" stroke="rgb(137,135,127)" stroke-width="1" opacity="1" d="M 162 92 Q 171 91.8 176.5 96 L 190 106 L 197 115.5 L 199 122 Q 220.1 125.6 231 140.5 L 239 156.5 L 240 170.5 Q 238.5 179 232.5 183 Q 229.5 186 222.5 185 L 215 179.5 L 214 169.5 L 219.5 161 L 224.5 160 L 229 163.5 L 230 173 L 228 172.5 L 228 164.5 Q 226.8 160.8 220.5 162 Q 214.2 165.7 216 177.5 L 219.5 182 L 225.5 184 L 235 178.5 Q 239.4 172.9 239 162.5 L 234 147.5 L 221.5 133 L 206.5 125 L 198.5 124 L 197 122.5 L 197 119.5 L 194 113.5 L 182.5 102 L 168.5 94 L 163.5 93 L 162 93.5 L 162 92 Z " /><path fill="rgb(137,135,127)" stroke="rgb(137,135,127)" stroke-width="1" opacity="1" d="M 148.5 98 L 156.5 98 L 165.5 101 Q 175.8 106.2 183 114.5 L 187 121.5 L 187 125.5 Q 185.5 130.5 177.5 129 L 169 122.5 L 169 120 L 175.5 120 L 179 122.5 L 176.5 123 Q 175.1 120.4 170.5 121 L 173.5 125 Q 176.5 128 182.5 128 L 186 123.5 Q 183.6 115.4 177.5 111 L 163.5 102 Q 157.8 98.8 147.5 100 L 139 106.5 L 137.5 109 L 137 106.5 L 148.5 98 Z " /><path fill="rgb(137,135,127)" stroke="rgb(137,135,127)" stroke-width="1" opacity="1" d="M 243.5 103 L 246 106.5 L 244 105.5 L 243.5 103 Z " /><path fill="rgb(137,135,127)" stroke="rgb(137,135,127)" stroke-width="1" opacity="1" d="M 244.5 112 L 245.5 114 L 244.5 112 Z " /><path fill="rgb(137,135,127)" stroke="rgb(137,135,127)" stroke-width="1" opacity="1" d="M 246.5 115 L 247.5 117 L 246.5 115 Z " /><path fill="rgb(137,135,127)" stroke="rgb(137,135,127)" stroke-width="1" opacity="1" d="M 249.5 119 L 250.5 121 L 249.5 119 Z " /><path fill="rgb(137,135,127)" stroke="rgb(137,135,127)" stroke-width="1" opacity="1" d="M 252.5 123 L 255.5 127 L 252.5 123 Z " /><path fill="rgb(137,135,127)" stroke="rgb(137,135,127)" stroke-width="1" opacity="1" d="M 192.5 128 Q 197.3 133.3 209.5 131 L 219 136.5 L 224 144.5 L 220 141.5 L 216.5 136 L 211.5 133 L 202.5 132 L 199.5 133 L 195.5 132 L 192.5 128 Z " /><path fill="rgb(137,135,127)" stroke="rgb(137,135,127)" stroke-width="1" opacity="1" d="M 265.5 136 L 267.5 139 L 265.5 136 Z " /><path fill="rgb(137,135,127)" stroke="rgb(137,135,127)" stroke-width="1" opacity="1" d="M 201.5 140 L 212.5 142 L 222 149.5 L 223 151.5 L 221.5 152 L 218.5 148 L 210.5 143 L 202.5 142 L 201.5 140 Z " /><path fill="rgb(137,135,127)" stroke="rgb(137,135,127)" stroke-width="1" opacity="1" d="M 271.5 141 L 272.5 143 L 271.5 141 Z " /><path fill="rgb(137,135,127)" stroke="rgb(137,135,127)" stroke-width="1" opacity="1" d="M 140 149 Q 142.7 147.9 142 150.5 Q 136.5 158.5 124.5 160 L 123.5 158 L 128.5 158 L 140 150.5 L 140 149 Z " /><path fill="rgb(137,135,127)" stroke="rgb(137,135,127)" stroke-width="1" opacity="1" d="M 41 152 L 43 152.5 L 40 157.5 L 39 172.5 Q 40.8 179.7 46.5 183 L 48 183.5 L 45.5 184 L 41 181 L 38 175.5 L 37 166.5 Q 39.8 164.7 38 158.5 L 41 152 Z " /><path fill="rgb(137,135,127)" stroke="rgb(137,135,127)" stroke-width="1" opacity="1" d="M 177.5 156 L 187.5 157 L 192.5 159 L 204 168.5 L 208 176.5 L 205 174.5 Q 203.5 168 198.5 165 L 184.5 158 L 174.5 158 L 166.5 160 L 156.5 166 L 149.5 167 L 149.5 166 Q 159.4 164.9 164.5 159 L 177.5 156 Z " /><path fill="rgb(137,135,127)" stroke="rgb(137,135,127)" stroke-width="1" opacity="1" d="M 182.5 165 Q 192.8 167.8 198 175.5 L 210.5 190 L 218.5 194 L 221 193 Q 222.3 196.7 216.5 195 Q 208.4 192.1 204 185.5 L 191.5 171 L 183.5 167 L 182.5 165 Z " /><path fill="rgb(137,135,127)" stroke="rgb(137,135,127)" stroke-width="1" opacity="1" d="M 171.5 171 L 179.5 172 L 191.5 180 L 197 185.5 L 199 190.5 L 197.5 192 L 188.5 192 L 177 186 L 178.5 183 L 190 186 Q 191.1 188.7 188.5 188 L 180.5 185 L 180.5 186 Q 186.3 191.5 197 191 Q 196.8 184.6 191.5 182 L 177.5 173 L 171.5 173 L 170 173.5 L 171.5 171 Z " /><path fill="rgb(137,135,127)" stroke="rgb(137,135,127)" stroke-width="1" opacity="1" d="M 103.5 174 L 102.5 176 L 103.5 174 Z " /><path fill="rgb(137,135,127)" stroke="rgb(137,135,127)" stroke-width="1" opacity="1" d="M 64.5 183 L 68 185.5 Q 67.3 187.8 69.5 187 L 74.5 190 L 83.5 191 L 91 196.5 L 92 203 Q 88.3 204.3 90 198.5 L 88 195 L 81.5 192 L 72.5 191 L 67 187.5 L 64.5 183 Z " /><path fill="rgb(137,135,127)" stroke="rgb(137,135,127)" stroke-width="1" opacity="1" d="M 53 186 L 55 186.5 Q 52.8 187.8 54 192.5 L 56 199.5 L 63.5 207 Q 66.7 209.3 73.5 208 Q 76.5 206.5 75 200.5 L 74 198 L 67.5 195 L 68 196.5 L 72 202.5 L 70.5 203 Q 64.9 200.6 66 193 L 69.5 193 L 76 198.5 L 77 206.5 L 76 209 Q 73.3 210.9 66.5 210 Q 59 207 55 200.5 Q 51.6 195.3 53 186 Z " /><path fill="rgb(137,135,127)" stroke="rgb(137,135,127)" stroke-width="1" opacity="1" d="M 138.5 190 L 153.5 192 L 157 194.5 L 155.5 195 L 145.5 192 L 136.5 192 L 126.5 195 L 111.5 207 L 103.5 208 L 103.5 207 L 113.5 204 Q 120 196.5 129.5 192 L 138.5 190 Z " /><path fill="rgb(137,135,127)" stroke="rgb(137,135,127)" stroke-width="1" opacity="1" d="M 133.5 197 Q 145.8 194.8 149 201.5 L 150 206.5 L 144.5 215 Q 132.1 225.1 108.5 224 L 99 219.5 L 100.5 219 Q 107.8 224.2 122.5 222 Q 123.7 219.8 128.5 221 L 140.5 216 L 147 209.5 L 148 202.5 Q 145.4 197.1 136.5 198 Q 125.1 200.6 120 209.5 Q 122 213 128.5 212 L 134.5 210 L 137 207.5 Q 137.8 205.3 135.5 206 L 131.5 207 L 132.5 205 Q 137.8 203.8 139 206.5 L 135.5 211 Q 131.2 214.7 121.5 213 L 119 212 L 118 209.5 L 124.5 202 L 133.5 197 Z " /><path fill="rgb(137,135,127)" stroke="rgb(137,135,127)" stroke-width="1" opacity="1" d="M 200.5 198 L 216 201.5 Q 215.3 203.8 211.5 203 Q 207 198.5 196.5 200 L 185.5 203 L 171 203 Q 169.9 199.5 177.5 201 L 180.5 202 L 200.5 198 Z " /><path fill="rgb(137,135,127)" stroke="rgb(137,135,127)" stroke-width="1" opacity="1" d="M 83 202 Q 85.7 200.9 85 203.5 L 84 204.5 L 84 216.5 L 90.5 227 Q 97 233.5 107.5 236 L 118.5 237 L 119.5 238 L 130.5 238 L 147.5 235 Q 161.6 231.1 172.5 224 L 170.5 227 L 146.5 237 L 135.5 239 L 113.5 239 Q 97.3 236.2 88 226.5 Q 80.8 220.2 82 205.5 L 83 202 Z " /><path fill="rgb(137,135,127)" stroke="rgb(137,135,127)" stroke-width="1" opacity="1" d="M 199.5 205 L 200 206.5 L 196.5 211 Q 190.8 216.8 179.5 217 L 179.5 216 Q 193.6 214.6 199.5 205 Z " /><path fill="rgb(137,135,127)" stroke="rgb(137,135,127)" stroke-width="1" opacity="1" d="M 169 211 Q 171.7 209.9 171 212.5 Q 163.1 221.6 151.5 227 L 137.5 232 L 131.5 232 L 131.5 231 Q 155.6 227.1 169 212.5 L 169 211 Z " /><path fill="rgb(137,135,127)" stroke="rgb(137,135,127)" stroke-width="1" opacity="1" d="M 284.5 215 L 285 217 L 283 216.5 L 284.5 215 Z " /><path fill="rgb(137,135,127)" stroke="rgb(137,135,127)" stroke-width="1" opacity="1" d="M 283.5 223 L 282.5 225 L 283.5 223 Z " /><path fill="rgb(137,135,127)" stroke="rgb(137,135,127)" stroke-width="1" opacity="1" d="M 281.5 226 L 282 227.5 L 278 230.5 L 281.5 226 Z " /><path fill="rgb(137,135,127)" stroke="rgb(137,135,127)" stroke-width="1" opacity="1" d="M 275.5 230 L 277 232.5 L 275 233 L 275.5 230 Z " /><path fill="rgb(137,135,127)" stroke="rgb(137,135,127)" stroke-width="1" opacity="1" d="M 85.5 243 L 90 243.5 L 85.5 244 L 85.5 243 Z " /><path fill="rgb(137,135,127)" stroke="rgb(137,135,127)" stroke-width="1" opacity="1" d="M 81.5 244 L 84 244.5 L 78.5 247 L 79.5 245 L 81.5 244 Z " /><path fill="rgb(137,135,127)" stroke="rgb(137,135,127)" stroke-width="1" opacity="1" d="M 97.5 244 L 100 244.5 L 97.5 245 L 97.5 244 Z " /><path fill="rgb(137,135,127)" stroke="rgb(137,135,127)" stroke-width="1" opacity="1" d="M 125.5 244 L 128 244.5 L 125.5 245 L 125.5 244 Z " /><path fill="rgb(137,135,127)" stroke="rgb(137,135,127)" stroke-width="1" opacity="1" d="M 267.5 244 L 268 250.5 L 267 250.5 L 267.5 244 Z " /><path fill="rgb(137,135,127)" stroke="rgb(137,135,127)" stroke-width="1" opacity="1" d="M 134.5 245 L 138.5 250 L 134.5 245 Z " /><path fill="rgb(137,135,127)" stroke="rgb(137,135,127)" stroke-width="1" opacity="1" d="M 131.5 246 L 133.5 249 L 131.5 246 Z " /><path fill="rgb(137,135,127)" stroke="rgb(137,135,127)" stroke-width="1" opacity="1" d="M 76.5 247 L 74.5 250 L 76.5 247 Z " /><path fill="rgb(137,135,127)" stroke="rgb(137,135,127)" stroke-width="1" opacity="1" d="M 109.5 248 L 121 255.5 L 118.5 254 L 110.5 250 L 109.5 248 Z " /><path fill="rgb(137,135,127)" stroke="rgb(137,135,127)" stroke-width="1" opacity="1" d="M 269.5 249 L 270 254.5 L 269 254.5 L 269.5 249 Z " /><path fill="rgb(137,135,127)" stroke="rgb(137,135,127)" stroke-width="1" opacity="1" d="M 73.5 251 L 74 252.5 L 72 253.5 L 73.5 251 Z " /><path fill="rgb(137,135,127)" stroke="rgb(137,135,127)" stroke-width="1" opacity="1" d="M 210.5 251 L 211.5 253 L 210.5 251 Z " /><path fill="rgb(137,135,127)" stroke="rgb(137,135,127)" stroke-width="1" opacity="1" d="M 138.5 252 L 140.5 255 L 138.5 252 Z " /><path fill="rgb(137,135,127)" stroke="rgb(137,135,127)" stroke-width="1" opacity="1" d="M 207.5 253 L 210 254.5 L 208.5 254 L 206.5 255 L 207.5 253 Z " /><path fill="rgb(137,135,127)" stroke="rgb(137,135,127)" stroke-width="1" opacity="1" d="M 144.5 255 L 146.5 258 L 144.5 255 Z " /><path fill="rgb(137,135,127)" stroke="rgb(137,135,127)" stroke-width="1" opacity="1" d="M 122.5 256 L 136 270.5 L 133 268.5 L 122.5 256 Z " /><path fill="rgb(137,135,127)" stroke="rgb(137,135,127)" stroke-width="1" opacity="1" d="M 142.5 256 L 144.5 259 L 142.5 256 Z " /><path fill="rgb(137,135,127)" stroke="rgb(137,135,127)" stroke-width="1" opacity="1" d="M 204.5 256 L 203.5 258 L 204.5 256 Z " /><path fill="rgb(137,135,127)" stroke="rgb(137,135,127)" stroke-width="1" opacity="1" d="M 204.5 259 L 203.5 261 L 204.5 259 Z " /><path fill="rgb(137,135,127)" stroke="rgb(137,135,127)" stroke-width="1" opacity="1" d="M 146.5 261 L 151 266.5 L 148 264.5 L 146.5 261 Z " /><path fill="rgb(137,135,127)" stroke="rgb(137,135,127)" stroke-width="1" opacity="1" d="M 149.5 261 L 150.5 263 L 149.5 261 Z " /><path fill="rgb(137,135,127)" stroke="rgb(137,135,127)" stroke-width="1" opacity="1" d="M 198.5 262 L 199.5 264 L 198.5 262 Z " /><path fill="rgb(137,135,127)" stroke="rgb(137,135,127)" stroke-width="1" opacity="1" d="M 172.5 264 L 174 264.5 L 170.5 267 L 172.5 264 Z " /><path fill="rgb(137,135,127)" stroke="rgb(137,135,127)" stroke-width="1" opacity="1" d="M 173.5 266 Q 177.3 265.3 178 267.5 L 176.5 267 L 172.5 268 L 173.5 266 Z " /><path fill="rgb(137,135,127)" stroke="rgb(137,135,127)" stroke-width="1" opacity="1" d="M 180.5 266 L 182.5 269 L 180.5 266 Z " /><path fill="rgb(137,135,127)" stroke="rgb(137,135,127)" stroke-width="1" opacity="1" d="M 144.5 267 L 147.5 271 L 144.5 267 Z " /><path fill="rgb(137,135,127)" stroke="rgb(137,135,127)" stroke-width="1" opacity="1" d="M 154.5 268 L 158 273.5 L 156 272.5 L 154.5 268 Z " /><path fill="rgb(137,135,127)" stroke="rgb(137,135,127)" stroke-width="1" opacity="1" d="M 179.5 268 L 180.5 270 L 179.5 268 Z " /><path fill="rgb(137,135,127)" stroke="rgb(137,135,127)" stroke-width="1" opacity="1" d="M 267.5 268 L 268 269.5 L 262.5 277 L 262 275.5 L 267.5 268 Z " /><path fill="rgb(137,135,127)" stroke="rgb(137,135,127)" stroke-width="1" opacity="1" d="M 143.5 269 L 144.5 271 L 143.5 269 Z " /><path fill="rgb(137,135,127)" stroke="rgb(137,135,127)" stroke-width="1" opacity="1" d="M 73.5 270 L 76 274.5 L 74 273.5 L 73.5 270 Z " /><path fill="rgb(137,135,127)" stroke="rgb(137,135,127)" stroke-width="1" opacity="1" d="M 184.5 270 L 186.5 273 L 184.5 270 Z " /><path fill="rgb(137,135,127)" stroke="rgb(137,135,127)" stroke-width="1" opacity="1" d="M 153.5 271 L 157 276.5 L 155 275.5 L 153.5 271 Z " /><path fill="rgb(137,135,127)" stroke="rgb(137,135,127)" stroke-width="1" opacity="1" d="M 182.5 271 L 184.5 274 L 182.5 271 Z " /><path fill="rgb(137,135,127)" stroke="rgb(137,135,127)" stroke-width="1" opacity="1" d="M 136.5 272 L 137.5 274 L 136.5 272 Z " /><path fill="rgb(137,135,127)" stroke="rgb(137,135,127)" stroke-width="1" opacity="1" d="M 149.5 272 L 152 277.5 L 151 277.5 L 149.5 272 Z " /><path fill="rgb(137,135,127)" stroke="rgb(137,135,127)" stroke-width="1" opacity="1" d="M 147.5 274 L 150 278.5 L 149 278.5 L 147.5 274 Z " /><path fill="rgb(137,135,127)" stroke="rgb(137,135,127)" stroke-width="1" opacity="1" d="M 171.5 274 L 172 277.5 L 171 277.5 L 171.5 274 Z " /><path fill="rgb(137,135,127)" stroke="rgb(137,135,127)" stroke-width="1" opacity="1" d="M 138.5 275 L 140.5 278 L 138.5 275 Z " /><path fill="rgb(137,135,127)" stroke="rgb(137,135,127)" stroke-width="1" opacity="1" d="M 186.5 276 L 187.5 278 L 186.5 276 Z " /><path fill="rgb(137,135,127)" stroke="rgb(137,135,127)" stroke-width="1" opacity="1" d="M 190.5 278 L 192 280.5 L 191 280.5 L 190.5 278 Z " /><path fill="rgb(137,135,127)" stroke="rgb(137,135,127)" stroke-width="1" opacity="1" d="M 172.5 279 L 174 281.5 L 172 280.5 L 172.5 279 Z " /><path fill="rgb(137,135,127)" stroke="rgb(137,135,127)" stroke-width="1" opacity="1" d="M 79.5 280 L 81.5 283 L 79.5 280 Z " /><path fill="rgb(137,135,127)" stroke="rgb(137,135,127)" stroke-width="1" opacity="1" d="M 170.5 280 L 174 286.5 L 172 285.5 L 170.5 280 Z " /><path fill="rgb(137,135,127)" stroke="rgb(137,135,127)" stroke-width="1" opacity="1" d="M 142.5 281 L 144 284.5 L 143 284.5 L 142.5 281 Z " /><path fill="rgb(137,135,127)" stroke="rgb(137,135,127)" stroke-width="1" opacity="1" d="M 153.5 282 L 154 286.5 L 153 286.5 L 153.5 282 Z " /><path fill="rgb(137,135,127)" stroke="rgb(137,135,127)" stroke-width="1" opacity="1" d="M 185.5 282 L 187.5 285 L 185.5 282 Z " /><path fill="rgb(137,135,127)" stroke="rgb(137,135,127)" stroke-width="1" opacity="1" d="M 151.5 283 L 152 291.5 L 151 291.5 L 151.5 283 Z " /><path fill="rgb(137,135,127)" stroke="rgb(137,135,127)" stroke-width="1" opacity="1" d="M 174.5 283 L 176 285.5 L 174 284.5 L 174.5 283 Z " /><path fill="rgb(137,135,127)" stroke="rgb(137,135,127)" stroke-width="1" opacity="1" d="M 183.5 283 L 184.5 285 L 183.5 283 Z " /><path fill="rgb(137,135,127)" stroke="rgb(137,135,127)" stroke-width="1" opacity="1" d="M 84.5 285 L 88.5 290 L 84.5 285 Z " /><path fill="rgb(137,135,127)" stroke="rgb(137,135,127)" stroke-width="1" opacity="1" d="M 162.5 285 L 163 288.5 L 162 288.5 L 162.5 285 Z " /><path fill="rgb(137,135,127)" stroke="rgb(137,135,127)" stroke-width="1" opacity="1" d="M 187.5 287 L 192 287.5 L 187.5 288 L 187.5 287 Z " /><path fill="rgb(137,135,127)" stroke="rgb(137,135,127)" stroke-width="1" opacity="1" d="M 178.5 288 L 182.5 293 L 178.5 288 Z " /><path fill="rgb(137,135,127)" stroke="rgb(137,135,127)" stroke-width="1" opacity="1" d="M 176.5 289 L 178 291.5 L 176 290.5 L 176.5 289 Z " /><path fill="rgb(137,135,127)" stroke="rgb(137,135,127)" stroke-width="1" opacity="1" d="M 145.5 290 L 146 296.5 L 145 296.5 L 145.5 290 Z " /><path fill="rgb(137,135,127)" stroke="rgb(137,135,127)" stroke-width="1" opacity="1" d="M 252.5 290 L 253 292.5 L 252 292.5 L 252.5 290 Z " /><path fill="rgb(137,135,127)" stroke="rgb(137,135,127)" stroke-width="1" opacity="1" d="M 91.5 291 L 93.5 294 L 91.5 291 Z " /><path fill="rgb(137,135,127)" stroke="rgb(137,135,127)" stroke-width="1" opacity="1" d="M 202.5 292 L 203.5 294 L 202.5 292 Z " /><path fill="rgb(137,135,127)" stroke="rgb(137,135,127)" stroke-width="1" opacity="1" d="M 151.5 293 L 152 295.5 L 151 295.5 L 151.5 293 Z " /><path fill="rgb(137,135,127)" stroke="rgb(137,135,127)" stroke-width="1" opacity="1" d="M 95.5 294 L 99 296.5 L 97.5 296 L 95.5 294 Z " /><path fill="rgb(137,135,127)" stroke="rgb(137,135,127)" stroke-width="1" opacity="1" d="M 204.5 295 L 205.5 297 L 204.5 295 Z " /><path fill="rgb(137,135,127)" stroke="rgb(137,135,127)" stroke-width="1" opacity="1" d="M 186.5 297 L 187.5 299 L 186.5 297 Z " /><path fill="rgb(137,135,127)" stroke="rgb(137,135,127)" stroke-width="1" opacity="1" d="M 192.5 298 L 195 299.5 L 193.5 299 L 192.5 298 Z " /><path fill="rgb(137,135,127)" stroke="rgb(137,135,127)" stroke-width="1" opacity="1" d="M 189.5 299 L 192 300.5 L 190.5 301 L 189.5 299 Z " /><path fill="rgb(137,135,127)" stroke="rgb(137,135,127)" stroke-width="1" opacity="1" d="M 256.5 299 L 255.5 301 L 256.5 299 Z " /><path fill="rgb(137,135,127)" stroke="rgb(137,135,127)" stroke-width="1" opacity="1" d="M 142.5 303 L 143 304.5 L 140 306.5 L 142.5 303 Z " /><path fill="rgb(137,135,127)" stroke="rgb(137,135,127)" stroke-width="1" opacity="1" d="M 242.5 303 L 241.5 305 L 242.5 303 Z " /><path fill="rgb(137,135,127)" stroke="rgb(137,135,127)" stroke-width="1" opacity="1" d="M 200.5 304 L 201.5 306 L 200.5 304 Z " /><path fill="rgb(137,135,127)" stroke="rgb(137,135,127)" stroke-width="1" opacity="1" d="M 244.5 304 L 243.5 306 L 244.5 304 Z " /><path fill="rgb(137,135,127)" stroke="rgb(137,135,127)" stroke-width="1" opacity="1" d="M 217.5 306 L 220 307.5 L 218.5 308 L 217.5 306 Z " /><path fill="rgb(137,135,127)" stroke="rgb(137,135,127)" stroke-width="1" opacity="1" d="M 241.5 306 L 240.5 308 L 241.5 306 Z " /><path fill="rgb(137,135,127)" stroke="rgb(137,135,127)" stroke-width="1" opacity="1" d="M 126.5 307 Q 132.6 305.8 132 308.5 L 132.5 310 Q 131.5 307 126.5 308 L 126.5 307 Z " /><path fill="rgb(137,135,127)" stroke="rgb(137,135,127)" stroke-width="1" opacity="1" d="M 225.5 309 L 229 309.5 L 225.5 310 L 225.5 309 Z " /><path fill="rgb(137,135,127)" stroke="rgb(137,135,127)" stroke-width="1" opacity="1" d="M 232.5 309 L 235 309.5 L 232.5 310 L 232.5 309 Z " /><path fill="rgb(137,135,127)" stroke="rgb(137,135,127)" stroke-width="1" opacity="1" d="M 112.5 310 L 114 312.5 L 112 311.5 L 112.5 310 Z " /><path fill="rgb(137,135,127)" stroke="rgb(137,135,127)" stroke-width="1" opacity="1" d="M 119.5 314 L 120.5 316 L 119.5 314 Z " /><path fill="rgb(137,135,127)" stroke="rgb(137,135,127)" stroke-width="1" opacity="1" d="M 136.5 315 L 137.5 317 L 136.5 315 Z " /><path fill="rgb(137,135,127)" stroke="rgb(137,135,127)" stroke-width="1" opacity="1" d="M 224.5 319 L 227.5 323 L 224.5 319 Z " /></svg>